<svg width="133" height="142" viewBox="0 0 133 142" fill="none" xmlns="http://www.w3.org/2000/svg">
<g clip-path="url(#clip0)">
<path d="M13.2343 105.286C1.85443 98.5323 -1.70908 85.3172 4.05095 73.7964C5.03237 71.8217 5.07911 68.702 4.26125 66.6222C0.978152 58.2795 -0.762709 49.7149 1.15341 40.9866C3.46677 30.4356 9.81098 23.0978 20.595 19.9547C22.5344 19.3938 24.953 17.7814 25.654 16.0404C30.1405 5.02203 52.7483 -2.47936 64.2801 4.78834C65.2965 5.43098 67.4697 5.66467 68.2759 5.03371C79.866 -4.03338 92.7881 1.73871 99.9619 9.64905C104.168 14.2878 108.725 17.5243 114.531 20.1533C132.022 28.0637 138.261 54.6223 126.904 70.0457C126.565 70.5014 126.332 71.0389 126.238 71.2258C128.073 75.0934 130.55 78.5519 131.344 82.3611C133.12 90.9257 129.498 97.6092 122.021 101.897C119.076 103.592 118.083 105.192 118.726 108.674C120.689 119.295 114.087 127.276 103.093 127.533C99.4478 127.615 97.1227 128.421 95.0197 131.658C88.8274 141.204 76.5596 144.043 67.6566 137.184C66.6518 136.413 64.0347 136.752 62.7261 137.523C51.9305 143.926 43.6585 142.781 35.3047 133.562C34.37 132.522 33.003 131.447 31.7061 131.237C17.1132 128.83 10.4419 119.669 13.2343 105.286ZM93.1036 126.026C84.5278 121.819 79.6908 115.206 80.9526 105.251C81.1162 103.965 82.5182 102.844 84.1305 100.53C86.4906 118.127 92.8115 125.406 103.397 123.584C106.622 123.034 110.255 121.515 112.475 119.249C117.721 113.909 113.83 107.623 112.662 101.862C128.388 96.4057 132.209 85.9131 122.698 75.3037C110.232 82.6999 102.31 85.1419 95.1132 82.8401C97.333 81.3211 99.7983 80.4331 102.334 79.7905C113.842 76.9044 124.287 72.406 127.839 59.7634C131.473 46.8405 126.18 36.196 117.628 26.977C115.653 24.8504 112.393 22.6187 109.788 22.6888C105.184 22.8174 103.409 20.2001 101.259 17.2439C96.5853 10.8175 91.0589 5.57119 82.635 4.56634C75.0407 3.65495 67.5515 8.73767 67.5515 15.0239C67.5164 52.7528 67.4814 90.4934 67.6683 128.222C67.68 130.279 69.1755 132.99 70.8463 134.251C78.8729 140.316 88.3834 136.752 93.1036 126.026ZM19.3331 102.622C13.3979 116.655 19.1111 126.178 34.1947 127.685C35.55 127.825 37.0689 129.18 37.9919 130.384C42.4317 136.133 48.0982 139.136 55.1435 136.74C58.7654 135.513 63.6959 134.695 63.6959 128.807C63.6375 90.0961 63.7192 51.3857 63.4973 12.6753C63.4856 10.7708 61.4643 7.86134 59.6767 7.14859C52.1408 4.11064 33.7507 6.82142 29.0539 18.4825C28.2945 20.3636 25.9928 22.5019 24.065 22.9108C3.66539 27.1406 -0.225261 51.2689 9.98623 66.8675C20.7001 59.8335 31.636 59.7985 42.5251 66.3534C43.9973 67.2414 44.8035 69.2512 45.9134 70.7351C44.2193 70.4196 42.2915 70.5131 40.8778 69.7069C35.3047 66.5287 29.4628 65.1149 23.0485 65.7225C13.8535 66.5871 6.154 74.3456 5.40625 83.6697C4.6585 93.0523 10.033 100.355 19.3331 102.622Z" fill="#363263"/>
<path d="M88.4886 33.9301C91.7016 38.8492 93.9799 44.9952 98.3963 48.3487C102.883 51.7605 109.461 52.4265 115.01 54.8802C108.292 57.8364 101.96 55.628 96.34 52.3564C89.9023 48.6174 87.6123 42.0508 87.0749 34.97C87.5539 34.6312 88.0212 34.2806 88.4886 33.9301Z" fill="#363263"/>
<path d="M21.039 87.9939C27.8155 86.0309 39.3472 91.1487 43.1094 97.096C46.5911 102.611 46.7079 110.58 43.3547 114.599C41.4386 108.687 40.8778 101.676 37.2091 97.1895C33.669 92.8663 26.9392 91.1603 21.039 87.9939Z" fill="#363263"/>
<path d="M28.2244 43.2192C35.5267 39.1997 48.2385 42.9504 47.5258 28.5436C51.2295 30.9856 51.7786 33.194 50.3299 36.4773C47.4907 42.892 37.9219 46.2104 28.2244 43.2192Z" fill="#363263"/>
</g>
<defs>
<clipPath id="clip0">
<rect width="132.282" height="141.148" fill="white" transform="translate(0.358978 0.442627)"/>
</clipPath>
</defs>
</svg>
