<svg width="126" height="90" viewBox="0 0 126 90" fill="none" xmlns="http://www.w3.org/2000/svg">
<g clip-path="url(#clip0)">
<path d="M68.4821 42.1727C74.8236 32.8969 82.4106 33.0725 89.0428 42.6375C98.5602 38.3611 104.154 30.5005 108.285 21.4211C108.7 20.5018 107.881 18.6528 107.112 17.6199C103.988 13.4055 103.739 8.22019 106.728 4.31571C109.52 0.659127 114.886 -0.632038 119.225 1.30987C123.387 3.16915 126.179 8.00327 125.514 12.197C124.715 17.2274 121.072 20.2848 115.602 21.1009C114.097 21.3281 112.125 22.485 111.482 23.7761C106.843 33.0932 100.698 40.8815 91.2223 45.7983C89.9146 46.48 89.0428 48.3083 88.337 49.775C86.0329 54.6092 82.2342 56.5614 77.0136 55.952C72.3534 55.4149 69.7068 52.6363 68.3887 48.2876C68.0877 47.3167 67.3819 45.9325 66.6035 45.726C60.0544 44.001 53.443 42.5135 46.977 40.9745C43.2406 51.3038 39.6806 53.1527 30.5264 50.6634C29.3951 50.3535 27.2362 51.2831 26.5512 52.3057C23.2923 57.1192 20.189 62.0669 17.4904 67.2109C16.8366 68.4711 17.3348 71.1154 18.3104 72.2826C21.4863 76.0942 21.7562 80.0503 19.7738 84.2543C17.8952 88.2414 14.2418 90.142 10.0903 89.8322C5.27444 89.481 1.77675 86.692 0.365211 81.8476C-1.21239 76.435 2.55516 69.9585 8.18054 69.5247C11.7717 69.2458 13.152 67.6035 14.5013 64.7629C16.3384 60.8997 18.383 57.0779 20.8428 53.5866C23.5414 49.7647 26.7692 46.8725 25.3369 41.0364C24.2575 36.6465 28.1288 32.8866 32.4672 31.4921C36.8368 30.0874 41.2789 31.141 43.9152 35.221C45.5551 37.762 47.4233 38.1442 50.1633 38.5058C56.2142 39.3321 62.1717 40.8712 68.4821 42.1727ZM115.571 4.12978C111.555 3.83023 108.514 6.28861 108.109 10.1931C107.735 13.7774 110.693 17.403 114.243 17.7232C118.166 18.0744 121.197 15.492 121.498 11.5462C121.809 7.39384 119.432 4.419 115.571 4.12978ZM10.6196 72.5099C6.71711 72.5305 4.04973 75.3298 4.03935 79.3995C4.02897 83.459 6.63408 86.031 10.7234 86.0103C14.6985 86 17.5527 83.1697 17.5008 79.3169C17.4489 75.6293 14.273 72.4892 10.6196 72.5099ZM42.4933 41.5942C42.6074 38.1236 39.1824 34.374 35.8092 34.2811C32.3012 34.1881 29.0941 37.5141 29.0422 41.2947C29.0007 45.0236 32.1143 48.5665 35.529 48.6801C38.7569 48.7834 42.3791 45.0959 42.4933 41.5942ZM78.7053 52.8532C82.5144 52.7292 85.2129 49.7854 85.1818 45.7879C85.1403 41.9557 82.1408 38.9706 78.3836 39.0326C74.7095 39.0945 71.6581 42.3276 71.7411 46.0565C71.8241 49.6408 75.2284 52.9668 78.7053 52.8532Z" fill="#363263"/>
</g>
<defs>
<clipPath id="clip0">
<rect width="125.606" height="89.4726" fill="white" transform="translate(0 0.412476)"/>
</clipPath>
</defs>
</svg>
