<svg width="131" height="140" viewBox="0 0 131 140" fill="none" xmlns="http://www.w3.org/2000/svg">
<g clip-path="url(#clip0)">
<path d="M123.019 92.283C129.382 95.8127 131.779 99.7793 130.383 105.298C129.033 110.633 125.113 113.565 119.552 113.749C113.573 113.944 110.071 110.817 108.42 105.597C106.71 100.193 109.362 95.9047 113.91 93.6282C117.272 91.9381 118.482 90.0525 118.424 86.6378C118.308 79.9923 118.959 73.2779 118.133 66.7244C117.249 59.711 111.572 54.8592 105.093 53.9394C98.229 52.9621 91.9122 55.6295 89.5275 63.0913C86.5378 72.4041 85.1301 82.2918 83.7923 92.0186C82.4662 101.619 82.9548 111.518 81.0702 120.98C78.0689 136.053 65.191 142.837 49.2304 138.87C40.8081 136.778 35.0729 128.143 34.6309 117.002C34.468 112.794 34.6076 108.586 34.6076 103.723C20.6014 102.504 16.1924 92.6509 13.4587 81.0846C9.25911 63.2982 4.47791 45.6498 0.569192 27.8059C-1.55966 18.1022 2.30252 12.3535 11.3996 8.22594C13.8542 7.1107 16.0877 5.3631 18.1584 3.59251C21.8345 0.465236 26.7553 -0.558027 29.745 2.22433C31.9436 4.27086 32.06 9.47915 31.5714 13.0778C31.141 16.3201 23.1839 17.4123 19.8336 14.423C16.9486 11.8591 14.8197 10.4909 11.0506 12.6639C6.83943 15.1014 3.84972 18.2056 4.43138 23.138C5.32713 30.6917 6.24614 38.3145 8.08417 45.6728C11.481 59.3431 15.4712 72.8755 19.3799 86.4194C22.2067 96.2036 27.1043 99.8712 36.7481 99.9057C47.2877 99.9402 54.5351 95.0769 57.1293 85.81C62.3642 67.1038 67.634 48.3977 72.4733 29.5995C74.8116 20.5281 71.6241 12.227 60.4215 10.2495C59.4559 11.3762 58.5485 13.5032 57.2689 13.7562C53.5347 14.4805 48.1834 16.0556 46.2058 14.2965C44.1002 12.4225 44.1351 6.84626 45.0658 3.36257C46.0662 -0.362572 54.9306 0.166305 58.3508 3.74198C59.3396 4.77674 60.2586 6.21391 61.5033 6.62781C75.5794 11.3762 79.7557 17.5503 76.1959 32.1404C71.3566 51.9273 65.8425 71.5648 59.8282 91.0298C57.5016 98.5491 50.1611 101.423 42.7624 103.102C41.4711 103.389 40.145 103.504 37.958 103.838C38.5629 110.391 38.6443 116.91 39.8541 123.199C41.3664 131.018 46.2175 135.076 52.9995 135.582C65.4586 136.502 72.9038 133.455 75.6841 124.315C78.1038 116.393 79.3485 107.908 79.6859 99.6183C80.1861 87.2012 79.6161 74.7611 84.595 62.9533C90.0742 49.9498 102.999 47.5239 112.712 52.6862C119.39 56.2273 122.426 62.5279 122.914 69.6792C123.403 76.8651 123.019 84.1199 123.019 92.283ZM126.521 103.723C126.451 98.8595 122.88 95.1458 119.145 95.6977C115.248 96.2841 112.386 98.2961 112.445 102.838C112.491 106.965 115.586 110.46 119.471 110.207C123.973 109.897 126.276 107.241 126.521 103.723ZM27.5696 4.43182C24.6613 5.76551 22.6023 6.54733 20.7991 7.72006C20.5432 7.88102 21.2761 10.7094 21.9741 10.9163C23.6492 11.4107 25.5803 11.0773 27.5696 11.0773C27.5696 9.19172 27.5696 7.72006 27.5696 4.43182ZM48.5441 5.78851C48.6837 7.86952 48.7767 9.47915 48.8814 11.0428C55.7101 11.5142 55.7101 11.5142 54.7794 5.78851C52.9879 5.78851 51.1382 5.78851 48.5441 5.78851Z" fill="#363263"/>
</g>
<defs>
<clipPath id="clip0">
<rect width="130.768" height="139.371" fill="white" transform="translate(0 0.603149)"/>
</clipPath>
</defs>
</svg>
