<svg width="74" height="147" viewBox="0 0 74 147" fill="none" xmlns="http://www.w3.org/2000/svg">
<g clip-path="url(#clip0)">
<path d="M3.02431 2.29559C3.35094 4.04016 3.93161 5.77262 3.9558 7.51719C4.06468 15.9856 3.70176 24.4662 4.10097 32.9225C4.68164 45.1951 14.5409 52.1855 24.4365 47.5696C29.7351 45.0982 32.8562 40.9427 32.8199 34.7761C32.7715 25.9079 32.6626 17.0275 32.9167 8.15929C32.9772 6.18453 34.453 4.25824 35.2757 2.31982C36.0136 4.35516 37.3201 6.36626 37.3927 8.42582C37.6346 16.4824 37.4411 24.551 37.5016 32.6196C37.5499 39.0406 35.566 44.6741 30.2916 48.4177C27.2431 50.5863 26.5172 52.9366 26.6987 56.4137C28.0052 82.3642 28.7915 108.351 30.5819 134.277C31.2594 144.09 20.9162 149.239 13.8756 145.932C9.42377 143.836 7.01641 140.771 7.27046 135.634C8.45599 111.489 9.47216 87.3435 10.694 63.1981C11.0206 56.8377 12.1215 50.8771 5.14133 46.4551C2.37106 44.6984 0.616952 39.6222 0.375007 35.9271C-0.278246 26.0896 0.108867 16.1795 0.193547 6.29357C0.205645 4.9488 0.822606 3.61614 1.16133 2.27136C1.77829 2.27136 2.40735 2.28348 3.02431 2.29559ZM15.4966 52.8155C15.2426 55.7716 14.9159 58.5217 14.7829 61.296C13.6094 85.6595 12.4844 110.011 11.2988 134.374C11.0206 140.105 12.8473 142.237 18.4241 142.31C24.5091 142.394 26.0091 140.674 25.7551 134.205C25.2107 120.502 24.8115 106.8 24.1824 93.1102C23.5776 79.6867 22.7429 66.2753 22.0049 52.8155C19.5008 52.8155 17.7346 52.8155 15.4966 52.8155Z" fill="#363263"/>
<path d="M59.0468 65.912C52.8288 66.5298 51.9336 63.4768 52.0546 58.5944C52.3691 45.8978 52.0788 33.1891 52.1877 20.4925C52.2723 9.66163 57.1838 4.02812 67.4665 1.2053C73.2127 -0.36966 74.0111 1.93221 73.999 6.79035C73.8902 37.8413 73.9386 68.8801 73.9386 99.9311C73.9386 111.828 73.9749 123.725 73.9265 135.61C73.9023 143.255 70.1037 147.168 63.0873 146.95C55.2604 146.72 51.5223 143.012 52.2481 135.089C54.3047 112.288 56.6999 89.5121 59.0468 65.912ZM69.8255 5.7848C62.9784 5.57885 57.825 8.70454 57.4742 15.6101C56.6999 30.6086 57.2322 45.6798 57.2322 61.2355C63.3051 59.8665 63.5833 63.4041 63.0994 67.8988C61.9381 78.7055 60.934 89.5243 59.9299 100.343C58.8049 112.373 57.704 124.404 56.6878 136.434C56.3612 140.335 57.9944 142.334 62.2647 142.37C68.7246 142.407 70.0674 141.038 70.0795 132.751C70.1037 92.1896 70.0916 51.6404 70.0795 11.0791C70.0674 9.29818 69.9102 7.52937 69.8255 5.7848Z" fill="#363263"/>
<path d="M15.8595 20.0564C15.8595 24.6964 16.0168 29.3365 15.7507 33.9524C15.6781 35.176 14.3232 36.3269 13.5611 37.5142C12.7626 36.3269 11.2989 35.1518 11.2747 33.9524C11.1053 24.4784 11.1053 15.0044 11.311 5.5425C11.3352 4.44002 12.9925 3.3739 13.8877 2.29565C14.5409 3.38601 15.7265 4.44002 15.7749 5.55461C15.9805 10.3764 15.8595 15.2224 15.8595 20.0564Z" fill="#363263"/>
<path d="M21.9324 19.6929C21.9324 14.859 21.8114 10.013 22.0413 5.17904C22.0896 4.19772 23.4324 3.26486 24.1825 2.31989C24.8599 3.19217 26.1059 4.05234 26.118 4.92463C26.2632 14.7984 26.2753 24.6843 26.1059 34.5581C26.0938 35.5394 24.6301 36.4965 23.8317 37.4536C23.2026 36.3754 22.0655 35.3093 22.0171 34.2068C21.8114 29.3729 21.9203 24.5389 21.9324 19.6929Z" fill="#363263"/>
</g>
<defs>
<clipPath id="clip0">
<rect width="73.9869" height="146.253" fill="white" transform="translate(0 0.720642)"/>
</clipPath>
</defs>
</svg>
