<svg width="144" height="142" viewBox="0 0 144 142" fill="none" xmlns="http://www.w3.org/2000/svg">
<g clip-path="url(#clip0)">
<path d="M77.2315 30.5884C77.402 32.9291 75.3822 34.4415 73.711 34.3579C71.7746 34.3655 70.1906 32.7999 70.1943 30.8734C70.1943 28.9012 71.7518 27.3053 73.6769 27.3091C75.602 27.3091 77.0951 28.7417 77.2315 30.5884Z" fill="#D7B4CF"/>
<path d="M95.9366 90.2659C95.9366 91.1132 95.9366 91.9606 95.9366 92.808H95.3379C94.94 92.3368 94.561 91.8846 94.1821 91.4362C92.9505 92.6332 91.7758 93.777 90.5858 94.9359C90.1501 94.4609 89.6953 93.967 89.2292 93.4578C88.7593 93.8758 88.3235 94.2634 87.8801 94.6623H87.3572C87.3572 93.1994 87.3572 91.7364 87.3572 90.2659C90.2221 90.2659 93.0604 90.2659 95.9366 90.2659Z" fill="#D7B4CF"/>
<path d="M95.9366 92.8079C95.9366 94.8142 95.9366 96.8244 95.9366 98.8573C93.0831 98.8573 90.2372 98.8573 87.3572 98.8573C87.3572 97.4551 87.3572 96.0568 87.3572 94.6622H87.8801C88.8124 95.6882 89.7029 96.6686 90.601 97.6565C92.2229 95.996 93.8183 94.3658 95.3379 92.8079H95.9366Z" fill="#D7B4CF"/>
<path d="M95.9404 75.9326C95.9404 76.7838 95.9404 77.6312 95.9404 78.4785H95.3417C94.9248 77.9922 94.5497 77.5552 94.2048 77.1486C92.9732 78.3379 91.7947 79.4779 90.601 80.6293C90.1614 80.1505 89.7067 79.6527 89.2292 79.1359C88.7744 79.5387 88.3349 79.9225 87.8763 80.3291H87.3647C87.3647 78.8661 87.3647 77.3994 87.3647 75.9326C90.241 75.9326 93.0755 75.9326 95.9404 75.9326Z" fill="#D7B4CF"/>
<path d="M95.9404 78.4785C95.9404 80.4925 95.9404 82.5102 95.9404 84.5507C93.0718 84.5507 90.2372 84.5507 87.3647 84.5507C87.3647 83.1372 87.3647 81.735 87.3647 80.3291H87.8763C88.8048 81.3512 89.6915 82.3316 90.5972 83.331C92.2229 81.6704 93.8183 80.0327 95.3417 78.4785H95.9404Z" fill="#D7B4CF"/>
<path d="M95.9366 61.603C95.9366 62.42 95.9366 63.237 95.9366 64.054H95.4364C94.9817 63.6208 94.5686 63.2218 94.1556 62.8266C92.9581 63.997 91.7871 65.1445 90.5972 66.3035C90.1576 65.8209 89.7029 65.3231 89.233 64.8063C88.7707 65.2167 88.3387 65.5967 87.8763 66.0071H87.361C87.361 64.5404 87.361 63.0774 87.361 61.603C90.2258 61.603 93.0604 61.603 95.9366 61.603Z" fill="#D7B4CF"/>
<path d="M95.9366 64.0542C95.9366 66.0985 95.9366 68.1467 95.9366 70.21C93.0869 70.21 90.2524 70.21 87.361 70.21C87.361 68.8041 87.361 67.4057 87.361 66.0073H87.8763C88.7896 67.0143 89.6839 67.9947 90.6048 69.0055C92.2305 67.3373 93.8259 65.7072 95.4364 64.0542H95.9366Z" fill="#D7B4CF"/>
<path d="M95.9328 47.2888C95.9328 48.102 95.9328 48.9152 95.9328 49.7322H95.4364C94.9779 49.2952 94.5535 48.8962 94.1669 48.5276C92.9581 49.6904 91.7871 50.8227 90.5934 51.9665C90.1576 51.4953 89.7029 50.9975 89.233 50.4883C88.7707 50.8949 88.3386 51.2711 87.8725 51.6777H87.3685C87.3685 50.2223 87.3685 48.7594 87.3685 47.2888C90.222 47.2888 93.0566 47.2888 95.9328 47.2888Z" fill="#D7B4CF"/>
<path d="M95.9328 49.7322C95.9328 51.7651 95.9328 53.8057 95.9328 55.869C93.0983 55.869 90.2486 55.869 87.3685 55.869C87.3685 54.4745 87.3685 53.0799 87.3685 51.6777H87.8725C88.782 52.6809 89.6763 53.6651 90.5972 54.6834C92.2229 53.0191 93.8145 51.3927 95.4364 49.7322H95.9328Z" fill="#D7B4CF"/>
<path d="M104.827 105.405C104.831 106.742 104.38 107.901 103.463 108.821C102.705 109.577 101.738 110.063 100.632 110.071C97.3956 110.098 94.1593 110.094 90.9231 110.098C85.4775 110.101 80.0282 110.113 74.5827 110.113C70.4786 110.113 66.3746 110.101 62.2743 110.098C59.0078 110.094 55.7412 110.098 52.4784 110.098C50.7466 110.098 49.0148 110.101 47.283 110.094C44.5394 110.086 42.5916 108.129 42.5916 105.374C42.5878 98.1621 42.5878 90.9461 42.5878 83.7301C42.5878 69.602 42.5878 55.474 42.5878 41.3498C42.5878 39.009 44.0164 37.1889 46.2371 36.7063C46.5175 36.6455 46.8093 36.6151 47.0973 36.6151C51.5614 36.6075 56.0254 36.6113 60.4895 36.6113C60.5766 36.6113 60.6638 36.6227 60.8191 36.6303C60.8191 37.2573 60.8229 37.8501 60.8191 38.4391C60.8078 39.5562 61.3345 40.0882 62.4562 40.0882C68.8302 40.0882 75.2004 40.0882 81.5743 40.0882C82.7453 40.0882 83.9125 40.092 85.0834 40.0882C86.046 40.0844 86.5992 39.5106 86.5992 38.5341C86.5992 37.9147 86.5992 37.2915 86.5992 36.6113C86.7849 36.6113 86.9365 36.6113 87.0919 36.6113C91.4536 36.6113 95.8191 36.6075 100.181 36.6113C102.834 36.6151 104.815 38.5911 104.819 41.2548C104.823 45.8033 104.823 50.3555 104.823 54.904C104.823 65.5779 104.819 76.2557 104.819 86.9334C104.819 93.0892 104.812 99.2488 104.827 105.405ZM97.532 85.1132C97.532 81.8985 97.532 78.6838 97.5282 75.4691C97.5282 74.5419 97.3274 74.3367 96.4217 74.3367C94.8187 74.3405 93.2157 74.3367 91.6128 74.3367C91.6128 74.3405 91.6128 74.3405 91.6128 74.3405C89.9227 74.3405 88.2363 74.3405 86.55 74.3405C86.1142 74.3405 85.7807 74.7091 85.7845 75.1689C85.7921 75.6021 85.7883 76.0315 85.7883 76.4647C85.7845 79.3754 85.7769 82.2861 85.7769 85.1968C85.7807 85.877 86.0422 86.1316 86.7357 86.1316C89.9984 86.1354 93.2612 86.1392 96.524 86.1354C97.2895 86.1354 97.532 85.8808 97.532 85.1132ZM97.532 99.454C97.5282 96.1519 97.5282 92.8498 97.5282 89.5477C97.5282 88.9701 97.2705 88.6737 96.7021 88.6737C93.337 88.6699 89.9719 88.6699 86.6068 88.6737C86.0801 88.6737 85.7845 88.9473 85.7845 89.4641C85.7769 92.8384 85.7731 96.2127 85.7807 99.5832C85.7845 100.203 86.0536 100.438 86.675 100.438C88.3348 100.442 89.9947 100.438 91.6583 100.438C91.6583 100.442 91.6583 100.442 91.6583 100.442C93.2878 100.442 94.921 100.446 96.5505 100.442C97.3008 100.438 97.532 100.199 97.532 99.454ZM97.5282 70.8484C97.532 69.1954 97.5282 67.5463 97.5282 65.8933C97.5282 64.2556 97.532 62.6216 97.5282 60.9839C97.5282 60.2543 97.2933 60.0149 96.5733 60.0149C93.2953 60.0149 90.0136 60.0149 86.7357 60.0149C86.0346 60.0149 85.7769 60.2771 85.7769 60.9915C85.7731 64.2784 85.7731 67.5653 85.7769 70.856C85.7769 71.5438 86.0346 71.8022 86.7205 71.8022C90.0136 71.806 93.3067 71.806 96.596 71.8022C97.2781 71.8022 97.5282 71.54 97.5282 70.8484ZM97.5282 56.5342C97.532 54.8964 97.5282 53.2587 97.5282 51.6247C97.5282 49.987 97.5282 48.3492 97.5282 46.7152C97.5282 45.9249 97.3084 45.6931 96.5354 45.6931C93.3029 45.6931 90.0667 45.6931 86.8342 45.6969C85.9891 45.6969 85.7731 45.9097 85.7731 46.7456C85.7731 49.987 85.7731 53.2321 85.7769 56.4772C85.7807 57.2296 86.0157 57.469 86.7584 57.469C90.0363 57.4728 93.3143 57.4728 96.5922 57.469C97.2857 57.469 97.5282 57.2258 97.5282 56.5342ZM81.1499 57.3702C81.5289 57.2182 81.7335 56.7394 81.6388 56.3556C81.5213 55.8844 81.1575 55.645 80.5398 55.645C75.6703 55.645 70.8007 55.645 65.9312 55.645C61.6718 55.645 57.4086 55.645 53.1492 55.645C52.3685 55.645 51.5917 55.6336 50.811 55.6488C50.2653 55.6602 49.8599 56.0934 49.8864 56.5912C49.9129 57.1194 50.326 57.4766 50.8717 57.469C51.4628 57.4614 52.054 57.4728 52.6452 57.4728C57.0069 57.4728 61.3724 57.4728 65.7342 57.4728C70.634 57.4728 75.5301 57.4728 80.4299 57.469C80.6724 57.469 80.9301 57.4576 81.1499 57.3702ZM81.6426 85.345C81.6994 84.9878 81.5895 84.6572 81.2636 84.49C81.0362 84.3722 80.7482 84.3114 80.4868 84.3114C75.5755 84.3038 70.6643 84.3038 65.7569 84.3038C61.0314 84.3038 56.3096 84.3038 51.5841 84.3038C51.2809 84.3038 50.9778 84.2962 50.6746 84.319C50.1744 84.3608 49.822 84.8396 49.9129 85.3336C50.0114 85.8922 50.3525 86.1316 51.0611 86.1316C55.3509 86.1316 59.6406 86.1278 63.9266 86.1278C69.4744 86.1278 75.0223 86.1354 80.5663 86.1354C80.7103 86.1354 80.8581 86.1164 80.9945 86.0784C81.3659 85.9796 81.5819 85.7174 81.6426 85.345ZM81.1878 100.317C81.5592 100.149 81.7259 99.7124 81.6312 99.3286C81.5137 98.8575 81.1461 98.6181 80.5322 98.6181C75.6058 98.6181 70.6795 98.6181 65.7531 98.6181C65.7531 98.6219 65.7531 98.6219 65.7531 98.6257C61.5202 98.6257 57.2873 98.6257 53.0544 98.6257C52.3193 98.6257 51.5803 98.6181 50.8451 98.6295C50.2805 98.6371 49.8902 99.0209 49.8864 99.5338C49.8788 100.073 50.2957 100.442 50.9285 100.442C54.6953 100.442 58.4621 100.442 62.2288 100.442C65.7986 100.442 69.3645 100.442 72.9342 100.442C75.4505 100.442 77.9629 100.446 80.4754 100.438C80.7141 100.438 80.9756 100.415 81.1878 100.317ZM81.3621 71.5324C81.6729 71.2968 81.7411 70.9244 81.5857 70.5482C81.3962 70.096 81.0287 69.9706 80.5701 69.9706C75.6286 69.9782 70.6871 69.9744 65.7493 69.9744C61.3989 69.9744 57.0524 69.9744 52.7058 69.9744C52.0691 69.9744 51.4325 69.9668 50.7997 69.982C50.2805 69.9934 49.8826 70.4038 49.8826 70.8902C49.8826 71.3614 50.254 71.749 50.758 71.7984C50.8603 71.806 50.9626 71.8022 51.0611 71.8022C59.3678 71.8022 67.6744 71.8022 75.981 71.8022C77.512 71.8022 79.0429 71.8136 80.5739 71.7908C80.843 71.787 81.1499 71.692 81.3621 71.5324Z" fill="#D7B4CF"/>
<path d="M108.613 91.1177C108.625 95.6396 108.621 100.161 108.613 104.68C108.609 105.892 108.659 107.104 108.321 108.297C107.431 111.497 104.456 113.868 101.129 113.891C96.3617 113.925 91.5907 113.902 86.8235 113.902C82.5186 113.902 78.2099 113.898 73.905 113.898C65.2233 113.898 56.5377 113.898 47.8521 113.902C46.5106 113.902 45.1729 113.921 43.8731 113.454C40.9438 112.39 38.8368 109.547 38.8255 106.42C38.7951 100.059 38.8179 93.6978 38.8179 87.3368C38.8179 82.0169 38.8141 76.7009 38.8141 71.381C38.8141 62.5577 38.8141 53.7305 38.8141 44.9071C38.8141 43.4594 38.8141 42.0116 38.8141 40.56C38.8065 36.3232 42.0996 32.8842 46.3325 32.8272C50.8686 32.7702 55.4084 32.812 59.9445 32.8082C60.2173 32.8082 60.4901 32.8082 60.8236 32.8082C60.8236 32.1205 60.8236 31.5011 60.8236 30.8817C60.8236 29.9013 61.3655 29.3427 62.347 29.3351C63.5862 29.3275 64.8291 29.3351 66.11 29.3351C66.6292 27.078 67.8456 25.3186 69.8427 24.1369C71.2259 23.3161 72.7341 23.0083 74.3333 23.1185C77.6718 23.3465 80.1994 25.5846 81.3136 29.3351C82.1624 29.3351 83.0264 29.3351 83.8904 29.3351C84.3224 29.3389 84.7582 29.3313 85.1902 29.3503C86.0618 29.3883 86.5772 29.9165 86.5924 30.7829C86.6037 31.4365 86.5924 32.0863 86.5924 32.812C87.3503 32.812 88.0779 32.812 88.8092 32.812C92.883 32.8158 96.9605 32.774 101.034 32.831C104.661 32.8804 107.548 35.2516 108.405 38.7893C108.553 39.4011 108.606 40.0471 108.606 40.6816C108.625 44.6221 108.617 48.5626 108.617 52.5069C108.617 60.1827 108.621 67.8585 108.613 75.5381C108.613 76.9935 108.568 78.4526 108.572 79.9118C108.579 83.6471 108.609 87.3824 108.613 91.1177ZM103.463 108.821C104.38 107.902 104.831 106.743 104.828 105.405C104.812 99.2495 104.82 93.0899 104.82 86.934C104.82 76.2563 104.824 65.5786 104.824 54.9047C104.824 50.3562 104.824 45.8039 104.82 41.2554C104.816 38.5917 102.834 36.6157 100.182 36.6119C95.8198 36.6081 91.4543 36.6119 87.0926 36.6119C86.9372 36.6119 86.7856 36.6119 86.5999 36.6119C86.5999 37.2921 86.5999 37.9153 86.5999 38.5347C86.5999 39.5113 86.0467 40.0851 85.0841 40.0889C83.9132 40.0927 82.746 40.0889 81.575 40.0889C75.2011 40.0889 68.8309 40.0889 62.4569 40.0889C61.3352 40.0889 60.8085 39.5569 60.8198 38.4397C60.8236 37.8507 60.8198 37.2579 60.8198 36.6309C60.6645 36.6233 60.5773 36.6119 60.4901 36.6119C56.0261 36.6119 51.562 36.6081 47.098 36.6157C46.81 36.6157 46.5182 36.6461 46.2378 36.7069C44.0171 37.1895 42.5885 39.0097 42.5885 41.3504C42.5885 55.4746 42.5885 69.6027 42.5885 83.7307C42.5885 90.9467 42.5885 98.1627 42.5922 105.375C42.5922 108.13 44.5401 110.087 47.2837 110.094C49.0155 110.102 50.7473 110.098 52.4791 110.098C55.7419 110.098 59.0084 110.094 62.275 110.098C66.3753 110.102 70.4793 110.113 74.5834 110.113C80.0289 110.113 85.4782 110.102 90.9238 110.098C94.16 110.094 97.3963 110.098 100.633 110.072C101.739 110.064 102.705 109.578 103.463 108.821ZM73.7118 34.3586C75.383 34.4422 77.4028 32.9298 77.2322 30.5891C77.0958 28.7424 75.6028 27.3098 73.6777 27.3098C71.7526 27.306 70.1951 28.9019 70.1951 30.8741C70.1913 32.8006 71.7753 34.3662 73.7118 34.3586Z" fill="#363263"/>
<path d="M97.5282 75.469C97.5319 78.6837 97.5319 81.8985 97.5319 85.1132C97.5319 85.8808 97.2894 86.1353 96.5239 86.1353C93.2612 86.1391 89.9984 86.1353 86.7356 86.1315C86.0421 86.1315 85.7806 85.8769 85.7769 85.1968C85.7769 82.286 85.7844 79.3753 85.7882 76.4646C85.7882 76.0314 85.792 75.602 85.7844 75.1688C85.7806 74.7091 86.1141 74.3405 86.5499 74.3405C88.2363 74.3405 89.9226 74.3405 91.6127 74.3405C91.6127 74.3405 91.6127 74.3405 91.6127 74.3367C93.2157 74.3367 94.8186 74.3405 96.4216 74.3367C97.3273 74.3367 97.5282 74.5419 97.5282 75.469ZM95.9403 84.5508C95.9403 82.5102 95.9403 80.4925 95.9403 78.4786C95.9403 77.6312 95.9403 76.7838 95.9403 75.9326C93.0755 75.9326 90.2409 75.9326 87.3647 75.9326C87.3647 77.3994 87.3647 78.8661 87.3647 80.3291C87.3647 81.7351 87.3647 83.1372 87.3647 84.5508C90.2371 84.5508 93.0717 84.5508 95.9403 84.5508Z" fill="#363263"/>
<path d="M97.5281 89.5475C97.5281 92.8496 97.5281 96.1517 97.5319 99.4538C97.5319 100.199 97.3007 100.438 96.5504 100.442C94.9209 100.446 93.2877 100.442 91.6582 100.442C91.6582 100.442 91.6582 100.442 91.6582 100.438C89.9946 100.438 88.3348 100.442 86.6749 100.438C86.0535 100.438 85.7844 100.202 85.7806 99.583C85.773 96.2125 85.7768 92.8382 85.7844 89.4639C85.7844 88.9471 86.08 88.6735 86.6067 88.6735C89.9718 88.6697 93.3369 88.6697 96.702 88.6735C97.2704 88.6735 97.5281 88.9699 97.5281 89.5475ZM95.9365 98.8572C95.9365 96.8243 95.9365 94.8141 95.9365 92.8078C95.9365 91.9604 95.9365 91.113 95.9365 90.2657C93.0603 90.2657 90.2219 90.2657 87.3571 90.2657C87.3571 91.7362 87.3571 93.1992 87.3571 94.6621C87.3571 96.0567 87.3571 97.4551 87.3571 98.8572C90.2371 98.8572 93.083 98.8572 95.9365 98.8572Z" fill="#363263"/>
<path d="M97.5282 65.8933C97.5282 67.5463 97.532 69.1955 97.5282 70.8484C97.5282 71.54 97.2781 71.8022 96.596 71.8022C93.3067 71.806 90.0136 71.806 86.7205 71.8022C86.0346 71.8022 85.7769 71.5438 85.7769 70.856C85.7731 67.5653 85.7731 64.2784 85.7769 60.9915C85.7769 60.2771 86.0346 60.0149 86.7356 60.0149C90.0136 60.0149 93.2953 60.0149 96.5732 60.0149C97.2932 60.0149 97.5282 60.2543 97.5282 60.9839C97.532 62.6216 97.5282 64.2556 97.5282 65.8933ZM95.9366 70.21C95.9366 68.1467 95.9366 66.0985 95.9366 64.0542C95.9366 63.2372 95.9366 62.4202 95.9366 61.6032C93.0604 61.6032 90.2258 61.6032 87.3609 61.6032C87.3609 63.0776 87.3609 64.5406 87.3609 66.0073C87.3609 67.4057 87.3609 68.8041 87.3609 70.21C90.2523 70.21 93.0869 70.21 95.9366 70.21Z" fill="#363263"/>
<path d="M97.5282 51.6245C97.5282 53.2585 97.532 54.8962 97.5282 56.534C97.5282 57.2256 97.2856 57.4688 96.5922 57.4688C93.3142 57.4726 90.0363 57.4726 86.7583 57.4688C86.0156 57.4688 85.7807 57.2294 85.7769 56.477C85.7731 53.2319 85.7731 49.9868 85.7731 46.7454C85.7731 45.9095 85.9891 45.6967 86.8341 45.6967C90.0666 45.6929 93.3029 45.6929 96.5353 45.6929C97.3084 45.6929 97.5282 45.9247 97.5282 46.715C97.5282 48.349 97.5282 49.9868 97.5282 51.6245ZM95.9328 55.869C95.9328 53.8057 95.9328 51.7651 95.9328 49.7322C95.9328 48.9152 95.9328 48.102 95.9328 47.2888C93.0565 47.2888 90.222 47.2888 87.3685 47.2888C87.3685 48.7594 87.3685 50.2224 87.3685 51.6777C87.3685 53.0799 87.3685 54.4744 87.3685 55.869C90.2485 55.869 93.0982 55.869 95.9328 55.869Z" fill="#363263"/>
<path d="M94.1821 91.4363C94.561 91.8847 94.94 92.3369 95.3379 92.808C93.8183 94.366 92.2229 95.9962 90.601 97.6567C89.7029 96.6687 88.8123 95.6884 87.8801 94.6624C88.3235 94.2634 88.7593 93.8758 89.2292 93.4578C89.6953 93.967 90.15 94.461 90.5858 94.936C91.7758 93.777 92.9505 92.6332 94.1821 91.4363Z" fill="#363263"/>
<path d="M94.2047 77.1487C94.5496 77.5553 94.9247 77.9923 95.3416 78.4786C93.8182 80.0328 92.2228 81.6706 90.5971 83.3311C89.6914 82.3318 88.8047 81.3514 87.8762 80.3292C88.3348 79.9226 88.7743 79.5388 89.2291 79.136C89.7066 79.6528 90.1613 80.1506 90.6009 80.6294C91.7946 79.478 92.9731 78.3381 94.2047 77.1487Z" fill="#363263"/>
<path d="M94.1555 62.8267C94.5685 63.2219 94.9816 63.6208 95.4363 64.054C93.8258 65.707 92.2304 67.3372 90.6047 69.0053C89.6838 67.9945 88.7895 67.0142 87.8762 66.0072C88.3385 65.5968 88.7705 65.2168 89.2329 64.8064C89.7028 65.3232 90.1575 65.821 90.5971 66.3036C91.787 65.1446 92.958 63.997 94.1555 62.8267Z" fill="#363263"/>
<path d="M94.1668 48.5278C94.5534 48.8964 94.9778 49.2954 95.4363 49.7324C93.8144 51.393 92.2228 53.0193 90.5971 54.6837C89.6762 53.6653 88.7819 52.6811 87.8724 51.6779C88.3385 51.2714 88.7706 50.8952 89.2329 50.4886C89.7028 50.9978 90.1575 51.4956 90.5933 51.9667C91.787 50.823 92.958 49.6906 94.1668 48.5278Z" fill="#363263"/>
<path d="M81.6387 56.3556C81.7335 56.7393 81.5289 57.2181 81.1499 57.3701C80.9301 57.4575 80.6724 57.4689 80.4299 57.4689C75.53 57.4727 70.634 57.4727 65.7341 57.4727C61.3724 57.4727 57.0069 57.4727 52.6451 57.4727C52.054 57.4727 51.4628 57.4613 50.8716 57.4689C50.3259 57.4765 49.9129 57.1193 49.8864 56.5911C49.8598 56.0934 50.2653 55.6602 50.811 55.6488C51.5916 55.6336 52.3685 55.645 53.1491 55.645C57.4086 55.645 61.6718 55.645 65.9312 55.645C70.8007 55.645 75.6703 55.645 80.5398 55.645C81.1575 55.645 81.5213 55.8844 81.6387 56.3556Z" fill="#363263"/>
<path d="M81.2636 84.4899C81.5895 84.6571 81.6994 84.9877 81.6425 85.3449C81.5819 85.7173 81.3659 85.9795 80.9945 86.0783C80.8581 86.1162 80.7103 86.1352 80.5663 86.1352C75.0222 86.1352 69.4744 86.1277 63.9265 86.1277C59.6406 86.1277 55.3508 86.1314 51.0611 86.1314C50.3525 86.1314 50.0114 85.8921 49.9129 85.3335C49.8219 84.8395 50.1744 84.3607 50.6746 84.3189C50.9777 84.2961 51.2809 84.3037 51.5841 84.3037C56.3096 84.3037 61.0313 84.3037 65.7569 84.3037C70.6643 84.3037 75.5755 84.3037 80.4867 84.3113C80.7482 84.3113 81.0362 84.3721 81.2636 84.4899Z" fill="#363263"/>
<path d="M81.6311 99.3285C81.7259 99.7123 81.5591 100.149 81.1878 100.316C80.9756 100.415 80.7141 100.438 80.4753 100.438C77.9629 100.446 75.4504 100.442 72.9342 100.442C69.3645 100.442 65.7985 100.442 62.2288 100.442C58.462 100.442 54.6952 100.442 50.9285 100.442C50.2956 100.442 49.8788 100.073 49.8863 99.5337C49.8901 99.0207 50.2804 98.6369 50.8451 98.6293C51.5802 98.6179 52.3192 98.6255 53.0544 98.6255C57.2873 98.6255 61.5202 98.6255 65.7531 98.6255C65.7531 98.6217 65.7531 98.6217 65.7531 98.6179C70.6794 98.6179 75.6058 98.6179 80.5322 98.6179C81.1461 98.6179 81.5137 98.8573 81.6311 99.3285Z" fill="#363263"/>
<path d="M81.5857 70.548C81.741 70.9242 81.6728 71.2966 81.3621 71.5322C81.1499 71.6918 80.8429 71.7868 80.5739 71.7906C79.0429 71.8134 77.5119 71.802 75.981 71.802C67.6743 71.802 59.3677 71.802 51.0611 71.802C50.9626 71.802 50.8603 71.8058 50.7579 71.7982C50.2539 71.7488 49.8826 71.3612 49.8826 70.89C49.8826 70.4036 50.2805 69.9933 50.7996 69.9819C51.4325 69.9667 52.0691 69.9743 52.7058 69.9743C57.0523 69.9743 61.3989 69.9743 65.7493 69.9743C70.687 69.9743 75.6285 69.9781 80.5701 69.9705C81.0286 69.9705 81.3962 70.0959 81.5857 70.548Z" fill="#363263"/>
</g>
<defs>
<clipPath id="clip0">
<rect width="70" height="91" fill="white" transform="translate(38.7148 23)"/>
</clipPath>
</defs>
</svg>
