<svg width="144" height="142" viewBox="0 0 144 142" fill="none" xmlns="http://www.w3.org/2000/svg">
<g clip-path="url(#clip0)">
<path d="M71.622 141.559C111.178 141.559 143.244 109.87 143.244 70.7794C143.244 31.689 111.178 0 71.622 0C32.0663 0 0 31.689 0 70.7794C0 109.87 32.0663 141.559 71.622 141.559Z" fill="#363263"/>
</g>
<g clip-path="url(#clip1)">
<path d="M76.7627 30.5883C76.9333 32.929 74.9134 34.4414 73.2423 34.3578C71.3058 34.3654 69.7218 32.7998 69.7256 30.8733C69.7256 28.9011 71.2831 27.3052 73.2082 27.309C75.1332 27.309 76.6263 28.7415 76.7627 30.5883Z" fill="#D7B4CF"/>
<path d="M95.4678 90.2657C95.4678 91.1131 95.4678 91.9605 95.4678 92.8079H94.8691C94.4712 92.3367 94.0922 91.8845 93.7132 91.4361C92.4817 92.6331 91.3069 93.7768 90.117 94.9358C89.6812 94.4608 89.2265 93.9668 88.7604 93.4577C88.2905 93.8756 87.8547 94.2632 87.4113 94.6622H86.8883C86.8883 93.1993 86.8883 91.7363 86.8883 90.2657C89.7532 90.2657 92.5916 90.2657 95.4678 90.2657Z" fill="#D7B4CF"/>
<path d="M95.4678 92.808C95.4678 94.8143 95.4678 96.8245 95.4678 98.8574C92.6143 98.8574 89.7684 98.8574 86.8883 98.8574C86.8883 97.4553 86.8883 96.0569 86.8883 94.6623H87.4113C88.3435 95.6883 89.234 96.6687 90.1322 97.6567C91.7541 95.9961 93.3495 94.3659 94.8691 92.808H95.4678Z" fill="#D7B4CF"/>
<path d="M95.4716 75.9325C95.4716 76.7837 95.4716 77.631 95.4716 78.4784H94.8728C94.456 77.992 94.0808 77.555 93.736 77.1485C92.5044 78.3378 91.3259 79.4778 90.1322 80.6292C89.6926 80.1504 89.2378 79.6526 88.7603 79.1358C88.3056 79.5386 87.866 79.9224 87.4075 80.329H86.8959C86.8959 78.866 86.8959 77.3993 86.8959 75.9325C89.7722 75.9325 92.6067 75.9325 95.4716 75.9325Z" fill="#D7B4CF"/>
<path d="M95.4716 78.4785C95.4716 80.4925 95.4716 82.5102 95.4716 84.5507C92.6029 84.5507 89.7684 84.5507 86.8959 84.5507C86.8959 83.1372 86.8959 81.735 86.8959 80.3291H87.4075C88.3359 81.3512 89.2227 82.3316 90.1284 83.331C91.7541 81.6704 93.3495 80.0327 94.8728 78.4785H95.4716Z" fill="#D7B4CF"/>
<path d="M95.4678 61.6031C95.4678 62.4201 95.4678 63.2371 95.4678 64.0541H94.9676C94.5128 63.6209 94.0998 63.2219 93.6867 62.8267C92.4892 63.9971 91.3183 65.1447 90.1284 66.3036C89.6888 65.821 89.234 65.3233 88.7641 64.8065C88.3018 65.2169 87.8698 65.5968 87.4075 66.0072H86.8921C86.8921 64.5405 86.8921 63.0775 86.8921 61.6031C89.757 61.6031 92.5916 61.6031 95.4678 61.6031Z" fill="#D7B4CF"/>
<path d="M95.4678 64.0541C95.4678 66.0984 95.4678 68.1466 95.4678 70.2099C92.6181 70.2099 89.7835 70.2099 86.8921 70.2099C86.8921 68.8039 86.8921 67.4056 86.8921 66.0072H87.4075C88.3208 67.0142 89.2151 67.9946 90.1359 69.0053C91.7616 67.3372 93.357 65.707 94.9676 64.0541H95.4678Z" fill="#D7B4CF"/>
<path d="M95.464 47.2888C95.464 48.102 95.464 48.9152 95.464 49.7322H94.9676C94.5091 49.2952 94.0846 48.8962 93.6981 48.5276C92.4893 49.6904 91.3183 50.8227 90.1246 51.9665C89.6888 51.4953 89.2341 50.9975 88.7642 50.4883C88.3018 50.8949 87.8698 51.2711 87.4037 51.6777H86.8997C86.8997 50.2223 86.8997 48.7594 86.8997 47.2888C89.7532 47.2888 92.5878 47.2888 95.464 47.2888Z" fill="#D7B4CF"/>
<path d="M95.464 49.7323C95.464 51.7652 95.464 53.8058 95.464 55.8691C92.6295 55.8691 89.7798 55.8691 86.8997 55.8691C86.8997 54.4746 86.8997 53.08 86.8997 51.6778H87.4037C88.3132 52.681 89.2075 53.6652 90.1284 54.6836C91.7541 53.0192 93.3457 51.3929 94.9676 49.7323H95.464Z" fill="#D7B4CF"/>
<path d="M104.358 105.405C104.362 106.742 103.911 107.901 102.994 108.821C102.236 109.577 101.27 110.063 100.163 110.071C96.9268 110.097 93.6905 110.094 90.4543 110.097C85.0087 110.101 79.5594 110.113 74.1139 110.113C70.0098 110.113 65.9058 110.101 61.8055 110.097C58.5389 110.094 55.2724 110.097 52.0096 110.097C50.2778 110.097 48.546 110.101 46.8142 110.094C44.0706 110.086 42.1227 108.129 42.1227 105.374C42.119 98.162 42.119 90.9459 42.119 83.7299C42.119 69.6019 42.119 55.4739 42.119 41.3497C42.119 39.0089 43.5476 37.1888 45.7683 36.7062C46.0487 36.6454 46.3405 36.615 46.6285 36.615C51.0925 36.6074 55.5566 36.6112 60.0206 36.6112C60.1078 36.6112 60.195 36.6226 60.3503 36.6302C60.3503 37.2572 60.3541 37.85 60.3503 38.4389C60.339 39.5561 60.8657 40.0881 61.9874 40.0881C68.3614 40.0881 74.7316 40.0881 81.1055 40.0881C82.2765 40.0881 83.4437 40.0919 84.6146 40.0881C85.5772 40.0843 86.1304 39.5105 86.1304 38.5339C86.1304 37.9146 86.1304 37.2914 86.1304 36.6112C86.3161 36.6112 86.4677 36.6112 86.6231 36.6112C90.9848 36.6112 95.3503 36.6074 99.7121 36.6112C102.365 36.615 104.347 38.5909 104.35 41.2547C104.354 45.8031 104.354 50.3554 104.354 54.9039C104.354 65.5778 104.35 76.2555 104.35 86.9333C104.35 93.0891 104.343 99.2487 104.358 105.405ZM97.0632 85.1131C97.0632 81.8984 97.0632 78.6837 97.0594 75.469C97.0594 74.5418 96.8586 74.3366 95.9529 74.3366C94.3499 74.3404 92.7469 74.3366 91.144 74.3366C91.144 74.3404 91.144 74.3404 91.144 74.3404C89.4538 74.3404 87.7675 74.3404 86.0812 74.3404C85.6454 74.3404 85.3119 74.709 85.3157 75.1688C85.3233 75.602 85.3195 76.0313 85.3195 76.4645C85.3157 79.3753 85.3081 82.286 85.3081 85.1967C85.3119 85.8769 85.5734 86.1315 86.2669 86.1315C89.5296 86.1353 92.7924 86.1391 96.0552 86.1353C96.8207 86.1353 97.0632 85.8807 97.0632 85.1131ZM97.0632 99.4539C97.0594 96.1518 97.0594 92.8497 97.0594 89.5476C97.0594 88.97 96.8017 88.6736 96.2333 88.6736C92.8682 88.6698 89.5031 88.6698 86.138 88.6736C85.6113 88.6736 85.3157 88.9472 85.3157 89.464C85.3081 92.8383 85.3043 96.2126 85.3119 99.5831C85.3157 100.202 85.5847 100.438 86.2062 100.438C87.866 100.442 89.5258 100.438 91.1894 100.438C91.1894 100.442 91.1894 100.442 91.1894 100.442C92.8189 100.442 94.4522 100.446 96.0817 100.442C96.832 100.438 97.0632 100.199 97.0632 99.4539ZM97.0594 70.8483C97.0632 69.1953 97.0594 67.5462 97.0594 65.8932C97.0594 64.2555 97.0632 62.6215 97.0594 60.9837C97.0594 60.2542 96.8245 60.0148 96.1044 60.0148C92.8265 60.0148 89.5448 60.0148 86.2669 60.0148C85.5658 60.0148 85.3081 60.277 85.3081 60.9913C85.3043 64.2783 85.3043 67.5652 85.3081 70.8559C85.3081 71.5437 85.5658 71.8021 86.2517 71.8021C89.5448 71.8059 92.8379 71.8059 96.1272 71.8021C96.8093 71.8021 97.0594 71.5399 97.0594 70.8483ZM97.0594 56.5341C97.0632 54.8963 97.0594 53.2585 97.0594 51.6246C97.0594 49.9868 97.0594 48.3491 97.0594 46.7151C97.0594 45.9247 96.8396 45.6929 96.0666 45.6929C92.8341 45.6929 89.5978 45.6929 86.3654 45.6967C85.5203 45.6967 85.3043 45.9095 85.3043 46.7455C85.3043 49.9868 85.3043 53.2319 85.3081 56.4771C85.3119 57.2294 85.5468 57.4688 86.2896 57.4688C89.5675 57.4726 92.8455 57.4726 96.1234 57.4688C96.8169 57.4688 97.0594 57.2256 97.0594 56.5341ZM80.6811 57.37C81.0601 57.218 81.2647 56.7393 81.17 56.3555C81.0525 55.8843 80.6887 55.6449 80.071 55.6449C75.2015 55.6449 70.3319 55.6449 65.4624 55.6449C61.203 55.6449 56.9398 55.6449 52.6803 55.6449C51.8997 55.6449 51.1229 55.6335 50.3422 55.6487C49.7965 55.6601 49.391 56.0933 49.4176 56.5911C49.4441 57.1192 49.8572 57.4764 50.4028 57.4688C50.994 57.4612 51.5852 57.4726 52.1763 57.4726C56.5381 57.4726 60.9036 57.4726 65.2653 57.4726C70.1652 57.4726 75.0612 57.4726 79.9611 57.4688C80.2036 57.4688 80.4613 57.4574 80.6811 57.37ZM81.1737 85.3449C81.2306 84.9877 81.1207 84.6571 80.7948 84.4899C80.5674 84.3721 80.2794 84.3113 80.0179 84.3113C75.1067 84.3037 70.1955 84.3037 65.2881 84.3037C60.5625 84.3037 55.8408 84.3037 51.1153 84.3037C50.8121 84.3037 50.509 84.2961 50.2058 84.3189C49.7056 84.3607 49.3531 84.8395 49.4441 85.3335C49.5426 85.8921 49.8837 86.1315 50.5923 86.1315C54.8821 86.1315 59.1718 86.1277 63.4577 86.1277C69.0056 86.1277 74.5535 86.1353 80.0975 86.1353C80.2415 86.1353 80.3893 86.1163 80.5257 86.0783C80.8971 85.9795 81.1131 85.7173 81.1737 85.3449ZM80.719 100.316C81.0904 100.149 81.2571 99.7123 81.1624 99.3285C81.0449 98.8573 80.6773 98.6179 80.0634 98.6179C75.137 98.6179 70.2107 98.6179 65.2843 98.6179C65.2843 98.6217 65.2843 98.6217 65.2843 98.6255C61.0514 98.6255 56.8185 98.6255 52.5856 98.6255C51.8504 98.6255 51.1115 98.6179 50.3763 98.6293C49.8117 98.6369 49.4214 99.0207 49.4176 99.5337C49.41 100.073 49.8268 100.442 50.4597 100.442C54.2265 100.442 57.9933 100.442 61.76 100.442C65.3298 100.442 68.8957 100.442 72.4654 100.442C74.9817 100.442 77.4941 100.446 80.0066 100.438C80.2453 100.438 80.5068 100.415 80.719 100.316ZM80.8933 71.5323C81.2041 71.2967 81.2723 70.9243 81.1169 70.5481C80.9274 70.0959 80.5598 69.9705 80.1013 69.9705C75.1598 69.9781 70.2182 69.9743 65.2805 69.9743C60.9301 69.9743 56.5836 69.9743 52.237 69.9743C51.6003 69.9743 50.9637 69.9667 50.3308 69.9819C49.8117 69.9933 49.4138 70.4037 49.4138 70.8901C49.4138 71.3613 49.7852 71.7489 50.2892 71.7983C50.3915 71.8059 50.4938 71.8021 50.5923 71.8021C58.899 71.8021 67.2056 71.8021 75.5122 71.8021C77.0432 71.8021 78.5741 71.8134 80.1051 71.7907C80.3742 71.7869 80.6811 71.6919 80.8933 71.5323Z" fill="#D7B4CF"/>
<path d="M108.144 91.1177C108.156 95.6396 108.152 100.161 108.144 104.68C108.141 105.892 108.19 107.104 107.853 108.297C106.962 111.497 103.987 113.868 100.66 113.891C95.893 113.925 91.122 113.902 86.3547 113.902C82.0498 113.902 77.7412 113.898 73.4363 113.898C64.7545 113.898 56.0689 113.898 47.3833 113.902C46.0418 113.902 44.7041 113.921 43.4043 113.454C40.475 112.39 38.368 109.547 38.3567 106.42C38.3264 100.059 38.3491 93.6978 38.3491 87.3368C38.3491 82.0169 38.3453 76.7009 38.3453 71.381C38.3453 62.5577 38.3453 53.7305 38.3453 44.9071C38.3453 43.4594 38.3453 42.0116 38.3453 40.56C38.3377 36.3232 41.6308 32.8842 45.8637 32.8272C50.3998 32.7702 54.9396 32.812 59.4757 32.8082C59.7485 32.8082 60.0214 32.8082 60.3548 32.8082C60.3548 32.1205 60.3548 31.5011 60.3548 30.8817C60.3548 29.9013 60.8967 29.3427 61.8782 29.3351C63.1174 29.3275 64.3604 29.3351 65.6412 29.3351C66.1604 27.078 67.3768 25.3186 69.3739 24.1369C70.7571 23.3161 72.2653 23.0083 73.8645 23.1185C77.203 23.3465 79.7307 25.5846 80.8448 29.3351C81.6936 29.3351 82.5576 29.3351 83.4216 29.3351C83.8537 29.3389 84.2895 29.3313 84.7215 29.3503C85.593 29.3883 86.1084 29.9165 86.1236 30.7829C86.1349 31.4365 86.1236 32.0863 86.1236 32.812C86.8815 32.812 87.6091 32.812 88.3405 32.812C92.4142 32.8158 96.4917 32.774 100.565 32.831C104.192 32.8804 107.08 35.2516 107.936 38.7893C108.084 39.4011 108.137 40.0471 108.137 40.6816C108.156 44.6221 108.148 48.5626 108.148 52.5069C108.148 60.1827 108.152 67.8585 108.144 75.5381C108.144 76.9935 108.099 78.4526 108.103 79.9118C108.11 83.6471 108.141 87.3824 108.144 91.1177ZM102.995 108.821C103.912 107.902 104.363 106.743 104.359 105.405C104.344 99.2495 104.351 93.0899 104.351 86.934C104.351 76.2563 104.355 65.5786 104.355 54.9047C104.355 50.3562 104.355 45.8039 104.351 41.2554C104.347 38.5917 102.365 36.6157 99.7128 36.6119C95.3511 36.6081 90.9855 36.6119 86.6238 36.6119C86.4684 36.6119 86.3168 36.6119 86.1312 36.6119C86.1312 37.2921 86.1312 37.9153 86.1312 38.5347C86.1312 39.5113 85.5779 40.0851 84.6154 40.0889C83.4444 40.0927 82.2772 40.0889 81.1063 40.0889C74.7323 40.0889 68.3621 40.0889 61.9881 40.0889C60.8664 40.0889 60.3397 39.5569 60.3511 38.4397C60.3548 37.8507 60.3511 37.2579 60.3511 36.6309C60.1957 36.6233 60.1085 36.6119 60.0214 36.6119C55.5573 36.6119 51.0933 36.6081 46.6292 36.6157C46.3412 36.6157 46.0494 36.6461 45.769 36.7069C43.5483 37.1895 42.1197 39.0097 42.1197 41.3504C42.1197 55.4746 42.1197 69.6027 42.1197 83.7307C42.1197 90.9467 42.1197 98.1627 42.1235 105.375C42.1235 108.13 44.0713 110.087 46.8149 110.094C48.5467 110.102 50.2785 110.098 52.0103 110.098C55.2731 110.098 58.5397 110.094 61.8062 110.098C65.9065 110.102 70.0105 110.113 74.1146 110.113C79.5601 110.113 85.0095 110.102 90.455 110.098C93.6913 110.094 96.9275 110.098 100.164 110.072C101.27 110.064 102.237 109.578 102.995 108.821ZM73.243 34.3586C74.9142 34.4422 76.934 32.9298 76.7635 30.5891C76.627 28.7424 75.134 27.3098 73.2089 27.3098C71.2838 27.306 69.7263 28.9019 69.7263 30.8741C69.7225 32.8006 71.3066 34.3662 73.243 34.3586Z" fill="#363263"/>
<path d="M97.0594 75.469C97.0632 78.6837 97.0632 81.8985 97.0632 85.1132C97.0632 85.8808 96.8207 86.1353 96.0552 86.1353C92.7924 86.1391 89.5296 86.1353 86.2669 86.1315C85.5734 86.1315 85.3119 85.8769 85.3081 85.1968C85.3081 82.286 85.3157 79.3753 85.3195 76.4646C85.3195 76.0314 85.3233 75.602 85.3157 75.1688C85.3119 74.7091 85.6454 74.3405 86.0812 74.3405C87.7675 74.3405 89.4538 74.3405 91.144 74.3405C91.144 74.3405 91.144 74.3405 91.144 74.3367C92.7469 74.3367 94.3499 74.3405 95.9529 74.3367C96.8586 74.3367 97.0594 74.5419 97.0594 75.469ZM95.4716 84.5508C95.4716 82.5102 95.4716 80.4925 95.4716 78.4786C95.4716 77.6312 95.4716 76.7838 95.4716 75.9326C92.6067 75.9326 89.7722 75.9326 86.8959 75.9326C86.8959 77.3994 86.8959 78.8661 86.8959 80.3291C86.8959 81.7351 86.8959 83.1372 86.8959 84.5508C89.7684 84.5508 92.6029 84.5508 95.4716 84.5508Z" fill="#363263"/>
<path d="M97.0594 89.5476C97.0594 92.8497 97.0594 96.1518 97.0632 99.4539C97.0632 100.199 96.832 100.438 96.0817 100.442C94.4522 100.446 92.8189 100.442 91.1894 100.442C91.1894 100.442 91.1894 100.442 91.1894 100.438C89.5258 100.438 87.866 100.442 86.2062 100.438C85.5847 100.438 85.3157 100.203 85.3119 99.5831C85.3043 96.2126 85.3081 92.8383 85.3157 89.464C85.3157 88.9472 85.6112 88.6736 86.138 88.6736C89.5031 88.6698 92.8682 88.6698 96.2333 88.6736C96.8017 88.6736 97.0594 88.97 97.0594 89.5476ZM95.4678 98.8573C95.4678 96.8244 95.4678 94.8143 95.4678 92.8079C95.4678 91.9605 95.4678 91.1132 95.4678 90.2658C92.5915 90.2658 89.7532 90.2658 86.8883 90.2658C86.8883 91.7363 86.8883 93.1993 86.8883 94.6623C86.8883 96.0568 86.8883 97.4552 86.8883 98.8573C89.7683 98.8573 92.6143 98.8573 95.4678 98.8573Z" fill="#363263"/>
<path d="M97.0594 65.8932C97.0594 67.5462 97.0632 69.1953 97.0594 70.8483C97.0594 71.5399 96.8093 71.8021 96.1272 71.8021C92.8379 71.8059 89.5448 71.8059 86.2517 71.8021C85.5658 71.8021 85.3081 71.5437 85.3081 70.8559C85.3043 67.5652 85.3043 64.2783 85.3081 60.9913C85.3081 60.277 85.5658 60.0148 86.2669 60.0148C89.5448 60.0148 92.8265 60.0148 96.1045 60.0148C96.8245 60.0148 97.0594 60.2542 97.0594 60.9837C97.0632 62.6215 97.0594 64.2555 97.0594 65.8932ZM95.4678 70.2099C95.4678 68.1466 95.4678 66.0984 95.4678 64.0541C95.4678 63.2371 95.4678 62.4201 95.4678 61.6031C92.5916 61.6031 89.757 61.6031 86.8921 61.6031C86.8921 63.0775 86.8921 64.5405 86.8921 66.0072C86.8921 67.4056 86.8921 68.8039 86.8921 70.2099C89.7835 70.2099 92.6181 70.2099 95.4678 70.2099Z" fill="#363263"/>
<path d="M97.0594 51.6246C97.0594 53.2586 97.0632 54.8963 97.0594 56.5341C97.0594 57.2257 96.8169 57.4689 96.1234 57.4689C92.8455 57.4727 89.5675 57.4727 86.2896 57.4689C85.5469 57.4689 85.3119 57.2295 85.3081 56.4771C85.3043 53.232 85.3043 49.9869 85.3043 46.7456C85.3043 45.9096 85.5203 45.6968 86.3654 45.6968C89.5979 45.693 92.8341 45.693 96.0666 45.693C96.8396 45.693 97.0594 45.9248 97.0594 46.7152C97.0594 48.3491 97.0594 49.9869 97.0594 51.6246ZM95.464 55.8691C95.464 53.8058 95.464 51.7652 95.464 49.7323C95.464 48.9153 95.464 48.1021 95.464 47.2889C92.5878 47.2889 89.7532 47.2889 86.8997 47.2889C86.8997 48.7595 86.8997 50.2225 86.8997 51.6778C86.8997 53.08 86.8997 54.4746 86.8997 55.8691C89.7797 55.8691 92.6295 55.8691 95.464 55.8691Z" fill="#363263"/>
<path d="M93.7133 91.4362C94.0922 91.8845 94.4712 92.3367 94.8691 92.8079C93.3495 94.3659 91.7541 95.996 90.1322 97.6566C89.234 96.6686 88.3435 95.6882 87.4113 94.6623C87.8547 94.2633 88.2905 93.8757 88.7604 93.4577C89.2265 93.9669 89.6812 94.4609 90.117 94.9359C91.3069 93.7769 92.4817 92.6331 93.7133 91.4362Z" fill="#363263"/>
<path d="M93.736 77.1486C94.0808 77.5551 94.456 77.9921 94.8728 78.4785C93.3495 80.0327 91.7541 81.6704 90.1284 83.331C89.2227 82.3316 88.3359 81.3513 87.4075 80.3291C87.866 79.9225 88.3056 79.5387 88.7604 79.1359C89.2378 79.6527 89.6926 80.1505 90.1322 80.6293C91.3259 79.4779 92.5044 78.3379 93.736 77.1486Z" fill="#363263"/>
<path d="M93.6867 62.8268C94.0998 63.222 94.5129 63.621 94.9676 64.0542C93.357 65.7071 91.7617 67.3373 90.136 69.0054C89.2151 67.9947 88.3208 67.0143 87.4075 66.0073C87.8698 65.5969 88.3018 65.2169 88.7642 64.8065C89.2341 65.3233 89.6888 65.8211 90.1284 66.3037C91.3183 65.1447 92.4893 63.9972 93.6867 62.8268Z" fill="#363263"/>
<path d="M93.6981 48.5277C94.0846 48.8963 94.5091 49.2953 94.9676 49.7323C93.3457 51.3928 91.7541 53.0192 90.1284 54.6835C89.2075 53.6652 88.3132 52.681 87.4037 51.6778C87.8698 51.2712 88.3018 50.895 88.7642 50.4885C89.2341 50.9976 89.6888 51.4954 90.1246 51.9666C91.3183 50.8229 92.4893 49.6905 93.6981 48.5277Z" fill="#363263"/>
<path d="M81.1699 56.3554C81.2647 56.7392 81.06 57.218 80.6811 57.37C80.4613 57.4574 80.2036 57.4688 79.9611 57.4688C75.0612 57.4726 70.1652 57.4726 65.2653 57.4726C60.9036 57.4726 56.5381 57.4726 52.1763 57.4726C51.5852 57.4726 50.994 57.4612 50.4028 57.4688C49.8571 57.4764 49.4441 57.1192 49.4176 56.591C49.391 56.0932 49.7965 55.66 50.3422 55.6487C51.1228 55.6335 51.8997 55.6449 52.6803 55.6449C56.9397 55.6449 61.203 55.6449 65.4624 55.6449C70.3319 55.6449 75.2014 55.6449 80.071 55.6449C80.6887 55.6449 81.0525 55.8842 81.1699 56.3554Z" fill="#363263"/>
<path d="M80.7948 84.49C81.1207 84.6572 81.2306 84.9878 81.1737 85.345C81.1131 85.7174 80.8971 85.9796 80.5257 86.0784C80.3893 86.1164 80.2415 86.1354 80.0975 86.1354C74.5534 86.1354 69.0056 86.1278 63.4577 86.1278C59.1718 86.1278 54.882 86.1316 50.5923 86.1316C49.8837 86.1316 49.5426 85.8922 49.4441 85.3336C49.3531 84.8396 49.7056 84.3608 50.2058 84.319C50.5089 84.2962 50.8121 84.3038 51.1153 84.3038C55.8408 84.3038 60.5625 84.3038 65.2881 84.3038C70.1955 84.3038 75.1067 84.3038 80.0179 84.3114C80.2794 84.3114 80.5674 84.3722 80.7948 84.49Z" fill="#363263"/>
<path d="M81.1624 99.3286C81.2571 99.7124 81.0904 100.149 80.719 100.317C80.5068 100.415 80.2453 100.438 80.0066 100.438C77.4941 100.446 74.9817 100.442 72.4654 100.442C68.8957 100.442 65.3298 100.442 61.76 100.442C57.9933 100.442 54.2265 100.442 50.4597 100.442C49.8269 100.442 49.41 100.073 49.4176 99.5338C49.4214 99.0208 49.8117 98.637 50.3763 98.6294C51.1115 98.618 51.8505 98.6256 52.5856 98.6256C56.8185 98.6256 61.0514 98.6256 65.2843 98.6256C65.2843 98.6218 65.2843 98.6218 65.2843 98.618C70.2107 98.618 75.1371 98.618 80.0634 98.618C80.6773 98.618 81.0449 98.8574 81.1624 99.3286Z" fill="#363263"/>
<path d="M81.1169 70.5482C81.2723 70.9244 81.204 71.2968 80.8933 71.5323C80.6811 71.6919 80.3741 71.7869 80.1051 71.7907C78.5741 71.8135 77.0432 71.8021 75.5122 71.8021C67.2056 71.8021 58.8989 71.8021 50.5923 71.8021C50.4938 71.8021 50.3915 71.8059 50.2892 71.7983C49.7852 71.7489 49.4138 71.3614 49.4138 70.8902C49.4138 70.4038 49.8117 69.9934 50.3309 69.982C50.9637 69.9668 51.6003 69.9744 52.237 69.9744C56.5836 69.9744 60.9301 69.9744 65.2805 69.9744C70.2182 69.9744 75.1598 69.9782 80.1013 69.9706C80.5598 69.9706 80.9274 70.096 81.1169 70.5482Z" fill="#363263"/>
</g>
<defs>
<clipPath id="clip0">
<rect width="143.244" height="141.559" fill="white"/>
</clipPath>
<clipPath id="clip1">
<rect width="70" height="91" fill="white" transform="translate(38.2461 23)"/>
</clipPath>
</defs>
</svg>
