<svg width="245" height="94" viewBox="0 0 245 94" fill="none" xmlns="http://www.w3.org/2000/svg">
<path d="M8.26384 33.9544H2C2 2.0473 33.8598 2 33.8598 2C33.8598 2 8.26384 4.70284 8.26384 33.9544Z" fill="#363263" stroke="#363263" stroke-width="3" stroke-miterlimit="10"/>
<path d="M33.8597 59.2394V65.5033C65.7668 65.5033 65.8141 33.6435 65.8141 33.6435C65.8141 33.6503 63.1113 59.2394 33.8597 59.2394Z" fill="#363263" stroke="#363263" stroke-width="3" stroke-miterlimit="10"/>
<path d="M50.0565 32.4475C50.739 33.3935 50.6308 34.5895 49.8065 35.4274C48.7591 36.495 47.4618 37.0356 46.036 37.3059C43.0088 37.887 40.0695 37.5694 37.218 36.4004C37.0355 36.3261 36.8734 36.1842 36.6909 36.1301C36.5558 36.0963 36.1639 36.4815 36.2179 36.5896C37.022 38.1843 37.4004 39.8871 37.5896 41.6439C37.6369 42.0831 37.5964 42.5359 37.5964 42.9818C37.6234 44.7184 37.441 46.428 36.6707 48.0091C36.3869 48.597 35.9814 49.1578 35.522 49.6308C34.4814 50.7052 33.1164 50.6647 32.0826 49.5768C31.015 48.4551 30.4541 47.0834 30.1906 45.5698C29.9744 44.3265 29.9676 43.0697 30.0555 41.8196C30.1771 40.0087 30.6231 38.2721 31.4542 36.6437C31.5218 36.5153 31.1096 36.0626 30.9879 36.1234C29.6298 36.8329 28.1702 37.2113 26.6701 37.4207C24.2646 37.7586 21.8996 37.5762 19.663 36.5558C18.9197 36.218 18.2711 35.7382 17.7778 35.0693C17.1088 34.1638 17.1561 33.0354 17.8994 32.1975C18.8657 31.1028 20.1293 30.5488 21.5145 30.2514C24.7173 29.5622 27.8189 29.9203 30.8325 31.1839C30.9069 31.2177 30.9812 31.265 31.0623 31.2785C31.2244 31.2988 31.5758 30.9069 31.515 30.738C31.3731 30.346 31.1501 29.9812 31.0082 29.5825C30.3933 27.8865 30.0555 26.1229 30.0825 24.3187C30.1095 22.6835 30.346 21.0753 31.042 19.5685C31.3934 18.8049 31.8596 18.1224 32.5421 17.6089C33.4475 16.9197 34.5084 16.9197 35.3868 17.6427C36.3125 18.4062 36.8869 19.4198 37.2045 20.5482C38.0829 23.7106 37.8464 26.8324 36.7653 29.9001C36.6436 30.2379 36.4477 30.5555 36.3328 30.8934C36.2788 31.042 36.6301 31.3866 36.7585 31.3326C38.3397 30.6704 39.9681 30.1636 41.6844 29.9947C44.0021 29.7717 46.2725 29.9744 48.3942 31.0285C49.0429 31.3731 49.6173 31.8394 50.0565 32.4475ZM49.4146 35.2517C50.3133 34.38 50.3335 33.2651 49.4619 32.3597C48.8537 31.7313 48.124 31.292 47.3131 31.0082C45.4549 30.3528 43.5426 30.1839 41.5966 30.4204C39.5019 30.6771 37.5356 31.3056 35.7112 32.3664C35.5422 32.461 35.3395 32.4881 35.0557 32.5759C35.2246 32.2516 35.3395 32.0353 35.4544 31.8259C36.4477 29.9271 37.0828 27.9202 37.2923 25.785C37.4275 24.4133 37.3329 23.0416 37.0693 21.6902C36.8193 20.3996 36.3531 19.1968 35.4206 18.217C34.5692 17.3183 33.5219 17.2508 32.5961 18.0819C31.9204 18.69 31.4407 19.4401 31.1569 20.2982C30.3866 22.5956 30.292 24.9336 30.7717 27.2986C31.0961 28.9068 31.6839 30.4204 32.461 31.8596C32.5556 32.0353 32.6029 32.2313 32.6705 32.4205C32.6367 32.4475 32.6029 32.4745 32.5691 32.4948C32.3731 32.3867 32.1772 32.2786 31.9745 32.1772C29.2446 30.7582 26.3526 30.0825 23.2646 30.3596C21.6902 30.5015 20.2104 30.9542 18.8657 31.7921C17.5413 32.6164 17.3116 34.2922 18.4603 35.2787C19.0684 35.799 19.8184 36.218 20.5752 36.4883C22.9402 37.3397 25.3728 37.3464 27.8121 36.8126C29.3662 36.4747 30.8258 35.8734 32.2177 35.1166C32.3191 35.0625 32.4542 35.0693 32.5691 35.049C32.5488 35.1774 32.5691 35.3193 32.515 35.4341C32.3867 35.6977 32.211 35.9342 32.0826 36.1977C30.4406 39.529 29.8865 42.9954 30.8731 46.6307C31.1839 47.7659 31.7177 48.7997 32.6705 49.543C33.5692 50.2457 34.5084 50.1444 35.299 49.3132C36.272 48.2997 36.7315 47.0631 36.9882 45.7117C37.4477 43.2656 37.2923 40.8669 36.5423 38.4951C36.2179 37.468 35.8463 36.4545 35.2382 35.549C35.1706 35.4477 35.2179 35.2585 35.2111 35.1166C35.353 35.1233 35.5084 35.0963 35.6233 35.1504C35.8125 35.2314 35.9747 35.3868 36.1571 35.4814C39.2384 37.0423 42.4818 37.5221 45.8806 36.914C47.2118 36.6775 48.428 36.2112 49.4146 35.2517Z" fill="#363263"/>
<path d="M49.4618 32.3597C50.3335 33.2651 50.32 34.3733 49.4145 35.2517C48.428 36.2112 47.2049 36.6842 45.8805 36.9207C42.4817 37.5288 39.2383 37.0423 36.1571 35.4882C35.9679 35.3936 35.8124 35.2382 35.6232 35.1571C35.5016 35.103 35.3462 35.1301 35.2111 35.1233C35.2178 35.272 35.1705 35.4544 35.2381 35.5558C35.8462 36.4612 36.2111 37.4748 36.5422 38.5019C37.2923 40.8669 37.4477 43.2724 36.9882 45.7185C36.7382 47.0699 36.2719 48.3064 35.2989 49.32C34.5083 50.1444 33.5691 50.2457 32.6704 49.5497C31.7176 48.8065 31.1838 47.7726 30.873 46.6374C29.8865 43.0021 30.4405 39.5357 32.0825 36.2044C32.2109 35.9409 32.3866 35.7044 32.515 35.4409C32.569 35.3328 32.5555 35.1841 32.569 35.0557C32.4542 35.076 32.319 35.0693 32.2177 35.1233C30.8189 35.8801 29.3662 36.4815 27.812 36.8193C25.3727 37.3532 22.9402 37.3464 20.5752 36.495C19.8184 36.2247 19.0683 35.8058 18.4602 35.2855C17.3115 34.2989 17.5412 32.6232 18.8656 31.7988C20.2103 30.9609 21.6901 30.5082 23.2645 30.3663C26.3525 30.0893 29.2445 30.7582 31.9744 32.184C32.1704 32.2853 32.3731 32.3934 32.569 32.5016C32.6028 32.4745 32.6366 32.4475 32.6704 32.4272C32.6028 32.238 32.5555 32.0421 32.4609 31.8664C31.6839 30.4271 31.1027 28.9135 30.7716 27.3053C30.2919 24.9404 30.3865 22.6024 31.1568 20.305C31.4474 19.4468 31.9204 18.6968 32.5961 18.0886C33.5218 17.2575 34.5691 17.3251 35.4205 18.2238C36.3463 19.2103 36.8125 20.4063 37.0693 21.6969C37.3328 23.0484 37.4274 24.4201 37.2923 25.7917C37.0828 27.927 36.4476 29.9339 35.4543 31.8326C35.3394 32.0488 35.2313 32.2583 35.0556 32.5826C35.3394 32.4948 35.5489 32.4678 35.7111 32.3732C37.5355 31.3055 39.5018 30.6771 41.5965 30.4271C43.5426 30.1906 45.4548 30.3596 47.313 31.015C48.1239 31.292 48.8604 31.7312 49.4618 32.3597Z" fill="#363263"/>
<path d="M13.1898 33.7517C13.1898 45.1712 22.4335 54.4284 33.8462 54.4622V33.7517H13.1898Z" stroke="#363263" stroke-width="2" stroke-miterlimit="10"/>
<path d="M33.8935 13.0411C33.8733 13.0411 33.8597 13.0411 33.8395 13.0411V33.7517H54.6041C54.6041 22.3119 45.3333 13.0411 33.8935 13.0411Z" stroke="#363263" stroke-width="2" stroke-miterlimit="10"/>
<path d="M75.8828 53.9297H84.5156L82.2109 46.5078C81.6901 44.7891 81.0651 42.6797 80.3359 40.1797H80.1016C79.8932 40.9349 79.5677 42.0286 79.125 43.4609C78.7083 44.8932 78.4089 45.9089 78.2266 46.5078L75.8828 53.9297ZM65.8438 66L77.0938 34.5547H83.3438L94.5938 66H88.4219L86.0391 58.5781H74.3984L72.0156 66H65.8438ZM91.4688 34.5547H98.1484L102.758 43.6953C103.799 45.8568 104.594 47.4974 105.141 48.6172H105.297C106.391 46.4297 107.198 44.7891 107.719 43.6953L112.367 34.5547H119.008L108.148 53.2656V66H102.328V53.2656L91.4688 34.5547ZM122.133 66V34.5547H134.164C137.628 34.5547 140.193 35.2969 141.859 36.7812C143.552 38.2656 144.398 40.3099 144.398 42.9141C144.398 44.3984 144.06 45.6875 143.383 46.7812C142.706 47.875 141.82 48.7214 140.727 49.3203C141.977 49.8151 143.083 50.7005 144.047 51.9766C145.01 53.2526 145.492 54.8411 145.492 56.7422C145.492 59.4245 144.633 61.638 142.914 63.3828C141.195 65.1276 138.799 66 135.727 66H122.133ZM127.953 61.0391H134.789C136.065 61.0391 137.159 60.6745 138.07 59.9453C139.008 59.1901 139.477 58.1224 139.477 56.7422C139.477 55.4401 139.06 54.3724 138.227 53.5391C137.393 52.7057 136.208 52.2891 134.672 52.2891H127.953V61.0391ZM127.953 47.3672H133.695C135.102 47.3672 136.234 47.0417 137.094 46.3906C137.953 45.7396 138.383 44.737 138.383 43.3828C138.383 40.8307 136.859 39.5547 133.812 39.5547H127.953V47.3672Z" fill="#363263"/>
</svg>
