<svg width="374" height="142" viewBox="0 0 374 142" fill="none" xmlns="http://www.w3.org/2000/svg">
<path d="M11.5888 51.0809H2C2 2.23696 50.7716 2.16455 50.7716 2.16455C50.7716 2.16455 11.5888 6.30212 11.5888 51.0809Z" fill="#363263" stroke="#363263" stroke-width="3" stroke-miterlimit="10"/>
<path d="M50.7715 89.788V99.3768C99.6155 99.3768 99.6879 50.6052 99.6879 50.6052C99.6879 50.6156 95.5503 89.788 50.7715 89.788Z" fill="#363263" stroke="#363263" stroke-width="3" stroke-miterlimit="10"/>
<path d="M75.566 48.7744C76.6108 50.2225 76.4453 52.0534 75.1833 53.336C73.58 54.9704 71.594 55.7979 69.4114 56.2117C64.7773 57.1012 60.2777 56.6151 55.9126 54.8256C55.6333 54.7118 55.385 54.4946 55.1058 54.4118C54.8989 54.3601 54.2989 54.9497 54.3817 55.1152C55.6126 57.5564 56.1919 60.163 56.4815 62.8524C56.5539 63.5248 56.4918 64.2178 56.4918 64.9005C56.5332 67.5589 56.2539 70.1759 55.0747 72.5964C54.6403 73.4963 54.0196 74.3549 53.3163 75.079C51.7233 76.7236 49.6338 76.6616 48.0512 74.9962C46.4169 73.2791 45.5583 71.1793 45.1549 68.8623C44.8239 66.959 44.8136 65.035 44.948 63.1214C45.1342 60.3492 45.8169 57.6908 47.0892 55.1979C47.1927 55.0014 46.5617 54.3084 46.3755 54.4015C44.2964 55.4876 42.0621 56.0668 39.7657 56.3875C36.0833 56.9047 32.4629 56.6254 29.0391 55.0635C27.9012 54.5463 26.9082 53.8119 26.1531 52.7878C25.1291 51.4017 25.2015 49.6743 26.3393 48.3916C27.8185 46.7159 29.7528 45.8677 31.8733 45.4126C36.7763 44.3575 41.5242 44.9057 46.1376 46.8401C46.2514 46.8918 46.3651 46.9642 46.4893 46.9849C46.7375 47.0159 47.2754 46.416 47.1823 46.1574C46.9651 45.5574 46.6237 44.9988 46.4065 44.3886C45.4652 41.7922 44.948 39.0925 44.9894 36.3306C45.0308 33.8274 45.3928 31.3656 46.4582 29.0589C46.9961 27.89 47.7099 26.8453 48.7546 26.0591C50.1407 25.0041 51.7647 25.0041 53.1094 26.1108C54.5265 27.2797 55.4057 28.8313 55.8919 30.5587C57.2366 35.3997 56.8746 40.1786 55.2195 44.8747C55.0333 45.3919 54.7334 45.8781 54.5575 46.3953C54.4748 46.6228 55.0127 47.1504 55.2092 47.0676C57.6297 46.0539 60.1226 45.2781 62.7499 45.0195C66.2979 44.6782 69.7734 44.9885 73.0214 46.6022C74.0144 47.1297 74.8937 47.8434 75.566 48.7744ZM74.5833 53.0671C75.9591 51.7327 75.9901 50.026 74.6558 48.6399C73.7248 47.6779 72.6077 47.0056 71.3664 46.5711C68.5218 45.5678 65.5945 45.3092 62.6154 45.6712C59.4088 46.0643 56.3987 47.0263 53.6059 48.6502C53.3473 48.7951 53.037 48.8364 52.6025 48.9709C52.8611 48.4744 53.037 48.1434 53.2128 47.8227C54.7334 44.9161 55.7057 41.844 56.0264 38.5753C56.2332 36.4755 56.0884 34.3756 55.685 32.3069C55.3023 30.3312 54.5886 28.49 53.1611 26.9901C51.8578 25.6143 50.2545 25.5109 48.8373 26.7832C47.8029 27.7142 47.0685 28.8623 46.6341 30.176C45.4549 33.6929 45.3101 37.2719 46.0445 40.8923C46.541 43.3542 47.4409 45.6712 48.6305 47.8745C48.7753 48.1434 48.8477 48.4434 48.9511 48.733C48.8994 48.7744 48.8477 48.8158 48.796 48.8468C48.496 48.6813 48.196 48.5158 47.8857 48.3606C43.7068 46.1884 39.2796 45.154 34.5524 45.5781C32.1423 45.7953 29.8769 46.4884 27.8185 47.771C25.7911 49.033 25.4394 51.5983 27.1979 53.1085C28.1288 53.905 29.277 54.5463 30.4355 54.96C34.0559 56.2634 37.7797 56.2737 41.5138 55.4565C43.8929 54.9394 46.1272 54.0187 48.2581 52.8602C48.4132 52.7775 48.6201 52.7878 48.796 52.7568C48.7649 52.9533 48.796 53.1705 48.7132 53.3464C48.5167 53.7498 48.2477 54.1118 48.0512 54.5152C45.5376 59.6148 44.6894 64.9212 46.1996 70.4863C46.6755 72.224 47.4926 73.8067 48.9511 74.9445C50.3269 76.0203 51.7647 75.8651 52.9749 74.5928C54.4644 73.0412 55.1678 71.1483 55.5609 69.0795C56.2643 65.335 56.0264 61.6629 54.8782 58.0322C54.3817 56.4599 53.8128 54.9083 52.8818 53.5222C52.7784 53.3671 52.8508 53.0774 52.8404 52.8602C53.0577 52.8706 53.2956 52.8292 53.4714 52.9119C53.761 53.0361 54.0093 53.274 54.2886 53.4188C59.0054 55.8082 63.9705 56.5427 69.1735 55.6117C71.2112 55.2497 73.0731 54.5359 74.5833 53.0671Z" fill="#363263"/>
<path d="M74.6558 48.64C75.9901 50.0261 75.9694 51.7225 74.5834 53.0672C73.0731 54.536 71.2009 55.2601 69.1735 55.6221C63.9705 56.5531 59.0054 55.8083 54.2886 53.4292C53.999 53.2844 53.7611 53.0465 53.4714 52.9224C53.2852 52.8396 53.0473 52.881 52.8404 52.8706C52.8508 53.0982 52.7784 53.3775 52.8818 53.5326C53.8128 54.9187 54.3713 56.4703 54.8782 58.0426C56.0264 61.663 56.2643 65.3454 55.5609 69.0899C55.1782 71.1587 54.4644 73.0516 52.9749 74.6032C51.7647 75.8652 50.3269 76.0203 48.9511 74.9549C47.4926 73.8171 46.6755 72.2344 46.1996 70.4967C44.6894 64.9316 45.5376 59.6252 48.0512 54.5257C48.2477 54.1222 48.5167 53.7602 48.7132 53.3568C48.796 53.1913 48.7753 52.9637 48.796 52.7672C48.6201 52.7982 48.4132 52.7879 48.2581 52.8706C46.1169 54.0292 43.893 54.9498 41.5139 55.467C37.7797 56.2841 34.0559 56.2738 30.4355 54.9704C29.277 54.5567 28.1288 53.9154 27.1979 53.1189C25.4394 51.6087 25.7911 49.0434 27.8185 47.7814C29.8769 46.4988 32.1423 45.8057 34.5524 45.5885C39.2796 45.1644 43.7068 46.1885 47.8857 48.371C48.1857 48.5262 48.496 48.6917 48.796 48.8572C48.8477 48.8158 48.8994 48.7744 48.9511 48.7434C48.8477 48.4538 48.7753 48.1538 48.6305 47.8849C47.4409 45.6816 46.5513 43.3646 46.0445 40.9027C45.3101 37.2824 45.4549 33.7034 46.6341 30.1864C47.0789 28.8727 47.803 27.7246 48.8373 26.7936C50.2545 25.5213 51.8578 25.6248 53.1611 27.0005C54.5782 28.5107 55.292 30.3416 55.685 32.3173C56.0884 34.3861 56.2332 36.4859 56.0264 38.5857C55.7057 41.8544 54.7334 44.9265 53.2128 47.8331C53.037 48.1642 52.8715 48.4848 52.6025 48.9813C53.037 48.8468 53.3576 48.8055 53.6059 48.6607C56.3988 47.0263 59.4088 46.0643 62.6154 45.6816C65.5945 45.3196 68.5218 45.5782 71.3664 46.5815C72.6077 47.0056 73.7352 47.678 74.6558 48.64Z" fill="#363263"/>
<path d="M19.1296 50.7708C19.1296 68.252 33.2801 82.4231 50.751 82.4749V50.7708H19.1296Z" stroke="#363263" stroke-width="2" stroke-miterlimit="10"/>
<path d="M50.8235 19.0667C50.7924 19.0667 50.7718 19.0667 50.7407 19.0667V50.7708H82.5276C82.5276 33.2585 68.3357 19.0667 50.8235 19.0667Z" stroke="#363263" stroke-width="2" stroke-miterlimit="10"/>
<path d="M115.812 82.6875H129.625L125.938 70.8125C125.104 68.0625 124.104 64.6875 122.938 60.6875H122.562C122.229 61.8958 121.708 63.6458 121 65.9375C120.333 68.2292 119.854 69.8542 119.562 70.8125L115.812 82.6875ZM99.75 102L117.75 51.6875H127.75L145.75 102H135.875L132.062 90.125H113.438L109.625 102H99.75ZM140.75 51.6875H151.438L158.812 66.3125C160.479 69.7708 161.75 72.3958 162.625 74.1875H162.875C164.625 70.6875 165.917 68.0625 166.75 66.3125L174.188 51.6875H184.812L167.438 81.625V102H158.125V81.625L140.75 51.6875ZM189.812 102V51.6875H209.062C214.604 51.6875 218.708 52.875 221.375 55.25C224.083 57.625 225.438 60.8958 225.438 65.0625C225.438 67.4375 224.896 69.5 223.812 71.25C222.729 73 221.312 74.3542 219.562 75.3125C221.562 76.1042 223.333 77.5208 224.875 79.5625C226.417 81.6042 227.188 84.1458 227.188 87.1875C227.188 91.4792 225.812 95.0208 223.062 97.8125C220.312 100.604 216.479 102 211.562 102H189.812ZM199.125 94.0625H210.062C212.104 94.0625 213.854 93.4792 215.312 92.3125C216.812 91.1042 217.562 89.3958 217.562 87.1875C217.562 85.1042 216.896 83.3958 215.562 82.0625C214.229 80.7292 212.333 80.0625 209.875 80.0625H199.125V94.0625ZM199.125 72.1875H208.312C210.562 72.1875 212.375 71.6667 213.75 70.625C215.125 69.5833 215.812 67.9792 215.812 65.8125C215.812 61.7292 213.375 59.6875 208.5 59.6875H199.125V72.1875Z" fill="#363263"/>
</svg>
