<svg width="171" height="65" viewBox="0 0 171 65" fill="none" xmlns="http://www.w3.org/2000/svg">
<path d="M6.34055 24.1429H2C2 2.03278 24.0774 2 24.0774 2C24.0774 2 6.34055 3.87295 6.34055 24.1429Z" fill="#363263" stroke="#363263" stroke-width="3" stroke-miterlimit="10"/>
<path d="M24.0774 41.6645V46.0051C46.1875 46.0051 46.2203 23.9277 46.2203 23.9277C46.2203 23.9324 44.3473 41.6645 24.0774 41.6645Z" fill="#363263" stroke="#363263" stroke-width="3" stroke-miterlimit="10"/>
<path d="M35.301 23.0987C35.7739 23.7543 35.699 24.5831 35.1277 25.1637C34.402 25.9035 33.503 26.2781 32.515 26.4654C30.4173 26.868 28.3805 26.648 26.4045 25.8379C26.2781 25.7864 26.1657 25.6881 26.0393 25.6506C25.9456 25.6272 25.674 25.8941 25.7115 25.969C26.2687 27.0741 26.5309 28.254 26.662 29.4714C26.6948 29.7758 26.6667 30.0895 26.6667 30.3986C26.6854 31.6019 26.559 32.7866 26.0252 33.8822C25.8286 34.2896 25.5476 34.6782 25.2292 35.006C24.5081 35.7505 23.5623 35.7224 22.8459 34.9685C22.1061 34.1913 21.7174 33.2407 21.5348 32.1919C21.385 31.3303 21.3803 30.4594 21.4412 29.5932C21.5255 28.3383 21.8345 27.1349 22.4104 26.0065C22.4573 25.9175 22.1716 25.6038 22.0874 25.6459C21.1462 26.1376 20.1348 26.3998 19.0953 26.545C17.4284 26.7791 15.7896 26.6527 14.2397 25.9456C13.7246 25.7115 13.2751 25.3791 12.9333 24.9155C12.4698 24.2881 12.5026 23.5061 13.0176 22.9255C13.6872 22.167 14.5628 21.783 15.5227 21.577C17.7421 21.0994 19.8913 21.3475 21.9797 22.2231C22.0312 22.2466 22.0827 22.2793 22.1389 22.2887C22.2512 22.3027 22.4947 22.0312 22.4526 21.9141C22.3543 21.6425 22.1997 21.3897 22.1014 21.1134C21.6753 19.9381 21.4412 18.716 21.4599 17.4659C21.4786 16.3327 21.6425 15.2183 22.1248 14.1742C22.3683 13.645 22.6914 13.1721 23.1643 12.8163C23.7917 12.3387 24.5269 12.3387 25.1356 12.8397C25.7771 13.3688 26.1751 14.0711 26.3951 14.8531C27.0038 17.0444 26.84 19.2077 26.0908 21.3335C26.0065 21.5676 25.8707 21.7877 25.7911 22.0218C25.7536 22.1248 25.9971 22.3636 26.0861 22.3262C27.1818 21.8673 28.3102 21.5161 29.4995 21.399C31.1056 21.2445 32.6789 21.385 34.1491 22.1154C34.5986 22.3542 34.9966 22.6773 35.301 23.0987ZM34.8562 25.0419C35.4789 24.4379 35.493 23.6653 34.8889 23.0379C34.4675 22.6024 33.9618 22.2981 33.4 22.1014C32.1123 21.6472 30.7872 21.5301 29.4387 21.694C27.9871 21.872 26.6246 22.3074 25.3603 23.0426C25.2433 23.1081 25.1028 23.1268 24.9061 23.1877C25.0232 22.963 25.1028 22.8131 25.1824 22.668C25.8707 21.3522 26.3109 19.9616 26.456 18.4819C26.5497 17.5314 26.4841 16.5809 26.3015 15.6444C26.1282 14.7501 25.8052 13.9166 25.159 13.2377C24.569 12.6149 23.8432 12.5681 23.2018 13.144C22.7335 13.5654 22.4011 14.0852 22.2044 14.6798C21.6706 16.2719 21.6051 17.8919 21.9375 19.5308C22.1623 20.6452 22.5696 21.694 23.1081 22.6914C23.1737 22.8131 23.2064 22.9489 23.2533 23.08C23.2299 23.0987 23.2064 23.1175 23.183 23.1315C23.0472 23.0566 22.9115 22.9817 22.771 22.9114C20.8793 21.9282 18.8753 21.4599 16.7354 21.6519C15.6444 21.7502 14.619 22.0639 13.6872 22.6446C12.7694 23.2158 12.6102 24.377 13.4062 25.0607C13.8277 25.4212 14.3474 25.7115 14.8718 25.8988C16.5107 26.4888 18.1963 26.4935 19.8866 26.1236C20.9636 25.8894 21.975 25.4727 22.9395 24.9483C23.0098 24.9108 23.1034 24.9155 23.183 24.9015C23.169 24.9904 23.183 25.0887 23.1456 25.1683C23.0566 25.351 22.9349 25.5148 22.8459 25.6975C21.7081 28.0059 21.3241 30.4079 22.0078 32.927C22.2231 33.7137 22.5931 34.4301 23.2533 34.9451C23.876 35.4321 24.5269 35.3619 25.0747 34.7859C25.749 34.0836 26.0674 33.2267 26.2453 32.2902C26.5637 30.5952 26.456 28.933 25.9363 27.2895C25.7115 26.5777 25.454 25.8754 25.0326 25.2479C24.9857 25.1777 25.0185 25.0466 25.0138 24.9483C25.1122 24.953 25.2199 24.9342 25.2995 24.9717C25.4306 25.0279 25.5429 25.1356 25.6694 25.2011C27.8045 26.2828 30.0521 26.6152 32.4073 26.1938C33.3297 26.0299 34.1725 25.7068 34.8562 25.0419Z" fill="#363263"/>
<path d="M34.8889 23.038C35.493 23.6654 35.4836 24.4334 34.8562 25.0421C34.1725 25.707 33.325 26.0347 32.4073 26.1986C30.0521 26.62 27.8045 26.2829 25.6694 25.2059C25.5382 25.1404 25.4306 25.0327 25.2994 24.9765C25.2152 24.9391 25.1075 24.9578 25.0138 24.9531C25.0185 25.0561 24.9857 25.1825 25.0326 25.2528C25.454 25.8802 25.7068 26.5826 25.9363 27.2943C26.456 28.9331 26.5637 30.6 26.2453 32.295C26.072 33.2315 25.749 34.0884 25.0747 34.7908C24.5269 35.362 23.876 35.4322 23.2533 34.95C22.593 34.4349 22.2231 33.7185 22.0077 32.9319C21.3241 30.4127 21.7081 28.0107 22.8459 25.7023C22.9349 25.5197 23.0566 25.3558 23.1456 25.1732C23.183 25.0983 23.1737 24.9952 23.183 24.9063C23.1034 24.9203 23.0098 24.9156 22.9395 24.9531C21.9703 25.4775 20.9636 25.8943 19.8866 26.1284C18.1963 26.4983 16.5106 26.4936 14.8718 25.9036C14.3474 25.7163 13.8277 25.426 13.4062 25.0655C12.6102 24.3819 12.7694 23.2206 13.6872 22.6494C14.619 22.0688 15.6444 21.755 16.7354 21.6567C18.8752 21.4647 20.8793 21.9283 22.771 22.9163C22.9068 22.9865 23.0472 23.0614 23.183 23.1363C23.2064 23.1176 23.2298 23.0989 23.2533 23.0848C23.2064 22.9537 23.1737 22.8179 23.1081 22.6962C22.5696 21.6989 22.1669 20.65 21.9375 19.5356C21.6051 17.8968 21.6706 16.2767 22.2044 14.6847C22.4057 14.09 22.7335 13.5703 23.2017 13.1489C23.8432 12.5729 24.569 12.6197 25.159 13.2425C25.8005 13.9261 26.1235 14.7549 26.3015 15.6492C26.4841 16.5857 26.5496 17.5362 26.456 18.4868C26.3108 19.9664 25.8707 21.357 25.1824 22.6728C25.1028 22.8226 25.0279 22.9678 24.9061 23.1925C25.1028 23.1317 25.2479 23.1129 25.3603 23.0474C26.6246 22.3076 27.9871 21.8721 29.4387 21.6989C30.7872 21.535 32.1123 21.652 33.3999 22.1062C33.9618 22.2982 34.4722 22.6026 34.8889 23.038Z" fill="#363263"/>
<path d="M9.754 24.0024C9.754 31.9156 16.1595 38.3305 24.068 38.3539V24.0024H9.754Z" stroke="#363263" stroke-width="2" stroke-miterlimit="10"/>
<path d="M24.1008 9.65088C24.0867 9.65088 24.0774 9.65088 24.0633 9.65088V24.0023H38.4522C38.4522 16.0751 32.028 9.65088 24.1008 9.65088Z" stroke="#363263" stroke-width="2" stroke-miterlimit="10"/>
<path d="M54.4072 38.9473H60.8818L59.1533 33.3809C58.7627 32.0918 58.2939 30.5098 57.7471 28.6348H57.5713C57.415 29.2012 57.1709 30.0215 56.8389 31.0957C56.5264 32.1699 56.3018 32.9316 56.165 33.3809L54.4072 38.9473ZM46.8779 48L55.3154 24.416H60.0029L68.4404 48H63.8115L62.0244 42.4336H53.2939L51.5068 48H46.8779ZM66.0967 24.416H71.1064L74.5635 31.2715C75.3447 32.8926 75.9404 34.123 76.3506 34.9629H76.4678C77.2881 33.3223 77.8936 32.0918 78.2842 31.2715L81.7705 24.416H86.751L78.6064 38.4492V48H74.2412V38.4492L66.0967 24.416ZM89.0947 48V24.416H98.1182C100.716 24.416 102.64 24.9727 103.89 26.0859C105.159 27.1992 105.794 28.7324 105.794 30.6855C105.794 31.7988 105.54 32.7656 105.032 33.5859C104.524 34.4062 103.86 35.041 103.04 35.4902C103.978 35.8613 104.808 36.5254 105.53 37.4824C106.253 38.4395 106.614 39.6309 106.614 41.0566C106.614 43.0684 105.97 44.7285 104.681 46.0371C103.392 47.3457 101.595 48 99.29 48H89.0947ZM93.46 44.2793H98.5869C99.5439 44.2793 100.364 44.0059 101.048 43.459C101.751 42.8926 102.103 42.0918 102.103 41.0566C102.103 40.0801 101.79 39.2793 101.165 38.6543C100.54 38.0293 99.6514 37.7168 98.499 37.7168H93.46V44.2793ZM93.46 34.0254H97.7666C98.8213 34.0254 99.6709 33.7812 100.315 33.293C100.96 32.8047 101.282 32.0527 101.282 31.0371C101.282 29.123 100.14 28.166 97.8545 28.166H93.46V34.0254Z" fill="#363263"/>
</svg>
