<svg width="144" height="142" viewBox="0 0 144 142" fill="none" xmlns="http://www.w3.org/2000/svg">
<g clip-path="url(#clip0)">
<path d="M71.622 141.559C111.178 141.559 143.244 109.87 143.244 70.7794C143.244 31.689 111.178 0 71.622 0C32.0663 0 0 31.689 0 70.7794C0 109.87 32.0663 141.559 71.622 141.559Z" fill="#363263"/>
</g>
<g clip-path="url(#clip1)">
<path d="M71.6125 109.909C73.0955 109.928 74.029 110.853 74.0274 112.303C74.0259 113.521 73.0479 114.353 71.6278 114.346C70.2138 114.337 69.3525 113.455 69.3541 112.019C69.3556 110.638 70.157 109.89 71.6125 109.909Z" fill="#363263"/>
<path d="M76.7833 30.2963C76.7848 30.338 76.7879 30.3813 76.7894 30.423C74.7368 30.423 72.6841 30.423 70.6329 30.423C70.636 30.3813 70.6391 30.338 70.6437 30.2963C72.6902 30.2963 74.7368 30.2963 76.7833 30.2963Z" fill="#363263"/>
<path d="M94.0198 53.0192C94.0582 59.1574 94.0275 65.2956 94.0275 71.4337C93.9676 71.4337 93.9062 71.4337 93.8464 71.4337C93.8464 83.461 93.854 95.4898 93.8387 107.517C93.8356 109.405 93.7512 111.293 93.6376 113.177C93.6053 113.733 93.3781 114.288 93.1816 114.821C92.8469 115.731 92.1483 116.253 91.2011 116.532C89.3096 117.091 87.369 117.084 85.4223 117.079C77.1333 117.057 68.8443 117.045 60.5554 117.035C59.0462 117.033 57.5355 117.108 56.0294 117.057C54.9869 117.023 53.9352 116.903 52.9158 116.695C50.8079 116.264 49.9711 115.417 49.7623 113.314C49.5796 111.463 49.5489 109.593 49.5428 107.732C49.5182 100.126 49.5566 92.5206 49.5213 84.915C49.4875 77.2125 49.3325 69.5114 49.3447 61.8104C49.3601 52.4659 49.4752 43.1215 49.5996 33.7785C49.6211 32.1023 49.8161 30.4156 50.0894 28.7588C50.2782 27.612 51.1333 26.847 52.3339 26.6889C54.3789 26.4175 56.4377 26.0894 58.4935 26.073C67.2922 26.0074 76.0939 26.0148 84.8941 26.0685C86.7994 26.0804 88.7262 26.2669 90.6023 26.592C92.612 26.9409 93.395 27.9326 93.6222 29.9131C93.7128 30.7035 93.7773 31.4998 93.7865 32.2932C93.8755 39.2024 93.9769 46.11 94.0198 53.0192ZM92.1929 90.4134C92.2297 84.5273 92.1867 78.6397 92.1622 72.7535C92.1161 61.6956 92.0578 50.6376 91.9994 39.5796C91.9948 38.5357 91.9948 37.4889 91.915 36.4494C91.7952 34.8746 90.9385 34.1319 89.3204 34.1319C87.6822 34.1319 86.0456 34.1513 84.409 34.1588C74.2823 34.208 64.1541 34.2557 54.0258 34.302C52.2188 34.3094 51.4558 35.0133 51.402 36.7715C51.3207 39.3798 51.2163 41.9881 51.1948 44.5964C51.1456 50.1619 51.1395 55.7289 51.1257 61.2944C51.1165 64.4992 51.1241 67.704 51.1241 70.9103C51.1426 70.9103 51.1625 70.9103 51.1825 70.9103C51.1917 71.0341 51.2101 71.1578 51.2116 71.2816C51.2439 78.5129 51.2715 85.7442 51.3053 92.9755C51.3253 97.0005 51.3191 101.027 51.399 105.052C51.4358 106.947 52.2188 107.577 54.2039 107.581C60.1639 107.598 66.1238 107.608 72.0838 107.635C77.8626 107.66 83.6429 107.707 89.4232 107.736C90.8265 107.742 91.6217 107.092 91.8643 105.762C91.9211 105.446 91.9334 105.119 91.9395 104.798C92.0317 100.004 92.1637 95.2094 92.1929 90.4134ZM76.7556 31.4073C77.4404 31.388 78.0007 30.8078 77.9839 30.2173C77.967 29.5895 77.5985 29.3001 76.7787 29.2972C74.967 29.2927 73.1539 29.2584 71.3453 29.321C70.8525 29.3374 70.2875 29.5552 69.9129 29.8609C69.6519 30.0741 69.5014 30.6408 69.5966 30.9674C69.6657 31.2045 70.2107 31.4282 70.5592 31.4506C71.5495 31.5147 72.5474 31.473 73.5423 31.473C73.5423 31.4536 73.5423 31.4342 73.5423 31.4148C74.6139 31.4148 75.6855 31.4357 76.7556 31.4073ZM71.6339 115.761C73.9108 115.736 75.5504 114.283 75.5351 112.306C75.5197 110.187 73.8785 108.47 71.8642 108.467C69.7302 108.464 67.9999 110.206 68.0383 112.319C68.0721 114.197 69.7287 115.782 71.6339 115.761ZM66.3756 31.379C67.0864 31.3895 67.8802 30.611 67.8679 29.6715C67.6959 29.5537 67.4073 29.2047 67.0834 29.1704C66.4171 29.1003 65.5158 30.0264 65.5158 30.6528C65.5158 31.209 65.8981 31.3716 66.3756 31.379Z" fill="#D7B4CF"/>
<path d="M89.9928 73.0995C90.0159 80.1295 90.0205 87.158 90.0082 94.1879C90.0036 97.5687 89.9406 100.948 89.9007 104.329C89.89 105.209 89.7748 105.328 88.8844 105.331C81.4644 105.355 74.0459 105.368 66.6259 105.398C62.6096 105.414 58.5917 105.458 54.5755 105.486C53.5176 105.493 53.4393 105.414 53.4378 104.393C53.4225 95.196 53.4071 85.9977 53.3918 76.8009C53.3887 74.8399 53.3918 72.8788 53.3918 70.9177C53.3657 70.9177 53.3396 70.9177 53.3135 70.9177C53.3135 61.5211 53.3073 52.1259 53.3181 42.7293C53.3211 40.9397 53.4179 39.1502 53.4102 37.3606C53.4071 36.603 53.7049 36.3793 54.4588 36.3793C58.8589 36.3853 63.259 36.3555 67.6591 36.3331C74.617 36.2973 81.5764 36.26 88.5359 36.2242C89.8132 36.2183 89.8316 36.2317 89.8347 37.4546C89.8485 43.296 89.8485 49.1374 89.8762 54.9803C89.9023 61.02 89.9714 67.0598 89.9928 73.0995Z" fill="#D7B4CF"/>
<path d="M96.0846 44.356C96.1291 53.2277 96.0984 62.0994 96.0984 70.9726C96.0554 70.9726 96.0124 70.9726 95.971 70.9726C95.971 83.3027 95.9802 95.6327 95.9572 107.963C95.9541 109.324 95.8405 110.696 95.647 112.046C95.1158 115.774 92.6348 118.19 88.8104 118.769C88.0797 118.879 87.3335 118.949 86.595 118.951C76.6679 118.963 66.7393 118.97 56.8106 118.949C54.718 118.945 52.6807 118.646 50.9136 117.395C49.1388 116.14 48.1056 114.436 47.7847 112.365C47.5605 110.921 47.4316 109.45 47.4239 107.988C47.364 96.8019 47.3533 85.6157 47.3088 74.4295C47.2811 67.222 47.1506 60.0146 47.1936 52.8087C47.2351 45.9487 47.4024 39.0887 47.5989 32.2303C47.6788 29.4222 48.8271 27.0614 51.3742 25.5209C52.9187 24.5874 54.675 24.2757 56.4437 24.2429C62.7352 24.131 69.0284 24.058 75.323 24.0386C79.0061 24.0267 82.6893 24.1251 86.3724 24.2086C88.3038 24.2518 90.2244 24.489 91.9148 25.4702C94.4864 26.96 95.6532 29.3148 95.7745 32.1304C95.9495 36.2016 96.0646 40.2803 96.0846 44.356ZM94.0273 71.4334C94.0273 65.2953 94.058 59.1571 94.0196 53.0189C93.9767 46.1098 93.8753 39.2021 93.7863 32.2929C93.7771 31.4995 93.7126 30.7032 93.622 29.9128C93.3948 27.9324 92.6118 26.9406 90.6021 26.5917C88.726 26.2666 86.7992 26.0802 84.8939 26.0682C76.0937 26.0146 67.292 26.0071 58.4933 26.0727C56.4375 26.0891 54.3787 26.4172 52.3337 26.6886C51.1331 26.8467 50.278 27.6117 50.0891 28.7585C49.8159 30.4154 49.6209 32.102 49.5994 33.7782C49.475 43.1212 49.3599 52.4657 49.3445 61.8101C49.3323 69.5112 49.4873 77.2122 49.5211 84.9148C49.5564 92.5204 49.518 100.126 49.5426 107.732C49.5487 109.593 49.5794 111.463 49.7621 113.313C49.9709 115.416 50.8077 116.263 52.9156 116.694C53.935 116.903 54.9867 117.022 56.0291 117.057C57.5353 117.107 59.046 117.033 60.5552 117.034C68.8441 117.045 77.1331 117.057 85.4221 117.079C87.3688 117.083 89.3094 117.091 91.2009 116.532C92.1481 116.253 92.8467 115.731 93.1814 114.821C93.3779 114.287 93.6051 113.733 93.6374 113.176C93.751 111.293 93.8354 109.405 93.8385 107.517C93.8538 95.4895 93.8462 83.4607 93.8462 71.4334C93.906 71.4334 93.9675 71.4334 94.0273 71.4334Z" fill="#D7B4CF"/>
<path d="M92.1622 72.7535C92.1867 78.6397 92.2297 84.5273 92.1929 90.4134C92.1637 95.2094 92.0317 100.004 91.9396 104.798C91.9334 105.119 91.9211 105.446 91.8643 105.762C91.6218 107.092 90.8265 107.742 89.4232 107.736C83.6429 107.706 77.8626 107.66 72.0838 107.635C66.1238 107.608 60.1639 107.598 54.2039 107.581C52.2188 107.577 51.4358 106.947 51.399 105.052C51.3191 101.027 51.3253 97.0005 51.3053 92.9755C51.2715 85.7442 51.2439 78.5129 51.2116 71.2816C51.2101 71.1578 51.1917 71.034 51.1825 70.9103C51.1625 70.9103 51.1426 70.9103 51.1241 70.9103C51.1241 67.704 51.1165 64.4992 51.1257 61.2944C51.1395 55.7289 51.1456 50.1619 51.1948 44.5964C51.2163 41.9881 51.3207 39.3798 51.402 36.7715C51.4558 35.0133 52.2188 34.3094 54.0258 34.302C64.1541 34.2557 74.2823 34.208 84.409 34.1588C86.0456 34.1513 87.6822 34.132 89.3204 34.132C90.9386 34.132 91.7952 34.8746 91.915 36.4494C91.9948 37.4889 91.9948 38.5358 91.9994 39.5797C92.0578 50.6376 92.1161 61.6956 92.1622 72.7535ZM90.0082 94.1879C90.0205 87.1579 90.0159 80.1295 89.9928 73.0995C89.9713 67.0597 89.9022 61.02 89.8761 54.9803C89.8485 49.1374 89.8485 43.296 89.8347 37.4546C89.8316 36.2317 89.8132 36.2183 88.5358 36.2242C81.5764 36.26 74.617 36.2973 67.6591 36.3331C63.259 36.3555 58.8589 36.3853 54.4588 36.3793C53.7049 36.3793 53.4071 36.603 53.4102 37.3606C53.4178 39.1502 53.3211 40.9397 53.3181 42.7293C53.3073 52.1259 53.3134 61.5211 53.3134 70.9177C53.3395 70.9177 53.3656 70.9177 53.3917 70.9177C53.3917 72.8788 53.3887 74.8398 53.3917 76.8009C53.4071 85.9977 53.4225 95.196 53.4378 104.393C53.4393 105.414 53.5176 105.493 54.5754 105.486C58.5917 105.458 62.6096 105.414 66.6259 105.398C74.0459 105.368 81.4643 105.355 88.8844 105.331C89.7748 105.328 89.89 105.209 89.9007 104.329C89.9406 100.948 90.0036 97.5687 90.0082 94.1879Z" fill="#363263"/>
<path d="M77.9839 30.2172C78.0008 30.8078 77.4404 31.3879 76.7556 31.4073C75.6856 31.4356 74.6139 31.4147 73.5423 31.4147C73.5423 31.4341 73.5423 31.4535 73.5423 31.4729C72.5474 31.4729 71.5495 31.5146 70.5593 31.4505C70.2107 31.4281 69.6657 31.2044 69.5966 30.9673C69.5014 30.6407 69.6519 30.074 69.9129 29.8608C70.2875 29.5551 70.8525 29.3373 71.3453 29.3209C73.1539 29.2583 74.967 29.2926 76.7787 29.2971C77.5985 29.3001 77.967 29.5894 77.9839 30.2172ZM76.7894 30.423C76.7879 30.3812 76.7848 30.338 76.7833 30.2962C74.7367 30.2962 72.6902 30.2962 70.6437 30.2962C70.6391 30.338 70.636 30.3812 70.6329 30.423C72.6841 30.423 74.7367 30.423 76.7894 30.423Z" fill="#363263"/>
<path d="M75.5351 112.306C75.5504 114.283 73.9108 115.736 71.6339 115.761C69.7287 115.782 68.0721 114.197 68.0383 112.319C67.9999 110.206 69.7302 108.464 71.8642 108.467C73.8785 108.47 75.5197 110.187 75.5351 112.306ZM74.0274 112.303C74.029 110.853 73.0955 109.929 71.6125 109.909C70.157 109.89 69.3556 110.638 69.3541 112.019C69.3525 113.455 70.2138 114.337 71.6278 114.346C73.0479 114.353 74.0259 113.521 74.0274 112.303Z" fill="#363263"/>
<path d="M67.8679 29.6715C67.8802 30.611 67.0865 31.3894 66.3756 31.379C65.8981 31.3715 65.5159 31.209 65.5159 30.6527C65.5159 30.0264 66.4171 29.1003 67.0834 29.1704C67.4073 29.2047 67.696 29.5536 67.8679 29.6715Z" fill="#363263"/>
</g>
<defs>
<clipPath id="clip0">
<rect width="143.244" height="141.559" fill="white"/>
</clipPath>
<clipPath id="clip1">
<rect width="49" height="95" fill="white" transform="translate(47.1478 24)"/>
</clipPath>
</defs>
</svg>
