<svg width="144" height="142" viewBox="0 0 144 142" fill="none" xmlns="http://www.w3.org/2000/svg">
<g clip-path="url(#clip0)">
<path d="M71.6124 109.909C73.0955 109.928 74.0289 110.853 74.0274 112.303C74.0259 113.521 73.0479 114.353 71.6278 114.346C70.2138 114.337 69.3525 113.455 69.354 112.019C69.3555 110.638 70.157 109.89 71.6124 109.909Z" fill="#363263"/>
<path d="M76.7833 30.2964C76.7848 30.3381 76.7879 30.3814 76.7894 30.4231C74.7367 30.4231 72.6841 30.4231 70.6329 30.4231C70.636 30.3814 70.6391 30.3381 70.6437 30.2964C72.6902 30.2964 74.7367 30.2964 76.7833 30.2964Z" fill="#363263"/>
<path d="M94.0198 53.0191C94.0582 59.1573 94.0275 65.2954 94.0275 71.4336C93.9676 71.4336 93.9062 71.4336 93.8463 71.4336C93.8463 83.4609 93.854 95.4897 93.8386 107.517C93.8355 109.405 93.7511 111.293 93.6375 113.176C93.6053 113.733 93.378 114.287 93.1815 114.821C92.8468 115.731 92.1483 116.253 91.201 116.532C89.3095 117.091 87.369 117.084 85.4222 117.079C77.1332 117.057 68.8443 117.045 60.5553 117.034C59.0461 117.033 57.5354 117.108 56.0293 117.057C54.9868 117.023 53.9352 116.903 52.9157 116.694C50.8078 116.263 49.9711 115.416 49.7623 113.314C49.5796 111.463 49.5489 109.593 49.5427 107.732C49.5182 100.126 49.5566 92.5205 49.5212 84.9149C49.4875 77.2124 49.3324 69.5113 49.3447 61.8103C49.36 52.4658 49.4752 43.1214 49.5995 33.7784C49.621 32.1022 49.816 30.4155 50.0893 28.7587C50.2781 27.6119 51.1333 26.8468 52.3339 26.6888C54.3789 26.4174 56.4377 26.0893 58.4934 26.0729C67.2921 26.0072 76.0939 26.0147 84.8941 26.0684C86.7994 26.0803 88.7261 26.2667 90.6022 26.5918C92.6119 26.9408 93.3949 27.9325 93.6221 29.9129C93.7127 30.7033 93.7772 31.4997 93.7864 32.2931C93.8755 39.2022 93.9768 46.1099 94.0198 53.0191ZM92.1928 90.4133C92.2296 84.5272 92.1867 78.6395 92.1621 72.7534C92.116 61.6954 92.0577 50.6375 91.9994 39.5795C91.9947 38.5356 91.9947 37.4887 91.9149 36.4493C91.7952 34.8745 90.9385 34.1318 89.3203 34.1318C87.6821 34.1318 86.0455 34.1512 84.4089 34.1587C74.2822 34.2079 64.154 34.2556 54.0258 34.3018C52.2187 34.3093 51.4557 35.0132 51.402 36.7714C51.3206 39.3797 51.2162 41.988 51.1947 44.5962C51.1456 50.1618 51.1394 55.7288 51.1256 61.2943C51.1164 64.4991 51.1241 67.7039 51.1241 70.9102C51.1425 70.9102 51.1625 70.9102 51.1824 70.9102C51.1916 71.0339 51.21 71.1577 51.2116 71.2815C51.2438 78.5128 51.2715 85.7441 51.3052 92.9754C51.3252 97.0004 51.3191 101.027 51.3989 105.052C51.4357 106.947 52.2187 107.577 54.2038 107.581C60.1638 107.598 66.1238 107.608 72.0837 107.635C77.8625 107.66 83.6428 107.706 89.4232 107.736C90.8264 107.742 91.6217 107.092 91.8642 105.762C91.9211 105.446 91.9333 105.119 91.9395 104.798C92.0316 100.004 92.1636 95.2093 92.1928 90.4133ZM76.7556 31.4072C77.4403 31.3878 78.0007 30.8077 77.9838 30.2172C77.9669 29.5893 77.5984 29.3 76.7786 29.297C74.967 29.2926 73.1538 29.2583 71.3452 29.3209C70.8524 29.3373 70.2874 29.555 69.9128 29.8608C69.6518 30.074 69.5014 30.6407 69.5966 30.9673C69.6656 31.2044 70.2107 31.4281 70.5592 31.4505C71.5494 31.5146 72.5474 31.4728 73.5422 31.4728C73.5422 31.4535 73.5422 31.4341 73.5422 31.4147C74.6138 31.4147 75.6855 31.4356 76.7556 31.4072ZM71.6339 115.761C73.9107 115.736 75.5504 114.283 75.535 112.306C75.5197 110.186 73.8785 108.47 71.8642 108.467C69.7301 108.464 67.9999 110.206 68.0382 112.319C68.072 114.197 69.7286 115.782 71.6339 115.761ZM66.3755 31.3789C67.0864 31.3893 67.8801 30.6109 67.8678 29.6714C67.6959 29.5535 67.4072 29.2046 67.0833 29.1703C66.417 29.1002 65.5158 30.0263 65.5158 30.6526C65.5158 31.2089 65.8981 31.3714 66.3755 31.3789Z" fill="#D7B4CF"/>
<path d="M89.9928 73.0995C90.0158 80.1295 90.0204 87.158 90.0081 94.1879C90.0035 97.5687 89.9406 100.948 89.9007 104.329C89.8899 105.209 89.7748 105.328 88.8843 105.331C81.4643 105.355 74.0458 105.368 66.6258 105.398C62.6095 105.414 58.5917 105.458 54.5754 105.486C53.5176 105.493 53.4393 105.414 53.4378 104.393C53.4224 95.196 53.407 85.9977 53.3917 76.8009C53.3886 74.8399 53.3917 72.8788 53.3917 70.9177C53.3656 70.9177 53.3395 70.9177 53.3134 70.9177C53.3134 61.5211 53.3073 52.1259 53.318 42.7293C53.3211 40.9397 53.4178 39.1502 53.4101 37.3606C53.407 36.603 53.7049 36.3793 54.4587 36.3793C58.8588 36.3853 63.2589 36.3555 67.6591 36.3331C74.6169 36.2973 81.5764 36.26 88.5358 36.2242C89.8132 36.2183 89.8316 36.2317 89.8347 37.4546C89.8485 43.296 89.8485 49.1374 89.8761 54.9803C89.9022 61.02 89.9713 67.0598 89.9928 73.0995Z" fill="#D7B4CF"/>
<path d="M96.0845 44.356C96.1291 53.2277 96.0984 62.0994 96.0984 70.9726C96.0554 70.9726 96.0124 70.9726 95.9709 70.9726C95.9709 83.3027 95.9801 95.6327 95.9571 107.963C95.954 109.324 95.8404 110.696 95.647 112.046C95.1158 115.774 92.6348 118.19 88.8104 118.769C88.0796 118.879 87.3334 118.949 86.595 118.951C76.6679 118.963 66.7392 118.97 56.8105 118.949C54.718 118.945 52.6806 118.646 50.9135 117.395C49.1387 116.14 48.1055 114.436 47.7846 112.365C47.5605 110.921 47.4315 109.45 47.4238 107.988C47.364 96.8019 47.3532 85.6157 47.3087 74.4295C47.2811 67.222 47.1506 60.0146 47.1935 52.8087C47.235 45.9487 47.4023 39.0887 47.5989 32.2303C47.6787 29.4222 48.8271 27.0614 51.3741 25.5209C52.9186 24.5874 54.675 24.2757 56.4436 24.2429C62.7352 24.131 69.0283 24.058 75.323 24.0386C79.0061 24.0267 82.6892 24.1251 86.3724 24.2086C88.3037 24.2518 90.2244 24.489 91.9147 25.4702C94.4863 26.96 95.6531 29.3148 95.7744 32.1304C95.9494 36.2016 96.0646 40.2803 96.0845 44.356ZM94.0273 71.4334C94.0273 65.2953 94.058 59.1571 94.0196 53.0189C93.9766 46.1098 93.8753 39.2021 93.7862 32.2929C93.777 31.4995 93.7125 30.7032 93.622 29.9128C93.3947 27.9324 92.6117 26.9406 90.6021 26.5917C88.7259 26.2666 86.7992 26.0802 84.8939 26.0682C76.0937 26.0146 67.2919 26.0071 58.4932 26.0727C56.4375 26.0891 54.3787 26.4172 52.3337 26.6886C51.1331 26.8467 50.2779 27.6117 50.0891 28.7585C49.8158 30.4154 49.6208 32.102 49.5993 33.7782C49.475 43.1212 49.3598 52.4657 49.3445 61.8101C49.3322 69.5112 49.4873 77.2122 49.521 84.9148C49.5563 92.5204 49.518 100.126 49.5425 107.732C49.5487 109.593 49.5794 111.463 49.7621 113.313C49.9709 115.416 50.8076 116.263 52.9155 116.694C53.935 116.903 54.9866 117.022 56.0291 117.057C57.5352 117.107 59.0459 117.033 60.5551 117.034C68.8441 117.045 77.133 117.057 85.422 117.079C87.3688 117.083 89.3094 117.091 91.2008 116.532C92.1481 116.253 92.8466 115.731 93.1813 114.821C93.3778 114.287 93.6051 113.733 93.6373 113.176C93.7509 111.293 93.8354 109.405 93.8384 107.517C93.8538 95.4895 93.8461 83.4607 93.8461 71.4334C93.906 71.4334 93.9674 71.4334 94.0273 71.4334Z" fill="#D7B4CF"/>
<path d="M92.1621 72.7534C92.1867 78.6395 92.2297 84.5272 92.1928 90.4133C92.1637 95.2093 92.0316 100.004 91.9395 104.798C91.9334 105.119 91.9211 105.446 91.8643 105.762C91.6217 107.092 90.8264 107.742 89.4232 107.736C83.6429 107.706 77.8625 107.66 72.0837 107.635C66.1238 107.608 60.1638 107.598 54.2039 107.581C52.2187 107.577 51.4358 106.947 51.3989 105.052C51.3191 101.027 51.3252 97.0004 51.3053 92.9754C51.2715 85.7441 51.2438 78.5128 51.2116 71.2815C51.2101 71.1577 51.1916 71.0339 51.1824 70.9102C51.1625 70.9102 51.1425 70.9102 51.1241 70.9102C51.1241 67.7039 51.1164 64.4991 51.1256 61.2943C51.1394 55.7288 51.1456 50.1618 51.1947 44.5963C51.2162 41.988 51.3206 39.3797 51.402 36.7714C51.4557 35.0132 52.2187 34.3093 54.0258 34.3018C64.154 34.2556 74.2823 34.2079 84.409 34.1587C86.0456 34.1512 87.6822 34.1318 89.3203 34.1318C90.9385 34.1318 91.7952 34.8745 91.9149 36.4493C91.9948 37.4887 91.9948 38.5356 91.9994 39.5795C92.0577 50.6375 92.1161 61.6954 92.1621 72.7534ZM90.0081 94.1878C90.0204 87.1578 90.0158 80.1293 89.9928 73.0994C89.9713 67.0596 89.9022 61.0199 89.8761 54.9801C89.8485 49.1372 89.8485 43.2958 89.8346 37.4544C89.8316 36.2316 89.8131 36.2182 88.5358 36.2241C81.5764 36.2599 74.6169 36.2972 67.6591 36.333C63.2589 36.3554 58.8588 36.3852 54.4587 36.3792C53.7049 36.3792 53.4071 36.6029 53.4101 37.3605C53.4178 39.15 53.3211 40.9396 53.318 42.7292C53.3073 52.1258 53.3134 61.521 53.3134 70.9176C53.3395 70.9176 53.3656 70.9176 53.3917 70.9176C53.3917 72.8787 53.3886 74.8397 53.3917 76.8008C53.4071 85.9976 53.4224 95.1959 53.4378 104.393C53.4393 105.414 53.5176 105.493 54.5754 105.486C58.5917 105.457 62.6095 105.414 66.6258 105.398C74.0458 105.368 81.4643 105.355 88.8843 105.331C89.7748 105.328 89.8899 105.208 89.9007 104.329C89.9406 100.948 90.0035 97.5685 90.0081 94.1878Z" fill="#363263"/>
<path d="M77.9838 30.2172C78.0007 30.8078 77.4404 31.3879 76.7556 31.4073C75.6855 31.4356 74.6139 31.4147 73.5423 31.4147C73.5423 31.4341 73.5423 31.4535 73.5423 31.4729C72.5474 31.4729 71.5495 31.5146 70.5592 31.4505C70.2107 31.4281 69.6657 31.2044 69.5966 30.9673C69.5014 30.6407 69.6519 30.074 69.9129 29.8608C70.2875 29.5551 70.8525 29.3373 71.3453 29.3209C73.1539 29.2583 74.967 29.2926 76.7786 29.2971C77.5985 29.3001 77.967 29.5894 77.9838 30.2172ZM76.7894 30.423C76.7879 30.3812 76.7848 30.338 76.7833 30.2962C74.7367 30.2962 72.6902 30.2962 70.6437 30.2962C70.6391 30.338 70.636 30.3812 70.6329 30.423C72.6841 30.423 74.7367 30.423 76.7894 30.423Z" fill="#363263"/>
<path d="M75.535 112.306C75.5503 114.283 73.9107 115.736 71.6338 115.761C69.7286 115.782 68.072 114.197 68.0382 112.319C67.9998 110.206 69.7301 108.464 71.8641 108.467C73.8784 108.47 75.5196 110.187 75.535 112.306ZM74.0273 112.303C74.0289 110.853 73.0954 109.929 71.6123 109.909C70.1569 109.89 69.3555 110.638 69.354 112.019C69.3524 113.455 70.2137 114.337 71.6277 114.346C73.0478 114.353 74.0258 113.521 74.0273 112.303Z" fill="#363263"/>
<path d="M67.8678 29.6713C67.8801 30.6109 67.0863 31.3893 66.3755 31.3789C65.898 31.3714 65.5157 31.2089 65.5157 30.6526C65.5157 30.0263 66.417 29.1002 67.0833 29.1703C67.4072 29.2046 67.6959 29.5535 67.8678 29.6713Z" fill="#363263"/>
</g>
<defs>
<clipPath id="clip0">
<rect width="49" height="95" fill="white" transform="translate(47.1477 24)"/>
</clipPath>
</defs>
</svg>
