<svg width="226" height="85" viewBox="0 0 226 85" fill="none" xmlns="http://www.w3.org/2000/svg">
<g clip-path="url(#clip0)">
<path d="M29.8481 84.2229C11.1484 78.3489 -4.04108 58.3298 0.964287 34.186C5.60129 11.8455 27.2695 -2.99067 50.1187 0.507806C72.632 3.96309 88.2115 24.0145 86.8139 45.88C86.0664 57.5308 81.2777 67.3244 72.6537 75.2067C67.4858 79.9362 61.5596 83.2511 54.5607 84.9895C54.2465 82.7544 54.2032 80.8216 53.6832 79.0292C52.8056 76.0598 51.6247 73.1876 50.5413 70.283C50.1512 69.2356 49.5662 68.2422 49.2628 67.1732C48.5911 64.8301 49.4362 63.3184 51.8088 63.0701C56.4784 62.595 59.3061 59.8847 61.2995 55.9543C61.7329 55.1013 62.2204 54.2915 62.5996 53.4169C63.7372 50.8254 65.7957 49.6808 68.5367 49.5297C69.4468 49.4757 70.346 49.3785 71.1911 49.0869C66.4566 48.5147 62.318 49.3461 59.8261 53.9891C59.4252 54.745 58.9269 55.4684 58.4285 56.1703C56.4134 59.0641 53.0981 60.2194 49.7612 59.1937C48.5478 58.8157 47.551 58.1031 47.2585 56.7966C46.9877 55.5872 47.4752 54.6046 48.4719 53.8704C48.8078 53.622 49.1328 53.3413 49.4145 53.1145C48.9161 48.3635 45.4709 46.4091 41.3106 48.4499C39.3929 49.3893 37.5078 50.4043 35.6227 51.3761C36.6952 51.2573 37.8545 51.1277 39.0679 50.9982C37.5945 53.568 35.0268 54.1835 32.5674 52.5098C31.5057 51.7864 30.6173 50.8038 29.6314 49.9724C27.5946 48.2447 25.7094 46.2579 23.4668 44.865C20.4657 43.0078 18.5697 40.5783 17.7463 37.2202C17.6488 36.8207 17.4538 36.4428 16.9013 36.0972C16.9988 36.9395 16.9988 37.8141 17.2155 38.6239C17.9089 41.1938 19.3173 43.3749 21.4083 45.027C24.2252 47.2405 26.5328 49.886 28.6563 52.7474C29.9781 54.529 31.5924 56.1703 33.2933 57.6064C37.6811 61.31 38.5262 66.0826 37.2044 71.2224C35.9477 76.1353 32.8925 80.1737 29.8481 84.2229ZM13.0552 25.0187C12.481 29.2731 14.8428 31.9509 19.2631 32.0589C19.7398 27.6858 17.2805 24.9 13.0552 25.0187ZM23.5534 67.5727C27.2695 64.8517 27.7679 61.5152 25.1136 58.3298C21.5816 60.5758 20.9858 63.8799 23.5534 67.5727ZM44.6583 17.0932C46.771 13.0332 45.8826 10.3554 42.004 8.7573C39.8046 12.3314 40.628 15.074 44.6583 17.0932ZM15.7745 48.8278C11.6034 47.8452 9.00321 49.5836 8.37483 53.6112C12.2426 54.4858 14.4744 53.0929 15.7745 48.8278ZM15.287 43.9256C12.9252 40.3192 9.77243 39.7037 6.79305 42.2736C9.3824 45.7504 12.1126 46.2795 15.287 43.9256ZM41.0831 20.786C40.108 24.8892 41.7223 27.3834 45.8284 28.1609C46.6518 23.8742 45.1567 21.5419 41.0831 20.786ZM63.6939 37.1878C59.9344 35.0606 56.9767 35.9245 55.2433 39.5741C58.6885 41.5933 61.4512 40.8591 63.6939 37.1878ZM69.6093 64.9165C70.281 60.7485 68.4067 58.2219 64.4956 57.8223C63.5422 61.6124 65.2648 64.085 69.6093 64.9165ZM25.2652 22.8268C23.2718 18.9072 20.5199 17.9786 17.053 19.9114C18.5589 23.5394 21.3758 24.576 25.2652 22.8268ZM70.2377 24.9108C71.0503 21.002 69.0243 18.2593 65.2865 18.2053C64.5498 21.9306 66.3374 24.3493 70.2377 24.9108ZM42.8274 33.1063C42.4265 29.1759 39.5121 27.1135 36.0127 28.3013C36.8253 32.3072 39.1112 33.9161 42.8274 33.1063ZM49.577 31.3678C46.6735 34.51 46.6735 37.3606 49.4795 39.8657C52.4047 36.9611 52.4806 34.2508 49.577 31.3678ZM55.1891 25.3427C52.4264 28.3336 52.5889 31.1735 55.5683 33.7865C58.3202 31.2166 58.2335 28.4092 55.1891 25.3427ZM79.5767 36.432C75.9039 34.1644 72.8704 34.8447 71.2994 38.1488C74.7664 40.2328 77.1065 39.7793 79.5767 36.432ZM25.6769 19.3067C29.6206 18.4105 31.1048 15.6463 29.7289 12.029C26.0778 12.936 24.756 15.2252 25.6769 19.3067ZM29.068 36.9395C30.3789 32.6959 29.0572 29.9965 25.5253 29.3702C24.2793 33.225 25.3194 35.5358 29.068 36.9395ZM48.5586 26.4656C52.5564 25.2239 53.824 22.654 52.4264 18.9936C48.6453 20.2569 47.4752 22.4273 48.5586 26.4656ZM20.8666 55.76C17.3888 54.0431 13.9869 55.7168 13.4777 59.388C17.2371 60.5542 19.5665 59.4096 20.8666 55.76ZM53.564 52.9849C57.7893 51.7108 59.3602 48.9034 57.8001 45.7504C54.0623 46.7222 52.7622 48.8818 53.564 52.9849ZM68.3634 53.6652C69.3385 57.682 71.6786 58.9993 75.6114 57.8547C74.6905 54.1079 72.6212 52.8662 68.3634 53.6652ZM45.9476 37.6629C42.3832 37.1122 39.7938 40.0168 40.7039 43.5585C44.3441 42.8566 45.4817 41.5825 45.9476 37.6629ZM61.4837 33.5058C65.2648 33.1602 67.0525 30.9143 66.3157 27.6426C62.8055 27.8477 61.2995 29.6078 61.4837 33.5058ZM31.7982 41.3989C30.5523 44.4007 32.1882 46.949 35.7852 47.6508C36.5544 44.1416 35.471 42.4355 31.7982 41.3989ZM64.5064 46.1716C67.5942 44.0768 68.06 42.1224 66.2182 39.5741C63.3797 41.4313 62.9572 42.9646 64.5064 46.1716ZM55.85 65.5103C58.461 67.8751 59.9994 67.8859 62.3505 65.7155C59.9994 63.4372 58.396 63.3616 55.85 65.5103ZM29.3389 39.9952C26.7062 37.9653 24.9077 38.2352 23.0334 40.9022C25.8611 42.6947 27.4212 42.4679 29.3389 39.9952ZM37.1503 10.215C34.1384 11.7915 33.5317 13.3248 34.7126 16.1322C37.6486 14.9552 38.342 13.3787 37.1503 10.215ZM62.0146 27.0379C63.9214 24.1873 63.7264 22.7188 61.2345 20.6564C59.2736 22.9564 59.4469 24.6516 62.0146 27.0379ZM55.915 16.6397C58.9702 17.8598 60.5195 17.2227 61.9171 14.3289C59.2411 12.99 57.5401 13.6055 55.915 16.6397ZM30.4764 59.9063C28.9272 63.0593 29.5555 64.9273 32.4049 66.061C33.6292 63.1888 33.2392 61.8931 30.4764 59.9063ZM7.5081 37.1446C10.3033 38.6023 12.2751 37.9005 13.4127 35.0283C10.6392 33.7217 8.91654 34.3372 7.5081 37.1446ZM49.4253 44.6599C52.6214 45.9772 54.5932 45.1782 55.3841 42.3707C52.3939 41.3773 51.0938 41.8524 49.4253 44.6599ZM37.4861 25.3211C38.6129 22.0278 37.7245 20.1489 34.8643 19.5119C34.0409 22.6324 34.5176 23.7662 37.4861 25.3211ZM49.902 14.5449C53.4881 14.7501 55.1891 13.1304 54.6041 10.2582C51.4947 10.5605 50.7038 11.2624 49.902 14.5449ZM74.1272 26.7356C71.0178 28.6252 70.5627 29.9641 71.8953 32.8039C74.7664 31.3678 75.3189 29.9425 74.1272 26.7356ZM79.7392 45.934C76.4457 45.7612 74.8314 47.3809 75.1456 50.3395C78.0599 50.3179 79.0458 49.4001 79.7392 45.934ZM71.1586 44.4655C74.203 45.6533 76.1315 44.8326 77.009 41.982C73.7263 41.0642 72.3612 41.6473 71.1586 44.4655ZM36.5436 39.9304C36.9986 36.8207 35.9477 35.4818 32.6866 35.0175C32.2641 38.1056 33.3367 39.4769 36.5436 39.9304ZM17.6597 50.5878C19.6098 53.3521 21.2241 53.7516 23.9326 52.2507C22.2967 49.5728 20.7691 49.1409 17.6597 50.5878ZM26.912 24.6948C28.8188 27.1675 30.7148 27.4374 33.12 25.5802C31.2565 23.0859 29.4364 22.816 26.912 24.6948Z" fill="#363263"/>
<path d="M98.8073 34.7256C99.1865 34.6608 99.5765 34.5312 99.9557 34.5312C102.816 34.5204 105.665 34.488 108.526 34.542C109.468 34.5636 110.421 34.7364 111.332 34.9523C113.347 35.4382 114.755 36.6368 115.113 38.7424C115.47 40.8479 114.842 42.6728 113.13 44.0333C112.534 44.5084 111.841 44.8647 111.191 45.275C115.947 52.9414 114.918 52.0884 118.081 53.5461C116.489 56.1916 113.293 56.3427 111.44 53.7621C110.541 52.5095 109.912 51.0626 109.165 49.7021C108.742 48.9463 108.341 48.1796 107.875 47.4562C107.323 46.6031 106.586 46.0525 105.178 46.506C105.178 48.374 105.21 50.3392 105.167 52.2936C105.134 53.9132 106.695 53.8916 107.605 54.6043C106.164 55.4789 101.765 55.6409 98.5148 54.885C101.397 53.6541 100.887 51.311 100.887 49.1514C100.898 45.9553 100.844 42.7699 100.898 39.5738C100.92 37.695 101.126 35.7838 98.8073 34.7256ZM105.254 44.206C107.42 44.422 109.197 44.314 110.281 42.4676C111.115 41.0639 111.007 38.5804 110.042 37.5762C108.699 36.1725 107.041 36.2049 105.254 36.7016C105.254 39.2067 105.254 41.593 105.254 44.206Z" fill="#363263"/>
<path d="M172.761 30.9248C170.876 28.3765 170.908 27.9446 173.249 25.2992C171.786 24.1978 170.648 22.9345 170.746 20.8721C170.876 18.1726 172.046 16.391 174.69 15.8511C175.935 15.592 177.279 15.6136 178.547 15.7755C181.298 16.1319 181.288 16.2074 183.519 15.2249C184.798 16.9849 184.744 17.1253 182.447 18.313C182.479 18.5938 182.512 18.9177 182.577 19.2308C183.259 22.8805 181.493 25.2452 177.756 25.6663C176.694 25.7851 175.48 25.5151 174.646 27.1348C175.621 27.3183 176.401 27.5235 177.192 27.5991C178.395 27.7179 179.619 27.6639 180.811 27.8582C182.512 28.1174 184.061 28.7545 184.397 30.698C184.733 32.6632 184.462 34.5097 182.728 35.827C182.176 36.2373 181.591 36.626 180.952 36.896C178.189 38.0405 175.383 38.0189 172.599 36.9607C172.046 36.7556 171.504 36.4209 171.06 36.0321C168.861 34.1209 169.63 31.9182 172.848 30.86C172.859 31.4323 172.761 32.0478 172.913 32.5877C173.151 33.4407 173.368 34.4557 173.953 35.0387C175.199 36.3021 178.687 36.2913 179.966 35.0603C180.518 34.5313 181.093 33.5379 180.952 32.9116C180.822 32.2961 179.847 31.5295 179.153 31.4215C177.041 31.1084 174.895 31.076 172.761 30.9248ZM178.947 20.8505C178.861 20.1378 178.807 19.6303 178.72 19.1228C178.536 18.0647 177.961 17.406 176.824 17.3952C175.686 17.3952 175.015 18.0215 174.939 19.1013C174.852 20.2782 174.787 21.5199 175.047 22.6537C175.177 23.2152 176.044 23.9279 176.618 23.9602C177.203 23.9926 178.026 23.4204 178.406 22.8697C178.807 22.2866 178.807 21.4228 178.947 20.8505Z" fill="#363263"/>
<path d="M105.351 29.1109C107.085 29.1109 108.699 29.2296 110.302 29.0785C112.252 28.9057 112.447 26.9513 113.13 25.2453C114.094 27.448 114.116 27.7504 113.563 31.0005C108.688 31.0005 103.78 31.0005 98.8723 31.0005C101.407 29.4888 100.866 27.1457 100.866 24.9969C100.877 21.4661 100.833 17.9244 100.887 14.3935C100.909 12.7955 100.703 11.4565 98.6556 11.1434C100.151 10.3012 108.211 10.0528 113.011 10.6359C113.119 12.0612 113.228 13.5405 113.358 15.3329C111.548 14.6311 111.657 12.2988 109.782 12.3203C108.341 12.3419 106.89 12.3203 105.297 12.3203C105.297 14.6959 105.297 16.823 105.297 18.9394C107.897 19.6952 108.612 19.4685 110.259 17.3737C111.028 18.5831 111.137 21.0989 110.411 23.6472C109.36 21.3689 107.648 20.937 105.362 21.5092C105.351 23.8848 105.351 26.3143 105.351 29.1109Z" fill="#363263"/>
<path d="M160.345 31.0006C157.225 31.0006 154.744 31.0006 151.515 31.0006C153.996 29.3809 153.899 27.4481 153.801 25.4829C153.747 24.2736 153.801 23.0642 153.791 21.8657C153.769 19.123 153.769 19.123 151.721 17.6653C153.856 15.0631 155.513 14.9875 157.68 17.3198C158.969 16.7691 160.183 16.0241 161.494 15.7433C164.592 15.0739 166.553 16.6935 166.661 19.8357C166.726 21.7361 166.661 23.6257 166.683 25.5261C166.705 28.3983 166.737 28.4415 169.045 29.9316C167.983 31.4433 166.466 31.5189 164.917 31.1949C163.693 30.9358 163.054 30.0288 163.01 28.7438C162.956 27.027 162.88 25.2993 162.826 23.5825C162.805 22.7187 162.87 21.8549 162.794 21.0018C162.642 19.1122 161.992 18.3888 160.594 18.4104C158.698 18.4536 157.712 19.3714 157.669 21.207C157.637 22.7619 157.68 24.3059 157.669 25.8608C157.637 28.8626 157.637 28.8734 160.345 31.0006Z" fill="#363263"/>
<path d="M148.59 78.435C147.344 79.9035 145.795 80.0331 144.159 79.4824C142.675 78.9749 142.491 77.5928 142.447 76.2863C142.371 74.0512 142.48 71.8052 142.371 69.5701C142.241 67.0542 140.79 66.2552 138.536 67.2702C137.734 67.6265 137.323 68.1772 137.323 69.0626C137.333 71.4705 137.16 73.9 137.409 76.2971C137.518 77.3013 138.493 78.2191 139.175 79.3421C136.694 79.3421 134.246 79.3421 131.581 79.3421C131.851 78.9641 131.992 78.5646 132.274 78.3919C133.314 77.7548 133.487 76.783 133.498 75.714C133.509 73.9 133.509 72.0968 133.498 70.2827C133.487 68.5335 133.444 66.7843 131.212 66.2552C133.617 63.4045 135.091 63.3506 137.333 65.7693C138.536 65.2402 139.674 64.5815 140.898 64.236C143.791 63.4261 145.936 64.7975 146.272 67.7668C146.499 69.8076 146.391 71.8916 146.402 73.9648C146.402 76.8802 146.391 76.8802 148.59 78.435Z" fill="#363263"/>
<path d="M111.202 64.0201C111.115 63.4803 111.082 63.1455 111.007 62.8216C110.746 61.569 110.259 60.5109 108.829 60.2517C107.323 59.9818 105.947 60.3489 105.21 61.677C104.474 63.0051 103.726 64.4952 103.607 65.9745C103.412 68.2529 103.379 70.6608 103.921 72.8635C104.972 77.215 108.775 77.6361 111.884 76.2648C112.588 75.9517 113.217 75.4982 113.845 75.131C115.037 75.6601 114.647 76.4268 114.192 77.0638C112.772 79.0506 110.66 79.8821 108.352 79.9252C103.856 80.0116 100.725 78.0464 99.4465 73.8785C98.3848 70.4016 98.4823 66.8923 99.9774 63.5126C102.372 58.0922 108.721 57.4767 112.577 59.1396C114.018 59.7658 114.723 60.986 114.408 62.1845C114.008 63.7286 112.881 64.1389 111.202 64.0201Z" fill="#363263"/>
<path d="M124.549 22.1463C124.679 20.8506 124.896 19.4685 123.455 18.745C121.212 17.6113 119.327 18.7558 117.518 20.1055C117.204 18.3239 117.626 17.2657 119.132 16.4559C121.396 15.2357 123.812 15.225 126.153 16.1968C127.724 16.8446 128.525 18.1943 128.536 19.9004C128.558 21.8872 128.504 23.874 128.493 25.8607C128.493 28.2686 128.612 28.4738 130.595 29.7911C128.579 31.8427 127.507 31.8967 124.874 30.0179C123.119 31.2056 121.245 31.9831 119.045 31.292C117.128 30.6873 115.936 29.2728 115.817 27.3508C115.698 25.472 116.684 23.82 118.688 23.2261C120.508 22.697 122.404 22.5242 124.549 22.1463ZM124.506 24.2411C123.303 24.4246 122.252 24.4138 121.331 24.7594C119.923 25.2885 119.5 26.8325 120.302 27.9447C121.006 28.9381 122.025 29.0029 123.097 28.7977C124.202 28.5818 124.723 27.9015 124.647 26.7786C124.593 26.0227 124.56 25.2669 124.506 24.2411Z" fill="#363263"/>
<path d="M149.544 47.8666C149.544 41.8522 154.159 38.3322 159.728 40.1246C160.453 40.3621 161.179 40.7185 161.775 41.1828C164.549 43.3423 165.199 48.9248 163.151 52.3801C161.353 55.4034 157.344 56.6128 153.801 55.1875C151.028 54.0753 149.544 51.527 149.544 47.8666ZM153.65 47.4455C153.856 48.8708 153.975 50.2421 154.278 51.5702C154.636 53.1791 155.535 53.9241 156.878 53.9781C158.276 54.0321 159.251 53.3842 159.652 51.797C160.334 49.0975 160.345 46.3657 159.684 43.6555C159.359 42.3381 158.503 41.5931 157.127 41.5175C155.741 41.4419 154.787 42.1006 154.343 43.6987C153.986 44.9188 153.866 46.2145 153.65 47.4455Z" fill="#363263"/>
<path d="M211.092 41.5714C211.396 41.2907 211.786 40.8156 212.273 40.5132C214.082 39.3903 215.383 39.7034 216.271 41.6146C217.354 43.9577 218.275 46.3872 219.261 48.7843C219.456 49.2486 219.662 49.7129 219.879 50.242C222.306 46.9487 223.107 43.7202 222.219 40.848C222.533 40.632 222.869 40.2217 223.237 40.1893C224.05 40.1137 225.155 39.9301 225.621 40.3513C226.087 40.7724 226.011 41.8953 225.978 42.6944C225.957 43.2667 225.642 43.8497 225.393 44.4004C223.53 48.5792 221.699 52.7687 219.738 56.9042C219.077 58.2863 218.232 59.6793 217.159 60.7482C215.036 62.8754 212.988 62.1519 212.1 58.9774C212.685 58.9126 213.237 58.837 213.801 58.7938C215.393 58.6643 217.354 56.9474 217.539 55.3925C217.593 54.9174 217.398 54.3776 217.203 53.924C216.043 51.1382 214.928 48.32 213.638 45.599C212.988 44.2169 212.013 42.9967 211.092 41.5714Z" fill="#363263"/>
<path d="M123.379 48.0069C123.661 53.1251 126.684 54.3668 132.111 51.5594C132.826 52.3692 132.599 53.0819 131.895 53.7297C129.652 55.7921 126.965 56.116 124.148 55.4358C121.667 54.8419 119.977 53.1791 119.479 50.7388C119.121 49.0111 119.035 47.1107 119.36 45.3831C120.226 40.6752 125.643 38.2565 129.912 40.4917C131.721 41.4419 133.151 44.0981 132.783 46.1713C132.686 46.7112 132.079 47.3375 131.548 47.575C130.963 47.8342 130.194 47.7262 129.5 47.737C127.68 47.7694 125.871 47.7694 124.051 47.791C123.888 47.7802 123.726 47.8773 123.379 48.0069ZM128.547 45.6206C128.84 42.878 128.244 41.6794 126.608 41.5391C124.69 41.3771 123.585 42.8348 123.574 45.6206C125.232 45.6206 126.9 45.6206 128.547 45.6206Z" fill="#363263"/>
<path d="M186.78 47.7262C187.398 53.2006 190.107 54.3128 195.589 51.6026C196.271 52.434 195.989 53.1143 195.318 53.7837C192.685 56.3968 185.838 56.9043 183.465 52.0885C182.1 49.3242 182.035 46.4304 183.389 43.6122C185.09 40.0706 189.966 38.5805 193.4 40.4701C195.329 41.5391 196.661 44.3789 196.195 46.4412C195.989 47.3698 195.318 47.6722 194.483 47.6938C193.108 47.7262 191.721 47.7154 190.345 47.7154C189.229 47.7262 188.113 47.7262 186.78 47.7262ZM187.073 45.6098C188.752 45.6098 190.421 45.6098 192.078 45.6098C192.338 42.8888 191.688 41.647 190.052 41.5175C188.146 41.3555 187.062 42.824 187.073 45.6098Z" fill="#363263"/>
<path d="M120.075 71.8161C119.88 74.008 120.335 75.7033 122.09 76.7183C124.43 78.0572 126.564 77.107 128.536 75.8004C129.468 76.3079 129.381 76.9018 128.883 77.5389C127.864 78.8346 126.467 79.4609 124.896 79.7524C120.324 80.6163 116.066 78.4351 115.752 72.9282C115.676 71.6649 115.763 70.3152 116.109 69.1058C117.388 64.6788 122.426 62.6056 126.532 64.7111C128.428 65.6829 129.782 68.5875 129.349 70.6391C129.143 71.6325 128.439 71.7945 127.615 71.8053C126.055 71.8161 124.506 71.8161 122.946 71.8161C122.025 71.8161 121.082 71.8161 120.075 71.8161ZM125.394 69.8725C125.34 66.6871 124.733 65.7261 123.022 65.7369C121.201 65.7369 120.291 67.0327 120.14 69.8725C121.841 69.8725 123.542 69.8725 125.394 69.8725Z" fill="#363263"/>
<path d="M173.639 75.6277C174.451 77.2798 173.541 78.0032 172.577 78.5971C169.879 80.2923 167.019 80.4759 164.191 79.0506C161.169 77.5173 160.454 74.6559 160.519 71.6001C160.627 66.7411 164.148 63.491 168.677 63.9121C172.729 64.29 174.83 67.2702 173.866 71.5029C170.995 72.2696 167.94 71.3734 164.939 72.0104C164.614 73.9216 165.123 75.5197 166.705 76.5455C169.088 78.122 171.32 77.161 173.639 75.6277ZM170.215 69.9049C170.399 68.188 170.41 66.7519 168.969 66.0501C168.319 65.7369 167.182 65.7801 166.564 66.1581C165.253 66.9463 164.679 68.242 165.069 69.9049C166.781 69.9049 168.384 69.9049 170.215 69.9049Z" fill="#363263"/>
<path d="M165.795 41.5931C168.016 39.0125 169.868 39.2068 171.244 42.3706C172.328 44.8648 173.249 47.4239 174.278 50.037C176.835 46.776 177.615 43.9578 176.791 40.7509C177.344 40.4809 177.907 40.0598 178.536 39.9411C180.128 39.6279 181.071 40.5673 180.713 42.1546C180.486 43.148 180.096 44.1306 179.652 45.0592C178.189 48.0826 176.651 51.0736 175.199 54.0969C174.787 54.9608 174.343 55.5114 173.292 55.4898C172.176 55.4682 171.862 54.734 171.537 53.9026C170.54 51.3327 169.608 48.7412 168.482 46.2254C167.799 44.6921 166.802 43.2884 165.795 41.5931Z" fill="#363263"/>
<path d="M145.037 44.8864C144.896 44.3249 144.798 43.7418 144.592 43.1911C143.823 41.2043 141.624 40.8804 140.302 42.5217C138.839 44.3465 138.829 49.821 140.291 51.6674C141.364 53.0279 143.119 53.4598 144.982 52.7471C145.773 52.4448 146.51 51.9913 147.344 51.5702C148.449 52.4772 147.734 53.2222 147.073 53.8809C144.462 56.4508 139.468 56.3212 136.943 53.6542C134.625 51.2031 134.224 46.3441 136.088 43.2235C137.843 40.2865 141.559 38.9908 145.188 40.0706C145.351 40.1246 145.535 40.1354 145.687 40.2001C147.084 40.74 147.745 41.647 147.648 42.8996C147.561 44.1089 147.16 44.4221 145.037 44.8864Z" fill="#363263"/>
<path d="M175.61 66.3415C178.872 63.4261 180.02 63.3937 182.068 65.7584C182.577 65.3913 183.075 64.9701 183.628 64.6354C185.134 63.7176 186.64 63.7824 187.43 64.7326C188.124 65.5748 187.853 66.5358 186.336 68.2095C185.968 67.9935 185.567 67.7128 185.144 67.5076C183.606 66.795 182.317 67.4752 182.263 69.1489C182.187 71.5568 182.317 73.9863 182.219 76.3942C182.154 77.9275 183.606 78.1542 184.581 79.2772C181.753 79.6983 179.262 79.4391 176.596 79.3096C178.579 77.8303 178.167 75.8111 178.178 73.8999C178.189 72.5178 178.189 71.1357 178.178 69.7535C178.167 68.1879 178.351 66.5034 175.61 66.3415Z" fill="#363263"/>
<path d="M198.568 54.9824C200.074 53.8594 200.236 52.4881 200.161 50.9656C200.085 49.3243 200.117 47.6831 200.15 46.0418C200.193 44.2818 200.236 42.5541 198.005 41.9818C200.345 39.2608 201.894 39.1528 204.083 41.4312C204.787 40.9884 205.469 40.4594 206.239 40.0922C207.322 39.5739 208.481 39.4984 209.337 40.4918C210.28 41.5715 209.662 42.5865 208.915 43.5043C208.763 43.6987 208.514 43.8067 208.221 44.0226C207.734 43.7203 207.279 43.31 206.748 43.1372C205.469 42.7377 204.256 43.5367 204.213 44.8648C204.148 47.2835 204.288 49.7022 204.169 52.1101C204.083 53.665 205.48 53.9026 206.683 55.0471C203.703 55.587 201.212 55.2523 198.568 54.9824Z" fill="#363263"/>
<path d="M140.692 17.6653C139.728 17.7949 138.883 17.9136 137.723 18.0648C137.691 19.3497 137.637 20.6887 137.615 22.0276C137.593 23.3233 137.604 24.619 137.626 25.9148C137.68 28.7654 137.821 28.895 140.79 28.8626C140.93 28.8626 141.071 29.0137 141.212 29.0893C140.204 31.0005 138.904 31.6376 136.629 31.2921C134.972 31.0437 134.094 30.2771 133.867 28.3767C133.628 26.3251 133.639 24.2519 133.585 22.1788C133.552 20.8938 133.574 19.6089 133.574 18.3563C132.881 17.9784 132.328 17.6761 131.537 17.2334C132.783 16.3372 133.802 15.6137 134.809 14.8903C135.784 14.1776 135.535 12.3528 137.398 12.1152C137.528 13.3678 137.637 14.5231 137.734 15.5273C138.644 16.4667 140.887 15.1818 140.692 17.6653Z" fill="#363263"/>
<path d="M155.329 60.6511C155.426 61.7417 155.524 62.8323 155.632 64.1064C156.282 64.1928 156.976 64.1712 157.572 64.3872C158.037 64.5491 158.395 65.0134 158.796 65.3482C158.373 65.6613 157.983 66.0932 157.507 66.2768C156.965 66.4711 156.347 66.4387 155.481 66.5467C155.481 69.5377 155.405 72.4423 155.513 75.3469C155.567 76.6642 156.098 77.6036 157.864 77.3769C158.276 77.3229 158.709 77.3661 159.186 77.3661C158.211 79.3853 156.553 80.1519 154.354 79.6876C152.523 79.3097 151.7 78.3055 151.667 76.1675C151.613 73.0686 151.656 69.9696 151.656 66.7411C150.941 66.4603 150.269 66.1904 149.641 65.9312C149.652 65.7045 149.63 65.5641 149.674 65.5425C151.732 64.236 153.66 62.7999 154.462 60.176C154.766 60.3272 155.047 60.4892 155.329 60.6511Z" fill="#363263"/>
<path d="M150.67 30.9357C147.908 30.9357 145.416 30.9357 142.924 30.9357C142.87 30.7629 142.761 30.4822 142.794 30.4606C144.235 29.5752 144.462 28.2255 144.408 26.6814C144.332 24.781 144.408 22.8806 144.365 20.991C144.332 19.5765 144.354 18.0756 141.981 18.0648C142.046 17.8812 142.111 17.6977 142.176 17.5141C142.805 17.039 143.39 16.4451 144.083 16.0996C146.358 14.9982 148.016 15.8836 148.308 18.3995C148.493 19.9328 148.428 21.4985 148.46 23.0533C148.482 24.0035 148.46 24.9537 148.46 25.904C148.471 28.9921 148.471 28.9921 150.67 30.9357Z" fill="#363263"/>
<path d="M148.103 11.3162C148.092 12.5471 147.225 13.5189 146.109 13.5621C144.885 13.6053 143.845 12.5579 143.856 11.2946C143.877 9.97723 144.885 8.99464 146.131 9.05942C147.279 9.12421 148.113 10.0852 148.103 11.3162Z" fill="#363263"/>
</g>
<defs>
<clipPath id="clip0">
<rect width="226" height="85" fill="white"/>
</clipPath>
</defs>
</svg>
