<svg width="178" height="85" viewBox="0 0 178 85" fill="none" xmlns="http://www.w3.org/2000/svg">
<g clip-path="url(#clip0)">
<path d="M-1.48604e-07 40.8217C0.0314153 18.4764 18.9959 0.982807 40.6307 1.58928C59.8779 2.13301 79.1984 17.6294 79.0413 41.2817C78.8947 64.5263 59.9826 80.6501 39.4159 80.535C17.4356 80.42 -0.136134 62.6964 -1.48604e-07 40.8217ZM60.4852 62.801C55.9405 63.512 52.2649 61.9645 48.7254 60.2705C46.1493 61.2848 43.7303 62.3932 40.9762 62.1632C41.1438 52.5224 50.8407 42.9861 60.035 43.3312C59.4171 50.2115 56.0138 55.3665 50.4742 59.2772C52.579 60.9711 52.7361 61.0025 54.4011 59.6327C60.8832 54.2999 64.9567 44.3768 61.7 34.6942C61.0402 32.7284 61.0926 31.0763 61.8885 29.1837C63.4907 25.388 63.5954 21.4251 62.8519 17.2634C58.349 16.2701 54.2231 17.117 50.0134 18.9155C51.5528 20.4108 52.9979 20.9336 54.9456 20.2853C56.7573 19.6788 58.6841 19.5534 60.6633 20.0448C60.9879 23.6209 60.5062 26.9879 58.8307 30.062C58.0662 31.4632 58.0034 32.6134 58.6213 34.0564C59.3648 35.7817 60.0873 37.5802 59.7836 39.5564C50.4113 39.6087 40.0861 29.2778 41.2171 20.8604C47.9295 21.5924 53.0921 24.8547 56.9039 30.3862C58.6841 28.1903 58.7469 28.0858 57.1552 26.3082C50.715 19.1456 42.7669 16.5524 33.3632 18.8319C31.2165 19.3547 29.3839 19.5952 27.1744 18.5914C23.3312 16.8347 19.1844 16.406 14.9119 17.5666C14.3255 22.0315 14.7024 26.2141 16.713 30.3548C18.6294 28.0126 18.5456 28.0335 18.1058 25.7122C17.7183 23.715 17.0481 21.676 17.8126 19.6788C21.5824 19.0933 24.3889 19.8043 30.1693 22.7321C32.4941 22.042 34.7246 20.7872 37.3006 20.9963C37.9289 29.7902 27.4152 40.2466 18.5875 39.5355C19.132 32.5297 22.8181 27.4688 28.4624 23.6104C26.2843 21.8433 26.1377 21.8329 24.3051 23.3177C16.7444 29.4556 13.739 39.5878 16.7968 48.8731C17.1947 50.086 17.1214 51.048 16.5769 52.1878C14.849 55.837 14.5139 59.7268 14.8176 63.7107C14.9014 64.7877 15.2679 65.4465 16.4303 65.5197C20.1373 65.7288 23.7187 65.2792 27.3629 63.7421C25.9911 62.2677 24.6821 61.609 22.8181 62.1632C21.0588 62.686 19.2367 62.8219 17.3832 62.3095C16.9643 58.5975 17.844 55.2306 19.5299 52.0937C20.1583 50.9225 20.1897 50.0128 19.7184 48.8208C19.0273 47.0746 18.3047 45.2761 18.7655 43.3103C28.6509 43.7704 38.7981 54.1745 37.2273 62.2886C30.1274 61.7135 25.0486 57.8969 21.1007 52.1878C19.4357 54.6241 19.4357 54.6241 20.9018 56.4644C26.7764 63.8257 36.9865 66.994 46.0132 64.108C47.94 63.4911 49.5422 63.3866 51.4795 64.2126C55.1551 65.7706 59.0506 66.0529 63.0927 65.0491C63.5744 60.8875 63.2707 56.9872 61.5743 52.972C60.2653 54.4777 59.4799 55.7011 59.9826 57.6146C60.4015 59.2458 60.3282 61.013 60.4852 62.801ZM71.2503 40.9471C69.1035 38.1762 66.695 36.1581 63.4488 34.872C63.3022 36.6077 63.8467 37.6011 65.1766 38.3644C66.3599 39.0441 67.5642 39.8283 68.2134 41.3968C67.0929 42.3378 66.0877 43.3312 64.9253 44.105C63.7106 44.9206 63.3859 45.893 63.7315 47.3987C66.8626 45.9139 69.3444 43.9377 71.2503 40.9471ZM38.8086 9.65116C36.0754 11.6692 34.1067 14.0638 32.7873 17.2111C34.5256 17.4725 35.4262 16.8242 36.2011 15.6845C36.9655 14.5552 37.6357 13.2482 39.2589 12.7044C40.0861 13.6664 40.9972 14.5343 41.6778 15.5486C42.5051 16.772 43.4581 17.3993 45.144 17.0229C43.7408 13.886 41.6674 11.5229 38.8086 9.65116ZM7.74915 41.2608C9.77021 43.624 11.8332 45.6211 14.7024 46.8655C14.9328 45.1924 14.5349 44.1782 13.2887 43.4148C12.3986 42.8711 11.6761 42.0241 10.6498 41.104C11.8122 40.1002 12.7651 39.1905 13.8228 38.4062C14.9119 37.6011 15.0794 36.66 14.6815 35.3111C11.7599 36.6182 9.69691 38.5944 7.74915 41.2608ZM39.018 69.3049C36.9236 68.4056 36.4943 65.1537 33.3213 65.9065C34.5884 68.7298 36.5885 70.7165 39.0704 72.4627C41.3637 70.6328 43.2486 68.667 44.4529 66.0111C41.3846 65.2582 40.9239 68.2801 39.018 69.3049Z" fill="#363263"/>
<path d="M100.079 31.7875C101.367 28.201 102.655 24.6144 103.954 20.9756C105.713 20.9756 107.326 20.9756 108.938 20.9756C107.629 22.0108 107.713 23.3074 107.807 24.6458C108.048 28.065 108.153 31.4843 108.509 34.8931C108.624 35.991 109.357 37.0157 109.923 38.3332C107.923 38.5842 105.692 38.3541 103.284 38.26C105.221 36.8589 104.97 34.9976 104.812 33.1155C104.645 31.066 104.561 29.0166 104.446 26.9567C104.247 26.9253 104.058 26.9044 103.86 26.873C103.095 28.9643 102.331 31.0451 101.566 33.1364C101.2 34.1611 100.854 35.1858 100.477 36.2001C100.173 37.0262 100.121 38.0613 98.8016 38.03C97.6078 37.9986 97.5974 37.0157 97.3356 36.2942C96.4036 33.7951 95.5449 31.2647 94.6338 28.7552C94.4453 28.2428 94.1731 27.7618 93.6914 27.2913C93.1678 30.1668 92.885 33.0318 93.0421 35.8969C93.084 36.6184 93.9951 37.2876 94.4872 37.9672C93.1783 38.511 92.2777 38.5633 89.377 38.2391C92.173 33.701 91.1677 28.546 91.7331 23.642C91.775 23.2656 91.3457 22.7846 91.0315 22.4395C90.7802 22.1572 90.3823 22.0212 89.9948 21.7808C92.7803 19.7313 94.8433 20.1182 96.1104 22.9519C97.0947 25.1582 97.8801 27.4586 98.7597 29.7067C99.0215 30.3864 99.2938 31.066 99.5556 31.7457C99.7336 31.7771 99.9116 31.7875 100.079 31.7875Z" fill="#363263"/>
<path d="M171.968 29.3196C172.921 28.2217 173.79 27.8557 174.827 28.4936C175.738 29.0478 175.916 30.0202 175.686 30.9299C175.361 32.2056 174.817 33.4185 174.303 34.8406C174.848 36.4509 176.702 35.8967 178 36.4195C176.366 39.0964 174.953 39.3055 171.35 37.4756C169.256 38.5317 167.067 39.1591 164.628 38.584C162.502 38.0821 160.92 37.0469 160.407 34.8302C159.905 32.6134 160.805 30.9299 162.617 29.6647C163.015 29.3824 163.413 29.1001 163.874 28.7655C163.507 27.9499 163.12 27.2284 162.847 26.4546C161.915 23.7464 163.203 21.3205 165.989 20.7036C167.015 20.4735 168.146 20.5154 169.204 20.6618C170.638 20.85 171.696 21.676 172.021 23.1399C172.356 24.6456 171.926 25.9631 170.712 26.946C170.073 27.4689 169.371 27.9185 168.502 28.5354C169.151 29.3719 169.727 30.1562 170.356 30.909C170.994 31.6723 171.675 32.3938 172.419 33.2303C173.78 31.6619 172.722 30.5117 171.968 29.3196ZM165.025 30.2084C163.486 32.5507 163.517 34.1296 164.973 35.5935C166.324 36.9528 167.916 37.0783 169.905 35.9281C168.324 34.0773 166.764 32.2474 165.025 30.2084ZM167.507 27.0715C169.005 26.5173 169.727 25.4717 169.612 23.8614C169.528 22.6485 168.795 21.9374 167.759 22.0002C166.764 22.0629 165.957 22.9099 165.999 24.0287C166.062 25.2103 166.429 26.2873 167.507 27.0715Z" fill="#363263"/>
<path d="M165.675 64.6519C166.69 64.4846 167.56 64.495 168.303 64.1918C169.748 63.5853 170.513 61.5149 169.895 59.9779C168.848 57.4265 167.78 54.8856 166.628 52.3865C165.654 50.2743 165.465 50.2325 162.617 50.4625C162.617 52.9825 162.606 55.5443 162.627 58.1062C162.638 59.11 163.193 59.6328 164.209 59.6328C164.617 59.6328 165.036 59.6328 165.476 59.6328C164.858 61.2535 163.832 61.8705 162.104 61.7136C160.543 61.5777 159.559 60.8039 159.35 59.2877C159.172 57.9702 159.235 56.6214 159.203 55.2829C159.182 54.4464 159.203 53.6099 159.203 52.7734C159.193 50.7553 159.193 50.7553 157.716 49.511C158.554 48.8627 159.465 48.2876 160.208 47.5452C160.858 46.9074 161.329 46.0918 161.884 45.3494C162.051 45.4121 162.209 45.4644 162.376 45.5271C162.502 46.395 162.617 47.2524 162.784 48.434C163.915 48.434 165.13 48.4863 166.324 48.4235C168.209 48.3294 168.68 48.5072 169.465 50.222C170.471 52.4179 171.361 54.666 172.481 57.3219C173.56 54.551 175.34 52.3656 174.188 49.1869C174.733 48.9359 175.277 48.5281 175.874 48.434C177.11 48.2458 177.738 48.9464 177.571 50.222C177.518 50.6298 177.393 51.0481 177.225 51.4245C175.183 55.9103 173.214 60.417 171.057 64.8401C169.748 67.5169 168.387 67.6319 166.135 65.5407C165.968 65.4047 165.916 65.1329 165.675 64.6519Z" fill="#363263"/>
<path d="M155.182 37.5386C153.287 39.0443 151.653 38.8665 150.176 37.4863C149.894 37.549 149.716 37.549 149.569 37.6222C145.118 39.9749 141.223 37.7686 141.097 32.7286C141.066 31.432 141.307 30.0413 141.768 28.8284C142.668 26.4966 144.511 25.3046 147.045 25.3359C147.862 25.3464 148.679 25.4405 149.632 25.5032C149.768 23.5584 150.47 21.603 147.862 20.3482C148.7 19.7836 149.244 19.2608 149.894 19.0098C151.852 18.2465 153.025 18.9785 153.067 21.1011C153.14 25.2 153.088 29.2989 153.098 33.3978C153.119 35.9178 153.119 35.9178 155.182 37.5386ZM149.81 31.8398C149.81 31.3379 149.81 30.8465 149.81 30.3446C149.81 29.7695 149.789 29.1839 149.799 28.6088C149.81 27.6782 149.244 27.2913 148.438 27.124C147.265 26.873 146.03 27.3331 145.495 28.4624C144.448 30.6687 144.417 32.9691 145.433 35.1859C145.956 36.3256 147.119 36.6393 148.428 36.3465C149.695 36.0537 149.862 35.1545 149.831 34.0775C149.789 33.3351 149.81 32.5822 149.81 31.8398Z" fill="#363263"/>
<path d="M98.9482 61.1908C100.634 59.361 100.645 59.2041 99.032 56.2659C97.4612 56.2659 95.8171 56.2659 94.2464 56.2659C92.6023 59.4551 92.6023 59.5074 94.6967 61.264C92.7803 61.6823 91.0525 61.4209 88.6649 61.4418C91.1048 59.4969 91.6179 57.1442 92.4452 54.9484C93.8066 51.3723 95.1679 47.7962 96.6025 44.0528C97.2832 44.0214 97.9953 43.9901 98.8121 43.9482C100.027 47.357 101.2 50.6403 102.383 53.9236C102.802 55.1052 103.158 56.3077 103.671 57.4474C104.226 58.7022 104.928 59.8942 105.566 61.0967C104.383 61.5986 101.43 61.6823 98.9482 61.1908ZM97.0005 49.6783C96.8015 49.6679 96.5921 49.647 96.3931 49.6365C95.859 51.1632 95.325 52.6898 94.7385 54.3942C96.0999 54.3942 97.2204 54.3942 98.6236 54.3942C98.0372 52.7002 97.5136 51.1945 97.0005 49.6783Z" fill="#363263"/>
<path d="M131.369 83.3479C130.081 84.9896 128.709 84.9164 127.442 84.4772C126.144 84.0276 126.028 82.7414 126.018 81.5285C126.007 79.6882 126.06 77.8478 125.966 76.018C125.882 74.4181 125.306 73.8117 124.143 73.8117C122.499 73.8117 121.693 74.5541 121.641 76.1957C121.599 77.5342 121.62 78.8726 121.63 80.211C121.641 81.7272 121.724 83.212 123.442 84.0485C121.505 84.7595 119.285 84.7909 117.106 84.2158C118.363 82.5009 118.363 82.5009 118.373 79.9391C118.373 78.6843 118.353 77.4296 118.373 76.1748C118.394 74.8364 118.101 73.6967 116.583 73.3098C118.499 70.9466 119.735 70.863 121.63 72.766C122.824 72.3164 123.955 71.689 125.149 71.5008C127.62 71.093 129.034 72.2014 129.254 74.69C129.421 76.5199 129.348 78.3602 129.327 80.2005C129.327 81.6121 129.484 82.8878 131.369 83.3479Z" fill="#363263"/>
<path d="M102.184 80.6291C102.718 82.5636 101.545 83.2537 100.529 83.8915C96.9272 86.1397 91.7646 84.6549 90.0577 80.786C88.5183 77.3145 88.6335 73.7488 90.4032 70.3819C92.2567 66.8476 97.4298 65.4151 100.938 67.3182C101.912 67.8514 102.467 68.6148 102.341 69.7545C102.236 70.706 101.818 70.9884 99.786 71.5216C99.6184 71.0093 99.4614 70.476 99.2729 69.9532C98.5608 67.9455 96.7073 67.3704 95.147 68.8134C94.4454 69.4617 93.8799 70.4028 93.5867 71.3125C92.8117 73.6547 92.707 76.0806 93.2934 78.496C94.1312 81.9676 97.0005 83.2955 100.236 81.7375C100.823 81.4343 101.378 81.0788 102.184 80.6291Z" fill="#363263"/>
<path d="M121.201 60.7413C120.321 61.1386 119.756 61.5255 119.138 61.651C117.242 62.0378 115.996 61.1491 115.881 59.2146C115.756 57.1338 115.892 55.0321 115.776 52.9512C115.672 51.0377 114.331 50.2221 112.687 51.1005C112.143 51.3932 111.609 52.1879 111.567 52.7944C111.42 54.7079 111.368 56.6528 111.577 58.5559C111.682 59.476 112.457 60.323 113.001 61.3373C110.991 61.3373 108.991 61.3373 106.907 61.3373C108.928 58.0749 108.645 51.9683 106.477 50.0548C108.519 47.8694 109.493 47.8381 111.441 49.7307C112.666 49.2706 113.787 48.6537 114.991 48.4445C117.253 48.0367 118.761 49.1869 118.991 51.4769C119.169 53.2963 119.065 55.1471 119.106 56.9874C119.138 59.1414 119.159 59.1623 121.201 60.7413Z" fill="#363263"/>
<path d="M133.139 25.3044C136.615 25.3253 138.584 27.0297 138.992 30.5012C139.118 31.5573 139.097 32.6761 138.919 33.7322C138.396 36.8587 135.893 38.8663 132.73 38.835C129.547 38.8036 127.4 37.0365 126.814 33.8159C126.625 32.7703 126.573 31.6514 126.74 30.6058C127.316 26.9774 129.421 25.2835 133.139 25.3044ZM135.694 32.0906C135.495 30.8776 135.38 29.6333 135.086 28.4309C134.825 27.3643 134.06 26.7265 132.898 26.7474C131.872 26.7683 131.107 27.2702 130.783 28.2217C129.924 30.7417 129.976 33.2931 130.793 35.8131C131.097 36.7541 131.882 37.2874 132.908 37.277C134.05 37.2665 134.814 36.6496 135.076 35.5621C135.338 34.4433 135.484 33.2931 135.694 32.0906Z" fill="#363263"/>
<path d="M124.615 31.9546C124.604 37.9984 119.567 39.7551 115.818 38.3644C115.588 38.2808 115.358 38.1762 115.138 38.0612C112.645 36.7646 111.514 33.4917 112.321 29.9156C112.939 27.1761 114.981 25.4717 117.818 25.3253C122.269 25.1057 124.657 27.427 124.615 31.9546ZM115.64 31.8814C115.818 33.1258 115.902 34.3805 116.195 35.583C116.457 36.6391 117.243 37.2874 118.394 37.2874C119.536 37.2874 120.29 36.6705 120.583 35.583C121.222 33.2094 121.222 30.8149 120.593 28.4413C120.311 27.3747 119.546 26.7787 118.394 26.7578C117.211 26.7474 116.478 27.4166 116.195 28.4518C115.892 29.5497 115.818 30.7208 115.64 31.8814Z" fill="#363263"/>
<path d="M122.447 49.9396C122.782 49.6887 123.243 49.3227 123.725 48.9985C125.086 48.0784 125.945 48.1829 126.96 49.4795C127.62 50.3265 128.175 51.2467 128.96 52.4073C129.767 51.3617 130.406 50.4311 131.139 49.5841C132.73 47.7333 133.83 47.9738 134.908 50.5252C132.866 51.1212 131.181 52.2191 130.353 54.4359C131.61 56.3703 132.584 58.6289 135.076 59.5386C133.39 62.3513 131.557 62.4245 129.788 59.8418C129.233 59.0367 128.688 58.2211 127.955 57.1441C127.107 58.4093 126.489 59.4758 125.725 60.4169C124.185 62.32 122.834 62.1004 121.609 59.8209C122.583 59.2458 123.672 58.7962 124.489 58.0538C125.337 57.2905 125.924 56.2553 126.824 55.0737C125.442 53.432 124.122 51.8949 122.447 49.9396Z" fill="#363263"/>
<path d="M106.949 78.0255C107.106 80.2214 107.567 82.0931 109.619 82.3649C111.221 82.5845 112.928 81.9989 114.74 81.748C114.96 82.7204 114.269 83.306 113.504 83.8079C109.347 86.5684 104.153 84.2471 103.441 79.3117C102.676 74.0103 106.624 70.2355 111.556 71.553C113.745 72.1386 115.399 74.5331 114.97 76.7289C114.876 77.2099 114.216 77.7327 113.693 77.9523C113.19 78.1615 112.541 78.0151 111.954 78.0151C110.383 78.0255 108.802 78.0255 106.949 78.0255ZM107.148 76.2479C108.729 76.2479 110.143 76.2479 111.567 76.2479C111.535 73.7489 111.043 72.9228 109.724 72.8601C108.268 72.7869 107.514 73.7384 107.148 76.2479Z" fill="#363263"/>
<path d="M148.155 54.9798C148.679 59.6225 150.302 60.3126 155.967 58.3886C155.8 59.0578 155.81 59.6434 155.527 59.978C153.004 63.0312 146.93 62.2261 145.265 58.6186C144.281 56.4855 144.176 54.2479 145.066 52.0416C146.365 48.8001 150.25 47.3153 153.444 48.7792C155.255 49.6157 155.967 51.1319 156.114 52.9931C156.24 54.5302 155.884 54.9275 154.313 54.9694C152.313 55.0216 150.313 54.9798 148.155 54.9798ZM152.784 53.2754C152.574 50.5672 152.093 49.8248 150.731 49.8144C149.244 49.8039 148.449 50.9855 148.459 53.2754C149.841 53.2754 151.224 53.2754 152.784 53.2754Z" fill="#363263"/>
<path d="M145.087 78.0361C145.297 82.5951 147.579 83.5884 152.375 81.4972C153.108 82.1036 152.721 82.6892 152.26 83.1702C149.831 85.6797 143.726 85.7006 142.019 81.5181C141.233 79.5941 141.139 77.6074 141.736 75.6311C142.846 71.9609 147.014 70.2043 150.459 71.9086C152.082 72.7138 153.255 74.9201 153.035 76.7186C152.941 77.4819 152.585 77.9629 151.779 78.0047C151.192 78.0361 150.606 78.0361 150.019 78.0361C148.438 78.0361 146.857 78.0361 145.087 78.0361ZM149.496 76.3422C149.485 73.7072 148.993 72.8916 147.621 72.8602C146.092 72.8288 145.307 73.9372 145.234 76.3422C146.605 76.3422 147.977 76.3422 149.496 76.3422Z" fill="#363263"/>
<path d="M145.799 4.63225C145.778 4.92503 145.82 5.38511 145.694 5.79291C145.537 6.31573 145.118 6.77581 145.035 7.30908C144.605 9.82907 144.417 10.0487 141.767 10.5715C141.474 10.6342 141.192 10.7702 140.898 11.2407C141.736 11.3139 142.574 11.3348 143.401 11.4707C145.077 11.7321 145.893 12.4432 146.071 13.677C146.26 15.0573 145.653 16.2702 144.291 16.9603C142.469 17.8805 140.584 17.9432 138.741 17.044C137.296 16.333 137.202 15.4442 137.841 13.9907C138.511 12.4641 139.15 10.9479 138.197 9.11804C136.93 6.69216 138.898 4.2349 141.747 4.41266C143.024 4.46495 144.312 4.53814 145.799 4.63225ZM139.684 13.8443C139.621 15.601 139.736 15.8833 140.584 16.1552C141.904 16.5944 142.909 16.1447 143.789 14.6704C142.595 13.3738 141.118 13.8025 139.684 13.8443ZM143.035 7.56004C142.375 6.82809 141.987 5.99158 141.495 5.92884C140.469 5.80336 140.49 6.77581 140.5 7.50776C140.511 8.21879 140.354 9.26443 141.338 9.2226C141.862 9.21215 142.343 8.28153 143.035 7.56004Z" fill="#363263"/>
<path d="M151.8 13.6143C149.705 13.6143 148.323 13.6143 146.878 13.6143C148.061 10.6969 147.904 3.09514 146.616 1.10842C147.391 -0.104519 148.522 0.167347 149.894 0.397388C150.04 1.92402 150.197 3.45065 150.344 4.95637C150.616 4.96683 150.784 5.01911 150.93 4.97729C154.271 4.02576 155.423 4.8309 155.517 8.25014C155.527 8.75204 155.454 9.26441 155.538 9.75586C155.726 10.8956 155.999 12.0249 156.25 13.2692C154.114 14.4612 153.035 13.928 152.962 11.408C152.93 10.2369 152.983 9.06573 152.93 7.90508C152.899 7.06856 152.522 6.39936 151.569 6.50392C150.784 6.59803 150.082 6.97446 150.208 7.9469C150.417 9.75586 149.381 11.8053 151.8 13.6143Z" fill="#363263"/>
<path d="M116.028 0.763317C117.127 0.501907 118.091 0.282323 119.316 0C119.525 1.07701 119.724 1.85078 119.808 2.64547C119.881 3.38787 119.829 4.13027 119.829 5.10272C120.604 4.90405 121.19 4.72629 121.787 4.60081C123.547 4.22438 124.74 5.02952 124.971 6.81757C125.075 7.64362 125.013 8.48013 125.023 9.31664C125.034 10.7073 124.782 12.1712 126.395 13.0078C123.777 14.4926 122.562 13.8965 122.468 11.272C122.437 10.2682 122.489 9.26436 122.447 8.27101C122.363 6.3784 122.185 6.28429 120.101 6.93259C119.525 9.92312 119.672 11.5543 120.709 13.6351C119.284 13.6351 117.913 13.6351 116.478 13.6351C117.766 10.6446 117.588 3.05327 116.028 0.763317Z" fill="#363263"/>
<path d="M90.4346 1.24438C93.1992 1.38032 95.4506 1.36986 97.6707 1.64173C99.5765 1.88222 100.529 2.95923 100.676 4.4545C100.823 5.9393 99.8174 7.63324 98.2571 8.18743C97.189 8.56386 96.0161 8.68933 94.7909 8.95074C94.6338 10.5506 94.2883 12.1504 96.0371 13.6352C94.0265 13.6352 92.4766 13.6352 90.6441 13.6352C92.3196 11.7321 91.796 9.61995 91.7645 7.62278C91.7331 5.62561 92.4138 3.49251 90.4346 1.24438ZM94.8118 2.84421C94.8118 4.41267 94.8118 5.79291 94.8118 7.17316C97.1052 7.04768 97.6811 6.57714 97.6602 4.91458C97.6392 3.36703 97.1575 2.9906 94.8118 2.84421Z" fill="#363263"/>
<path d="M154.564 73.1426C156.627 70.999 157.59 70.9363 159.664 72.5988C160.502 72.212 161.287 71.6473 162.135 71.5218C162.764 71.4277 163.758 71.71 164.083 72.1701C164.387 72.6093 164.072 73.519 163.947 74.1987C163.884 74.5124 163.612 74.7738 163.413 75.1084C162.879 74.7947 162.627 74.6065 162.345 74.4705C160.858 73.7909 159.821 74.2823 159.727 75.8403C159.622 77.7538 159.538 79.6987 159.769 81.5913C159.873 82.5115 160.69 83.348 161.277 84.3727C159.371 84.8433 157.339 84.4982 154.983 84.5191C157.13 81.7168 156.114 78.6845 156.313 75.788C156.407 74.5019 155.653 73.6968 154.564 73.1426Z" fill="#363263"/>
<path d="M132.416 72.7555C133.757 71.3857 135.107 70.0055 136.71 68.3743C136.919 69.4513 137.118 70.4237 137.296 71.3439C138.019 72.0445 139.485 71.1975 139.83 72.8601C138.982 73.0901 138.165 73.3097 137.108 73.592C137.108 75.9761 137.013 78.3915 137.139 80.786C137.233 82.5113 137.61 82.6786 140.123 82.7727C139.275 84.4562 138.008 85.0731 136.165 84.7072C134.636 84.4039 133.956 83.5465 133.893 81.6016C133.83 79.594 133.893 77.5864 133.872 75.5892C133.84 73.7175 133.83 73.7175 132.416 72.7555Z" fill="#363263"/>
<path d="M136.94 61.243C138.092 60.2287 138.071 58.9217 138.019 57.5832C137.966 56.3285 138.019 55.0737 138.008 53.8189C137.987 51.4349 137.987 51.4349 136.354 49.7932C136.898 49.4063 137.369 48.9463 137.945 48.6953C139.778 47.9006 141.129 48.6326 141.359 50.6088C141.506 51.9263 141.432 53.2752 141.443 54.6136C141.453 55.5338 141.474 56.4539 141.432 57.3741C141.37 58.8275 141.422 60.2078 142.94 61.243C140.94 61.243 138.94 61.243 136.94 61.243Z" fill="#363263"/>
<path d="M109.483 13.5306C107.2 13.6247 104.917 13.8652 102.645 13.7502C101.482 13.6875 100.865 12.5791 100.812 11.3871C100.749 10.1427 101.441 9.29578 102.561 8.92981C103.503 8.62657 104.519 8.55338 105.87 8.31288C105.682 7.73778 105.671 7.00583 105.305 6.69214C104.069 5.62559 103.011 6.88036 101.545 7.28815C101.755 6.59803 101.765 6.00202 102.069 5.66741C103.252 4.38128 104.739 4.04667 106.404 4.59041C107.954 5.10277 108.394 5.8138 108.436 7.87371C108.457 8.54292 108.478 9.21213 108.425 9.87088C108.321 11.0734 108.467 12.1713 109.755 12.8719C109.671 13.0915 109.577 13.311 109.483 13.5306ZM105.734 9.71404C104.519 9.87088 103.535 9.96499 103.503 11.157C103.483 11.9203 104.174 12.3281 104.907 12.1504C106.205 11.8471 105.839 10.8642 105.734 9.71404Z" fill="#363263"/>
<path d="M131.243 13.6769C129.882 13.6769 128.563 13.6769 127.086 13.6769C128.657 10.2053 127.83 6.66062 127.882 3.1891C127.892 2.49898 127.18 1.7984 126.782 1.056C127.62 -0.115119 128.772 0.20903 130.081 0.32405C131.17 4.66345 129.474 9.23289 131.243 13.6769Z" fill="#363263"/>
<path d="M113.892 11.8679C114.279 12.0038 114.572 12.1084 114.876 12.213C115.159 12.3071 115.452 12.3803 115.892 12.5057C115.106 13.8232 114.07 14.0846 112.813 13.8232C111.588 13.5618 111.295 12.5998 111.19 11.5647C111.085 10.5713 111.148 9.55703 111.033 8.56367C110.918 7.53894 110.687 6.52468 110.478 5.32219C111.242 4.51705 112.174 3.52369 113.337 2.30029C113.567 3.11589 113.598 3.88966 113.975 4.39157C114.3 4.82028 115.033 4.9353 115.965 5.36402C115.033 5.90775 114.457 6.24235 113.892 6.57696C113.892 8.32317 113.892 10.0589 113.892 11.8679Z" fill="#363263"/>
<path d="M162.962 12.5268C161.999 13.9279 160.847 14.1684 159.549 13.7083C158.407 13.3005 158.313 12.2026 158.24 11.2197C158.156 10.2264 158.313 9.21209 158.198 8.22919C158.093 7.32994 157.758 6.4516 157.569 5.73011C158.481 4.80995 159.475 3.78522 160.481 2.7605C160.575 3.84796 161.015 4.98771 162.743 5.02954C162.732 5.19684 162.732 5.35368 162.722 5.52099C162.093 5.8765 161.465 6.24248 160.701 6.68165C160.701 7.68546 160.69 8.76247 160.701 9.83948C160.732 11.8785 160.732 11.8785 162.962 12.5268Z" fill="#363263"/>
<path d="M132.175 5.58372C132.982 4.85177 133.715 4.11982 134.846 4.66356C135.956 5.19683 135.903 6.24247 135.893 7.24628C135.882 8.23964 135.809 9.24345 135.914 10.2264C136.018 11.2929 136.301 12.349 136.542 13.5724C135.432 13.5724 134.081 13.5724 132.657 13.5724C133.453 10.9583 134.102 8.29192 132.175 5.58372Z" fill="#363263"/>
<path d="M141.275 44.6488C141.286 45.7468 140.49 46.531 139.39 46.4996C138.301 46.4787 137.485 45.6422 137.568 44.5861C137.652 43.5195 138.291 42.9444 139.328 42.8503C140.396 42.7562 141.265 43.5823 141.275 44.6488Z" fill="#363263"/>
<path d="M134.542 0.11499C135.118 1.12926 135.683 1.68345 135.704 2.25855C135.736 3.13689 134.95 3.58651 134.165 3.31465C133.694 3.14734 133.044 2.43631 133.097 2.04942C133.16 1.49523 133.809 1.0247 134.542 0.11499Z" fill="#363263"/>
<path d="M164.313 12.9868C164.921 13.06 165.518 13.1227 166.491 13.2378C165.476 14.3566 164.847 14.2416 164.219 13.6874C164.251 13.4574 164.282 13.2273 164.313 12.9868Z" fill="#363263"/>
<path d="M25.7607 41.2923C31.9495 38.5213 36.4315 34.1401 39.2693 27.448C42.1177 34.1087 46.5263 38.5736 53.2806 41.4596C46.5472 44.4187 42.1386 48.8941 39.4055 55.1156C34.557 47.7334 36.2953 48.1935 25.7607 41.2923Z" fill="#363263"/>
</g>
<defs>
<clipPath id="clip0">
<rect width="178" height="85" fill="white"/>
</clipPath>
</defs>
</svg>
