<svg width="226" height="85" viewBox="0 0 226 85" fill="none" xmlns="http://www.w3.org/2000/svg">
<g clip-path="url(#clip0)">
<path d="M27.7339 33.1998C27.7339 28.2458 27.7077 23.2785 27.747 18.3245C27.7733 14.7708 28.9283 13.6215 32.459 13.5819C35.8191 13.5422 39.1661 13.5819 42.5262 13.5687C52.974 13.5422 59.4317 20.2533 60.5998 30.4255C61.0067 34.0056 60.7836 37.5989 59.6811 41.0601C57.371 48.3656 51.609 52.8044 43.7206 53.1611C39.8486 53.3329 35.9635 53.2668 32.0915 53.1876C28.9808 53.1347 27.7733 51.8401 27.747 48.6959C27.7077 43.5437 27.7339 38.3784 27.7339 33.1998ZM36.6067 45.2743C38.8511 45.2743 40.9118 45.2347 42.9725 45.2875C46.6738 45.38 49.207 43.5569 50.6246 40.2939C52.6327 35.6173 52.5671 30.8483 50.4539 26.2113C49.3514 23.7937 47.4482 21.9971 44.7706 21.7197C42.1062 21.4422 39.4024 21.6536 36.6067 21.6536C36.6067 29.6329 36.6067 37.2687 36.6067 45.2743Z" fill="#363263"/>
<path d="M8.72837 21.5345C8.72837 24.5201 8.72837 27.0037 8.72837 29.8572C11.9178 29.8572 14.9235 29.844 17.9293 29.8572C21.2368 29.8837 23.0875 31.2179 23.14 33.5827C23.1925 36.0399 21.1975 37.5327 17.798 37.5591C14.871 37.5723 11.9441 37.5591 8.76775 37.5591C8.76775 40.1352 8.76775 42.4999 8.76775 45.2741C10.8809 45.2741 12.9416 45.2741 15.0023 45.2741C17.1024 45.2741 19.2024 45.1949 21.2894 45.3006C23.7307 45.4195 25.3845 47.1104 25.3451 49.2505C25.3188 51.2322 23.7307 52.8703 21.5125 53.1741C21.0006 53.2402 20.4625 53.2138 19.9374 53.2138C14.8973 53.2138 9.87028 53.2402 4.83014 53.2006C1.07628 53.1741 2.8098e-06 52.0776 -0.0131226 48.273C2.8098e-06 38.3649 2.8098e-06 28.4305 0.0131282 18.5093C0.0131282 14.6649 1.06316 13.6081 4.83014 13.5817C9.76528 13.5552 14.6873 13.5684 19.6224 13.5817C20.4493 13.5817 21.3156 13.5949 22.1031 13.8327C23.7569 14.3215 24.7151 15.669 24.7676 17.3467C24.8332 19.2226 23.9538 20.6494 22.1425 21.1778C21.1581 21.4684 20.0818 21.5081 19.0449 21.5081C15.6979 21.5477 12.351 21.5345 8.72837 21.5345Z" fill="#363263"/>
<path d="M82.8736 53.5311C70.5226 53.5046 61.8336 43.4249 62.8443 31.3371C63.4218 24.5336 68.5407 16.1051 77.5578 13.8857C83.4117 12.4458 89.0294 13.212 94.0301 16.8978C94.6995 17.3866 95.3689 17.9546 95.8677 18.6152C96.734 19.7513 96.7208 21.0063 95.7889 22.1028C94.857 23.1861 93.6364 23.371 92.3632 22.7237C91.8119 22.4463 91.3526 21.9707 90.8407 21.614C82.8342 15.9466 72.5439 19.2493 69.2888 28.5364C67.1625 34.6001 69.2101 41.5886 74.2108 45.314C79.1722 49.013 85.6168 48.9734 90.9325 45.2083C93.282 43.5438 94.7389 43.4381 95.8808 44.8648C97.0752 46.3444 96.5108 48.1675 94.2008 49.8585C90.6963 52.4346 86.8506 53.9142 82.8736 53.5311Z" fill="#363263"/>
<path d="M119.585 50.3076C114.204 55.3805 105.397 54.1652 101.197 49.515C96.4583 44.2703 96.3008 35.4456 101 30.082C105.712 24.7053 112.918 24.1504 119.572 28.7478C119.94 28.1533 120.189 27.3606 120.714 27.0304C121.541 26.5284 122.591 26.0396 123.497 26.1188C124.717 26.2377 125.439 27.2682 125.531 28.576C125.57 29.1045 125.57 29.6329 125.57 30.1613C125.57 36.4892 125.57 42.8172 125.57 49.1451C125.57 49.6735 125.584 50.2019 125.518 50.7304C125.36 52.025 124.625 53.0555 123.392 53.1215C122.486 53.1744 121.475 52.5931 120.662 52.0779C120.189 51.7872 120.005 51.0342 119.585 50.3076ZM103.362 39.5409C103.389 44.4421 106.814 47.9297 111.605 47.9297C116.343 47.9297 119.913 44.3232 119.913 39.5277C119.927 34.6529 116.225 31.1521 111.238 31.1653C107.103 31.1785 102.942 34.7851 103.362 39.5409Z" fill="#363263"/>
<path d="M151.427 41.9584C151.454 44.7194 152.963 46.2651 154.879 47.4408C157.334 48.9468 162.768 49.1054 165.183 46.4236C165.393 46.1858 165.616 45.9612 165.865 45.7631C167.44 44.5081 168.766 44.4288 169.764 45.5385C170.669 46.5425 170.485 48.1674 169.252 49.5149C165.747 53.3724 160.103 54.6275 154.407 52.844C149.235 51.2191 145.797 46.5029 145.56 41.2846C145.508 40.0164 145.482 38.7482 145.573 37.48C146.059 30.6236 152.097 25.4846 159.499 25.6167C166.443 25.7356 172.008 31.1256 172.218 37.9555C172.323 41.2582 171.745 41.9188 168.517 41.9452C163.896 41.9848 159.276 41.9584 154.656 41.9584C153.606 41.9584 152.569 41.9584 151.427 41.9584ZM166.325 37.295C166.062 33.3054 163.266 30.8086 159.224 30.7689C154.827 30.7161 151.834 33.1865 151.493 37.295C156.376 37.295 161.245 37.295 166.325 37.295Z" fill="#363263"/>
<path d="M209.888 3C211.948 6.64615 210.058 9.93562 210.216 13.4629C214.81 14.6386 219.561 15.8804 223 19.6191C222.619 21.31 221.359 21.3893 220.283 21.5478C215.492 22.2084 210.702 22.4065 205.911 21.6007C205.084 21.4554 204.27 21.2704 203.469 21.0194C199.177 19.6455 197.97 17.0562 199.991 13.0533C202.17 8.75987 205.478 5.53645 209.888 3Z" fill="#363263"/>
<path d="M197.826 46.7671C194.544 44.8252 193.888 41.3772 191.88 38.5897C187.404 40.1486 182.928 42.3812 177.678 40.9412C177.809 40.0297 177.914 39.2503 178.032 38.4576C177.521 38.0481 176.982 37.6253 176.405 37.1762C177.416 33.7546 180.343 31.9447 182.285 29.3158C181.34 28.0872 180.461 26.9643 179.463 25.6829C189.99 25.881 200.07 37.3479 197.826 46.7671Z" fill="#363263"/>
<path d="M135.257 29.765C137.068 26.9247 139.47 25.2337 142.87 25.6697C143.788 25.7886 144.825 25.9867 145.508 26.5416C146.138 27.0568 146.82 28.2061 146.663 28.8667C146.453 29.6989 145.534 30.5576 144.707 30.9936C144.051 31.3503 143.067 31.1653 142.227 31.1125C139.155 30.9407 137.121 32.5392 136.254 35.2739C135.48 37.7575 135.126 40.3996 134.876 43.0021C134.653 45.3008 134.876 47.6523 134.811 49.9642C134.758 51.9986 133.774 53.214 132.212 53.3065C130.545 53.4121 129.285 52.1307 129.259 49.9642C129.193 43.2003 129.206 36.4364 129.246 29.6857C129.259 27.4135 130.269 26.1453 131.897 26.0396C133.406 25.9471 134.194 26.7529 134.876 29.0384C134.942 29.2233 135.06 29.3819 135.257 29.765Z" fill="#363263"/>
<path d="M203.784 32.2352C204.467 37.2421 204.126 41.9451 201.645 46.4367C199.584 45.7498 198.836 44.4287 199.177 42.7245C200.516 36.0003 199.637 29.5534 197.143 23.2519C197.077 23.0802 197.156 22.8556 197.169 22.6574C201.514 20.7287 210.334 24.1503 213.222 28.9986C210.767 31.7993 206.974 30.7292 203.784 32.2352Z" fill="#363263"/>
<path d="M178.308 15.7484C178.321 15.6295 178.413 14.9425 178.544 14.031C182.193 13.5818 184.805 16.0786 187.982 17.2676C188.52 16.5674 189.058 15.8672 189.557 15.2067C189.898 15.2992 190.187 15.286 190.265 15.4049C191.237 16.8845 192.444 18.2716 193.074 19.8833C194.295 23.0274 192.26 26.2376 188.927 25.9206C185.343 25.5771 181.813 24.4278 178.308 23.4634C177.219 23.1596 174.987 18.0074 175.565 17.0826C175.985 16.4485 177.14 16.29 178.308 15.7484ZM187.181 21.7724C187.22 22.935 188.283 24.0447 189.373 24.0315C190.449 24.0315 191.578 22.8821 191.604 21.7724C191.644 20.5174 190.397 19.2756 189.202 19.3681C188.126 19.4473 187.155 20.6099 187.181 21.7724Z" fill="#363263"/>
<path d="M100.842 76.9667C99.8972 77.2177 99.4247 77.3894 98.9259 77.4687C96.7208 77.8518 94.9752 77.0327 93.8595 75.1304C92.7307 73.2413 92.8882 71.2861 94.122 69.4762C95.277 67.772 97.2458 67.1379 99.3984 67.6531C99.9759 67.7984 100.553 68.0098 101.131 68.0098C101.59 68.0098 102.05 67.7588 102.837 67.5078C103.546 71.5899 103.861 75.4739 102.535 79.1729C101.367 82.4095 96.5371 82.9511 94.437 80.2429C94.1351 79.8598 94.3058 79.0936 94.227 78.2877C98.834 80.2165 99.359 80.124 100.842 76.9667ZM98.1252 69.8197C96.5896 69.8329 95.3295 71.1143 95.382 72.6071C95.4214 73.9811 96.5896 75.1172 98.0071 75.17C99.6084 75.2361 100.829 74.1132 100.882 72.5543C100.921 70.9822 99.7397 69.8065 98.1252 69.8197Z" fill="#363263"/>
<path d="M155.207 68.2476C155.207 66.5434 155.142 65.2884 155.247 64.0334C155.286 63.6239 155.785 63.2408 156.074 62.8577C156.52 63.2144 157.098 63.4918 157.36 63.9542C157.596 64.3637 157.491 64.9846 157.491 65.4998C157.504 68.5515 157.518 71.6164 157.478 74.668C157.465 75.4739 157.268 76.2665 157.15 77.0459C155.824 77.1516 154.748 77.1252 153.711 77.3366C151.322 77.8254 149.432 77.2045 148.199 75.3946C147.109 73.8093 147.083 71.3257 148.133 69.714C149.301 67.9041 151.217 67.1776 153.619 67.6664C154.013 67.7324 154.381 67.9306 155.207 68.2476ZM152.451 69.8329C150.824 69.7669 149.655 70.8766 149.655 72.475C149.655 73.9282 150.679 75.0379 152.123 75.1436C153.737 75.2625 155.011 74.2189 155.102 72.6732C155.194 71.1804 154.013 69.899 152.451 69.8329Z" fill="#363263"/>
<path d="M35.281 78.103C32.7872 75.1173 32.2753 71.9468 31.1202 69.1065C30.9627 68.7366 31.5009 68.076 31.7765 67.4287C34.1522 68.6177 33.5747 71.2862 35.0316 72.7526C36.4885 71.3127 35.9504 68.6837 38.0767 67.4683C40.5311 68.4195 39.783 71.3919 41.5024 72.9111C42.0668 71.4051 42.5656 69.9123 43.1956 68.4856C43.3662 68.1025 43.9962 67.6665 44.3637 67.7061C44.7181 67.7458 45.335 68.4988 45.2563 68.7366C44.2456 71.7486 43.6419 74.9588 41.6074 77.6406C39.1924 76.161 39.6124 73.5056 38.1686 71.6297C37.276 73.6509 36.3966 75.6193 35.281 78.103Z" fill="#363263"/>
<path d="M114.847 77.0064C113.206 77.1649 112.117 77.1781 111.054 77.3895C108.796 77.8387 107.011 77.2706 105.79 75.5136C104.609 73.8094 104.412 71.9995 105.397 70.15C106.447 68.1816 108.127 67.2965 110.332 67.5211C110.936 67.5871 111.526 67.7985 112.511 68.0231C112.589 66.5963 112.603 65.2885 112.773 63.9938C112.826 63.5975 113.298 63.0162 113.653 62.9634C113.968 62.9106 114.703 63.439 114.716 63.7296C114.991 68.1948 114.873 72.6733 114.847 77.0064ZM112.537 72.4751C112.524 70.8106 111.369 69.7405 109.676 69.833C108.127 69.9122 107.195 70.9427 107.221 72.5412C107.247 74.2453 108.35 75.2494 110.069 75.1569C111.631 75.0776 112.55 74.0736 112.537 72.4751Z" fill="#363263"/>
<path d="M25.5551 77.5084C24.7282 75.5665 23.9144 73.6245 22.9694 71.3919C22.0244 73.6377 21.1844 75.5929 20.1081 78.1558C17.5092 75.2098 17.0761 72.0128 15.908 69.1989C15.7504 68.8026 16.223 68.1421 16.4592 67.4683C18.9268 68.5384 18.2968 71.2994 19.8062 72.7262C21.2894 71.2466 20.7118 68.6044 22.825 67.4815C25.2663 68.4195 24.4394 71.2994 26.2245 72.7922C26.9726 71.0088 27.6945 69.2782 28.5608 67.2041C29.2827 67.8778 30.1096 68.3931 30.044 68.6309C29.0858 71.6825 28.3771 74.8531 26.5395 77.5217C26.2114 77.4952 25.8832 77.5084 25.5551 77.5084Z" fill="#363263"/>
<path d="M8.21648 67.3757C9.03025 69.1063 9.84402 70.8237 10.6972 72.6468C12.4297 71.3918 11.6553 68.5119 14.0704 67.3889C14.3198 68.142 14.7792 68.7761 14.6348 69.1988C13.7029 72.0391 13.0466 75.0115 11.2091 77.6008C8.66274 76.3458 9.33213 73.4659 7.57333 71.7881C6.72018 73.7829 5.93266 75.6192 5.07951 77.614C4.41012 77.2706 3.87198 77.1781 3.75385 76.9007C2.6907 74.3906 1.64067 71.8542 0.721892 69.2781C0.564388 68.8157 1.06315 68.1155 1.26003 67.5211C1.50941 67.4946 1.74567 67.4814 1.99505 67.455C2.7957 69.1724 3.59635 70.8766 4.56762 72.9374C5.51265 70.8634 6.3133 69.1328 7.10082 67.4022C7.46833 67.4022 7.84897 67.3889 8.21648 67.3757Z" fill="#363263"/>
<path d="M70.2338 68.0892C70.7457 70.9691 70.7195 74.0208 70.2338 77.0064C68.6325 77.1914 67.3594 77.2971 66.0993 77.5084C63.9862 77.8387 62.398 77.0064 61.2167 75.3419C60.1798 73.8887 60.1929 71.1012 61.2298 69.6481C62.4374 67.9439 64.0912 67.2437 66.1518 67.5344C67.2806 67.6797 68.4356 67.8382 70.2338 68.0892ZM65.2856 75.1701C66.9394 75.2362 68.1206 74.1001 68.1075 72.4752C68.0944 70.9956 67.0312 69.8991 65.5349 69.8198C63.9599 69.7405 62.8836 70.6521 62.7392 72.1845C62.5949 73.8491 63.6711 75.1173 65.2856 75.1701Z" fill="#363263"/>
<path d="M199.086 68.1156C199.086 71.0616 199.387 74.1265 198.915 76.9404C197.327 77.1518 196.159 77.2575 195.017 77.482C192.93 77.8784 191.302 77.1121 190.055 75.5004C188.808 73.8623 188.808 71.2334 190.029 69.5688C191.25 67.9043 192.93 67.2305 194.99 67.5608C196.132 67.7193 197.274 67.8646 199.086 68.1156ZM196.802 72.3959C196.736 70.7446 195.568 69.7141 193.901 69.833C192.365 69.9519 191.525 70.9692 191.591 72.6073C191.657 74.3115 192.772 75.3023 194.452 75.1569C195.962 75.0381 196.854 73.9812 196.802 72.3959Z" fill="#363263"/>
<path d="M161.521 73.6243C163.647 77.0591 165.734 74.1131 167.926 74.4566C167.716 75.1568 167.703 75.8305 167.362 76.1872C165.918 77.7329 163.503 77.9971 161.586 76.927C159.644 75.8437 158.568 73.413 159.106 71.286C159.631 69.1855 161.481 67.6135 163.595 67.4681C165.813 67.3228 167.637 68.5514 168.425 70.7048C169.134 72.6467 168.609 73.5054 166.574 73.5979C165.025 73.6904 163.49 73.6243 161.521 73.6243ZM166.325 71.4049C164.093 69.1459 163.49 69.1723 161.56 71.4049C163.135 71.4049 164.5 71.4049 166.325 71.4049Z" fill="#363263"/>
<path d="M210.413 73.6245C212.592 77.0989 214.692 74.0605 216.91 74.4964C216.66 75.2098 216.621 75.8836 216.267 76.2138C214.298 78.0633 211.371 78.0237 209.481 76.1874C207.591 74.3775 207.486 70.956 209.245 69.0404C210.964 67.1645 213.865 66.821 215.729 68.4856C216.529 69.1989 217.146 70.3086 217.461 71.3391C217.894 72.8055 217.277 73.5056 215.729 73.5849C214.101 73.7038 212.473 73.6245 210.413 73.6245ZM210.4 71.3787C212.145 71.3787 213.484 71.3787 215.033 71.3787C213.222 69.1857 212.565 69.1725 210.4 71.3787Z" fill="#363263"/>
<path d="M52.5015 74.0075C54.2865 77.3102 56.6229 73.6508 58.5654 74.6284C57.4498 77.5216 54.6147 78.4331 52.0421 76.8214C50.1389 75.6324 49.2989 73.3866 49.8764 71.0483C50.3489 69.146 52.1471 67.64 54.1684 67.4814C56.2685 67.3097 58.0798 68.4062 58.9067 70.3482C59.8386 72.5411 59.2479 73.5319 56.9379 73.6112C55.586 73.664 54.234 73.6773 52.8821 73.7169C52.8165 73.7301 52.7509 73.8358 52.5015 74.0075ZM57.0954 71.405C54.7066 69.1592 54.0897 69.1856 52.3702 71.405C53.8928 71.405 55.2184 71.405 57.0954 71.405Z" fill="#363263"/>
<path d="M198.692 6.7915C199.44 11.9173 197.379 15.8805 195.962 20.5042C194.019 17.8489 192.431 15.6823 190.751 13.3704C192.707 10.6094 194.925 8.37679 198.692 6.7915Z" fill="#363263"/>
<path d="M139.221 72.6864C139.103 75.355 136.688 77.6272 134.036 77.5876C131.175 77.5347 129.009 75.1172 129.167 72.1712C129.324 69.3969 131.608 67.3493 134.404 67.4814C137.081 67.6135 139.352 70.0575 139.221 72.6864ZM136.793 72.4354C136.766 70.7973 135.624 69.7536 133.944 69.8329C132.435 69.9122 131.411 70.9426 131.385 72.4354C131.359 74.0471 132.514 75.2228 134.115 75.2228C135.769 75.2361 136.832 74.1264 136.793 72.4354Z" fill="#363263"/>
<path d="M83.5823 68.0098C84.8686 67.8381 86.0368 67.6795 87.1918 67.5078C89.2788 67.2172 91.1557 68.3004 91.3919 70.3349C91.6413 72.3958 91.4444 74.5227 91.3526 76.6232C91.3394 76.9006 90.8144 77.1516 90.1057 77.7857C89.83 76.6892 89.5544 75.9759 89.4888 75.2493C89.3838 74.0999 89.515 72.9242 89.3838 71.7881C89.2525 70.6652 88.6881 69.7668 87.3624 69.8593C86.1549 69.9386 85.4068 70.6255 85.3149 71.8409C85.223 72.9902 85.3543 74.166 85.2361 75.3153C85.1705 76.0419 84.8293 76.7421 84.6193 77.4555C84.3961 77.4687 84.1599 77.4819 83.9367 77.4951C83.6086 76.927 83.123 76.3854 82.9917 75.7777C82.5454 73.5187 82.9655 69.3837 83.5823 68.0098Z" fill="#363263"/>
<path d="M188.9 69.7405C187.732 69.9519 187.128 70.1633 186.525 70.1633C185.803 70.1633 185.081 69.833 184.385 69.8859C183.033 70.018 182.18 71.1145 182.167 72.5016C182.154 73.9283 182.941 74.9455 184.346 75.1305C184.95 75.2098 185.619 75.1437 186.183 74.9588C187.05 74.6681 187.968 74.3907 188.165 75.54C188.244 75.9628 187.483 76.7554 186.931 77.0593C184.753 78.235 182.036 77.3895 180.618 75.2098C179.201 73.0036 179.594 70.4275 181.642 68.6969C183.742 66.9135 186.013 67.0588 188.9 69.7405Z" fill="#363263"/>
<path d="M127.316 70.2954C125.794 70.8634 124.796 68.644 123.392 70.586C124.127 70.9691 124.77 71.3654 125.465 71.6428C127.88 72.6072 128.747 74.1529 127.789 75.8703C126.857 77.5348 124.245 78.1293 122.499 77.0064C121.436 76.3194 120.412 75.5136 121.528 73.9811C122.709 74.4964 123.772 75.0116 124.888 75.3815C125.124 75.4607 125.531 74.9852 126.384 74.4039C124.875 73.7962 123.759 73.4263 122.722 72.8979C121.331 72.1977 120.793 70.7577 121.292 69.4499C121.803 68.0892 123.602 67.1512 125.216 67.5211C126.607 67.8646 127.749 68.4855 127.316 70.2954Z" fill="#363263"/>
<path d="M74.3421 77.5216C72.5177 76.0288 73.3971 74.219 73.2264 72.6337C73.082 71.2201 73.6464 69.5688 71.7564 69.1857C72.3339 67.7061 72.7539 66.5039 73.2921 65.3546C73.4889 64.9318 74.0664 64.2713 74.2502 64.3374C74.749 64.5223 75.5234 65.0772 75.484 65.3942C75.274 67.0588 76.5865 67.6797 77.8466 68.8158C75.1559 69.6216 75.6677 71.6165 75.589 73.4395C75.5234 74.787 76.1665 76.3987 74.3421 77.5216Z" fill="#363263"/>
<path d="M202.078 67.6003C203.706 69.5555 206.501 65.5791 207.683 68.9082C207.368 69.1988 207.184 69.5158 206.921 69.6083C204.021 70.5727 203.784 70.8898 203.601 73.915C203.522 75.0776 203.299 76.2401 203.141 77.4026C202.787 77.5876 202.433 77.7593 202.091 77.9443C201.908 77.4555 201.606 76.9799 201.566 76.4779C201.356 73.5715 201.12 70.6652 202.078 67.6003Z" fill="#363263"/>
<path d="M141.019 68.0362C142.62 67.8249 143.775 67.521 144.917 67.5606C145.6 67.5871 146.243 68.1815 146.912 68.525C146.427 68.9346 145.98 69.6479 145.455 69.714C143.487 69.965 143.25 71.3785 143.106 72.8846C143.001 74.0339 143.093 75.1964 142.909 76.3325C142.857 76.7024 142.227 77.2177 141.859 77.2177C141.491 77.2177 140.822 76.6628 140.822 76.3325C140.717 73.479 140.245 70.5727 141.019 68.0362Z" fill="#363263"/>
<path d="M176.484 68.8422C175.696 70.4275 173.084 69.1857 172.809 71.3654C172.625 72.8186 172.585 74.2982 172.375 75.7646C172.297 76.3194 171.929 76.8346 171.601 77.5744C171.089 77.231 170.538 77.0592 170.499 76.795C169.934 73.8094 170.065 70.837 170.433 67.7061C172.599 67.825 174.423 67.9174 176.234 68.0627C176.339 68.076 176.418 68.6044 176.484 68.8422Z" fill="#363263"/>
<path d="M117.84 77.4951C116.711 74.2717 116.868 69.529 118.246 67.4021C120.123 69.4365 119.047 71.8277 119.231 73.9282C119.336 75.1039 119.835 76.676 117.84 77.4951Z" fill="#363263"/>
<path d="M79.9466 77.667C78.2272 75.3551 78.1616 70.0048 79.5791 67.6797C80.9047 67.7854 80.9179 68.8158 80.826 69.7273C80.5504 72.2638 81.6266 75.0248 79.9466 77.667Z" fill="#363263"/>
<path d="M212.933 37.9555C212.959 39.1841 211.817 40.2013 210.478 40.1881C209.087 40.1749 208.391 39.3426 208.208 38.1008C208.037 36.9515 209.297 35.6568 210.478 35.604C211.633 35.5643 212.907 36.7665 212.933 37.9555Z" fill="#363263"/>
<path d="M177.074 77.9708C176.549 77.1253 175.893 76.5176 175.959 76.042C176.037 75.54 176.786 74.8531 177.311 74.787C178.19 74.6945 178.964 75.3286 178.676 76.3194C178.531 76.8743 177.809 77.2574 177.074 77.9708Z" fill="#363263"/>
<path d="M49.0495 75.9893C48.262 76.663 47.6845 77.4821 47.3038 77.4028C46.6869 77.2707 46.2013 76.5309 45.6631 76.0553C46.1488 75.6061 46.595 74.8531 47.1201 74.8003C47.6188 74.7474 48.1832 75.4212 49.0495 75.9893Z" fill="#363263"/>
<path d="M118.207 66.4114C117.59 65.6187 116.855 65.0903 116.881 64.6147C116.908 64.0995 117.669 63.2276 118.089 63.254C118.601 63.2804 119.415 63.9938 119.493 64.509C119.559 64.9714 118.824 65.5527 118.207 66.4114Z" fill="#363263"/>
<path d="M79.881 66.3848C79.2247 65.6318 78.4766 65.143 78.4766 64.6675C78.4897 64.1522 79.2116 63.2671 79.6316 63.2539C80.1435 63.2539 80.9835 63.9409 81.0754 64.4429C81.1804 64.9052 80.4585 65.5262 79.881 66.3848Z" fill="#363263"/>
</g>
<defs>
<clipPath id="clip0">
<rect width="223" height="79" fill="white" transform="translate(0 3)"/>
</clipPath>
</defs>
</svg>
