<svg width="443" height="142" viewBox="0 0 443 142" fill="none" xmlns="http://www.w3.org/2000/svg">
<g clip-path="url(#clip0)">
<path d="M339.078 81.6673C334.821 81.6673 331.708 81.6673 328.123 81.6673C328.123 56.56 328.123 31.7275 328.123 6.69512C328.92 6.49526 329.692 6.14551 330.439 6.14551C339.601 6.24544 348.763 6.07056 357.901 6.62017C368.905 7.26972 376.648 13.5403 378.491 23.3584C380.383 33.5512 378.391 43.0195 367.312 49.3651C366.49 49.8397 365.693 50.3644 364.623 51.0139C370.026 61.1568 375.329 71.0748 381.08 81.8672C376.922 81.8672 374.009 81.8672 371.096 81.8672C368.606 81.8672 367.835 79.9685 366.913 78.1948C363.403 71.4745 359.867 64.7792 356.307 58.0839C355.386 56.3352 354.39 54.6114 353.419 52.8626C348.763 52.8626 344.257 52.8626 339.078 52.8626C339.078 62.4808 339.078 71.7743 339.078 81.6673ZM339.103 43.3693C343.759 43.3693 347.518 43.4442 351.253 43.3443C353.22 43.2943 355.212 43.0945 357.154 42.7447C363.727 41.5706 367.586 37.1237 367.959 30.4284C368.357 23.4333 364.847 18.0621 358.398 16.4882C352.199 14.9893 345.925 15.2641 339.352 15.9886C339.252 18.1121 339.128 19.8608 339.103 21.6346C339.103 28.5547 339.103 35.4748 339.103 43.3693Z" fill="#363263"/>
<path d="M10.432 52.7882C10.432 62.7312 10.432 72.0496 10.432 81.6179C6.77211 81.6179 3.70973 81.6179 0.224091 81.6179C0.224091 56.4106 0.224091 31.5781 0.224091 6.07108C11.3532 6.3209 22.333 5.0468 33.0887 7.04539C43.0726 8.91907 48.9733 15.4894 50.7659 25.6823C52.2846 34.3012 48.4006 43.2949 40.6824 48.3913C39.3878 49.2407 38.0682 50.0401 36.3254 51.1393C41.7281 61.1323 47.0064 70.8754 52.4091 80.9184C48.5998 82.6671 45.0146 81.9426 41.6036 81.5929C40.5081 81.468 39.3629 79.5443 38.6408 78.2203C34.9311 71.3751 31.3708 64.4799 27.7358 57.5848C26.9141 56.0109 26.0178 54.462 25.0717 52.7632C20.4657 52.7882 15.9593 52.7882 10.432 52.7882ZM10.8553 42.4954C15.3617 43.4947 26.3166 43.5447 29.9516 42.6203C36.1013 41.0464 39.5122 36.6495 39.6367 30.0292C39.7861 23.0091 36.6739 18.2375 30.35 16.5387C23.9762 14.8399 17.478 15.4145 10.8553 15.8142C10.8553 25.1077 10.8553 33.8265 10.8553 42.4954Z" fill="#363263"/>
<path d="M47.579 96.1323C57.8865 89.6618 69.6879 88.3378 81.6636 86.664C81.4395 84.0408 79.2983 82.9666 77.9289 81.5176C62.7166 65.379 60.1771 40.5714 71.854 21.6847C78.7755 10.4676 90.0042 2.52322 103.349 0C101.382 1.32407 100.436 2.04856 99.4154 2.62315C68.7916 20.1108 67.9451 63.2804 97.8469 81.9423C101.83 84.4155 105.939 85.7646 110.769 85.7146C119.308 85.6397 127.898 85.8645 136.413 86.564C149.982 87.6882 163.402 87.2635 176.797 84.7653C177.27 84.6654 177.817 85.0151 179.834 85.5647C176.05 87.2136 173.51 88.6376 170.821 89.412C157.202 93.3343 143.235 95.4578 129.093 95.5827C116.57 95.6826 104.071 94.8332 91.5478 94.4835C84.2031 94.2836 76.8335 93.9089 69.4887 94.1837C62.1191 94.4835 54.849 95.4578 47.579 96.1323Z" fill="#363263"/>
<path d="M238.717 9.86832C238.717 13.6407 238.717 16.8134 238.717 20.0611C233.239 18.5372 228.036 16.5886 222.658 15.6892C213.072 14.0903 203.96 15.5893 196.466 22.4594C187.303 30.8535 184.789 45.6681 190.416 57.21C195.968 68.577 207.918 74.5228 221.363 72.4492C224.251 71.9996 227.065 71.1002 230.251 70.3257C230.251 62.7311 230.251 55.5861 230.251 47.9665C233.712 47.9665 236.725 47.9665 240.509 47.9665C240.509 52.913 240.509 57.8345 240.509 62.781C240.509 67.5527 240.509 72.3243 240.509 76.9211C221.587 87.6136 195.196 84.6906 182.996 66.4285C168.581 44.8187 177.593 11.742 207.645 5.57134C218.425 3.34791 228.484 5.42145 238.717 9.86832Z" fill="#363263"/>
<path d="M310.098 72.3243C310.098 75.8718 310.098 78.3951 310.098 81.7677C294.089 82.0675 278.328 81.8177 262.195 81.9426C262.195 56.5604 262.195 31.8778 262.195 7.22019C266.029 5.87114 296.603 5.37149 308.031 6.54566C308.18 7.7698 308.429 9.06888 308.504 10.393C308.579 11.767 308.529 13.166 308.529 15.2895C296.852 15.2895 285.424 15.2895 273.523 15.2895C273.523 23.2839 273.523 30.5288 273.523 38.5481C283.084 39.2976 292.769 38.4482 302.803 39.0728C302.803 42.0207 302.803 44.6938 302.803 48.0414C293.242 49.0907 283.532 47.8166 273.498 48.7909C273.498 56.5854 273.498 64.2051 273.498 72.3743C285.748 72.3243 297.624 72.3243 310.098 72.3243Z" fill="#363263"/>
<path d="M394.923 78.5699C394.923 74.9725 394.923 71.8497 394.923 68.0773C396.79 68.6519 398.259 69.0017 399.654 69.5263C405.853 71.9496 412.202 73.2737 418.874 72.749C420.244 72.6491 421.663 72.5492 422.982 72.1245C427.066 70.8753 430.95 69.2765 431.622 64.255C432.319 59.1086 430.327 55.1864 425.796 52.888C421.912 50.9144 417.754 49.4904 413.82 47.5917C409.911 45.7181 405.778 44.0193 402.342 41.4461C394.226 35.3753 392.209 24.6079 397.014 15.7392C399.529 11.0924 403.612 8.44431 408.417 6.67056C418.551 2.9232 428.335 4.79688 438.469 8.54424C438.469 11.792 438.469 15.0646 438.469 17.9376C432.02 16.9883 425.646 15.939 419.248 15.1646C417.53 14.9647 415.638 15.2145 413.97 15.7642C409.837 17.0882 406.152 19.1618 405.629 24.0583C405.106 28.6801 407.222 32.2775 411.131 34.5259C414.393 36.3996 417.953 37.7487 421.339 39.3725C425.622 41.4211 430.178 43.1199 434.112 45.6931C441.954 50.8395 444.693 59.2086 442.079 68.1772C440.361 74.148 436.502 78.2951 430.825 80.5185C418.551 85.3152 406.724 83.1667 394.923 78.5699Z" fill="#363263"/>
<path d="M84.4272 33.3766C86.2696 17.5378 101.382 3.44769 119.408 2.09864C136.687 0.824534 153.244 11.3671 159.269 27.6307C164.074 40.5965 162.132 60.1078 147.891 70.8752C155.41 58.6338 157.451 46.8671 152.422 34.6007C148.986 26.2067 143.16 19.7112 135.019 15.6391C125.707 10.9924 116.047 10.168 106.113 13.7904C96.2535 17.3879 89.5561 24.4079 84.4272 33.3766Z" fill="#363263"/>
<path d="M98.8926 25.7317C106.486 17.0878 124.437 16.0885 134.471 22.6588C145.849 30.1036 151.227 43.3942 147.866 57.1096C144.828 69.4509 132.753 79.5688 118.885 79.5688C122.271 77.795 124.811 76.7707 127.002 75.2718C129.442 73.598 131.857 71.7243 133.774 69.5009C135.691 67.2774 137.235 64.6293 138.455 61.9312C139.575 59.408 140.471 56.6349 140.695 53.9118C140.944 50.9889 140.596 47.9161 139.948 45.0431C139.301 42.1701 138.305 39.2472 136.861 36.674C129.89 24.2827 116.62 20.3105 98.8926 25.7317Z" fill="#363263"/>
<path d="M17.8515 123.838C18.5984 124.837 19.2706 125.586 19.7437 126.436C23.0799 132.207 20.5404 138.402 13.9177 139.626C9.71 140.401 5.30316 140.126 1.12039 140.326C-0.273868 135.279 -0.398355 115.344 0.896312 109.048C4.45664 109.048 8.26595 108.573 11.8761 109.148C19.4698 110.347 21.6608 115.768 17.8515 123.838ZM5.35295 135.28C7.768 135.28 9.88429 135.379 12.0006 135.255C14.6895 135.105 15.8099 133.381 15.8099 130.883C15.8099 128.334 14.6646 126.686 11.9508 126.611C9.83449 126.536 7.71821 126.586 5.35295 126.586C5.35295 129.733 5.35295 132.182 5.35295 135.28ZM5.27826 121.764C8.71411 121.464 12.0753 123.313 13.9675 120.065C14.6646 118.891 14.3658 116.318 13.4944 115.194C11.3781 112.546 8.34064 113.145 5.27826 113.695C5.27826 116.443 5.27826 118.766 5.27826 121.764Z" fill="#363263"/>
<path d="M287.839 121.889C292.669 121.889 296.603 121.889 301.408 121.889C301.408 118.617 301.309 115.494 301.433 112.371C301.558 109.473 301.657 109.498 305.965 109.373C305.965 119.441 305.965 129.484 305.965 139.677C303.226 140.451 301.408 140.251 301.408 137.004C301.408 133.831 301.408 130.683 301.408 127.111C296.852 127.111 292.769 127.111 288.138 127.111C287.939 131.208 287.765 135.305 287.59 139.302C282.959 140.176 282.636 140.151 282.586 136.979C282.437 128.784 282.536 120.59 282.511 112.396C282.511 110.372 282.984 108.798 285.499 108.948C287.715 109.098 287.864 110.697 287.864 112.371C287.839 115.344 287.839 118.317 287.839 121.889Z" fill="#363263"/>
<path d="M425.173 119.841C426.493 119.191 427.115 118.767 427.837 118.567C435.456 116.268 439.365 119.066 439.589 127.011C439.713 130.983 439.614 134.955 439.614 139.252C438.02 139.502 436.751 139.702 435.481 139.902C435.107 139.127 434.659 138.603 434.634 138.053C434.435 134.256 434.485 130.458 434.136 126.686C433.987 125.287 433.19 123.089 432.244 122.814C430.85 122.414 428.584 122.939 427.539 123.938C426.219 125.187 425.348 127.261 425.049 129.084C424.651 131.408 425.074 133.856 425.024 136.254C424.949 139.527 424.825 139.577 419.746 139.377C419.746 137.104 419.746 134.78 419.746 132.457C419.746 125.862 419.796 119.266 419.721 112.671C419.696 109.948 420.518 108.374 424.327 109.323C424.551 112.346 424.825 115.619 425.173 119.841Z" fill="#363263"/>
<path d="M62.2187 139.602C62.2187 129.309 62.2187 119.441 62.2187 109.423C65.057 108.574 66.8247 108.899 66.8496 112.071C66.8745 114.445 66.8496 116.793 66.8496 119.441C69.3144 118.867 71.3062 118.142 73.3478 117.967C78.2775 117.593 81.066 119.766 81.3648 124.613C81.6636 129.534 81.4395 134.506 81.4395 139.777C79.6718 139.777 78.4518 139.777 76.6343 139.777C76.6343 135.73 76.709 131.982 76.6094 128.235C76.5347 124.488 75.1404 122.339 72.9993 122.289C70.4597 122.239 67.4222 124.962 67.0737 128.035C66.75 130.983 66.8496 134.006 66.8247 136.979C66.8247 140.177 65.1815 140.676 62.2187 139.602Z" fill="#363263"/>
<path d="M236.152 140.326C231.92 139.552 228.807 139.477 225.521 140.351C221.811 141.325 218.599 138.802 217.803 135.405C217.056 132.207 218.998 128.634 222.633 127.46C225.048 126.686 227.687 126.586 230.202 126.211C229.604 121.814 229.604 121.814 219.894 122.913C218.699 120.615 219.421 118.741 221.811 118.442C224.923 118.042 228.185 117.992 231.247 118.516C234.31 119.041 235.903 121.714 236.077 124.662C236.351 129.609 236.152 134.555 236.152 140.326ZM230.849 130.208C228.135 130.708 226.168 130.783 224.45 131.507C223.629 131.832 223.305 133.356 222.757 134.305C223.878 134.93 225.073 136.154 226.119 136.054C228.658 135.779 230.326 134.131 230.849 130.208Z" fill="#363263"/>
<path d="M338.107 134.48C336.987 136.854 336.713 138.602 335.717 139.277C332.107 141.7 324.438 140.726 321.127 137.753C317.841 134.805 316.67 128.984 318.463 124.512C320.529 119.316 325.384 116.843 331.011 118.142C335.916 119.266 338.107 122.963 337.808 130.433C333.053 130.433 328.223 130.433 323.119 130.433C325.658 136.604 326.455 136.804 338.107 134.48ZM332.679 126.211C332.181 123.263 330.563 122.089 328.148 122.189C325.858 122.289 324.115 123.388 323.517 126.211C326.704 126.211 329.542 126.211 332.679 126.211Z" fill="#363263"/>
<path d="M360.316 126.261C357.627 119.765 353.17 123.038 349.41 123.188C347.966 120.215 349.012 118.591 352.025 118.216C354.166 117.967 356.357 117.942 358.523 118.042C362.183 118.216 364.598 120.44 365.146 123.837C365.967 129.084 365.743 134.405 365.121 140.351C361.013 138.702 357.577 139.926 354.041 140.426C350.556 140.9 347.767 138.477 347.045 135.279C346.423 132.481 347.892 129.384 350.879 127.935C352.274 127.26 353.867 126.985 355.411 126.71C356.755 126.461 358.125 126.436 360.316 126.261ZM359.569 130.433C357.577 130.708 355.585 130.658 353.917 131.357C353.045 131.732 352.747 133.431 352.174 134.53C353.319 135.08 354.614 136.254 355.61 136.054C358.025 135.529 359.892 134.055 359.569 130.433Z" fill="#363263"/>
<path d="M50.5418 130.309C45.9109 130.309 41.2302 130.309 36.425 130.309C37.7196 136.279 38.4914 136.529 49.7949 134.98C50.1683 136.754 50.7161 138.653 48.4504 139.427C43.9938 140.951 39.4624 141.301 35.2548 138.678C31.2214 136.154 30.3998 132.107 30.7483 127.71C31.2214 121.365 36.176 117.243 42.4999 117.917C48.4255 118.542 51.463 122.989 50.5418 130.309ZM45.5374 126.136C44.9897 123.139 43.2966 122.164 40.9812 122.189C38.5661 122.214 37.0972 123.463 36.5494 126.136C39.6367 126.136 42.4003 126.136 45.5374 126.136Z" fill="#363263"/>
<path d="M104.495 126.261C102.727 121.414 102.254 121.289 93.7886 123.363C92.5189 121.065 92.743 118.966 95.5315 118.516C98.5938 118.017 101.905 117.892 104.918 118.491C107.756 119.066 109.698 121.364 109.748 124.587C109.823 129.534 109.773 134.505 109.773 139.627C108.652 139.826 107.632 140.326 107.208 140.026C105.217 138.527 103.548 139.152 101.407 139.926C95.5813 142 90.9752 138.278 91.8715 132.607C92.4193 129.059 95.0335 127.66 98.0461 126.985C100.113 126.511 102.304 126.486 104.495 126.261ZM104.918 131.807C104.669 131.357 104.445 130.933 104.196 130.483C102.378 130.683 100.486 130.633 98.7681 131.183C97.1498 131.707 96.1041 133.306 97.2245 134.88C97.7971 135.679 99.9134 136.304 100.66 135.854C102.328 134.905 103.548 133.206 104.918 131.807Z" fill="#363263"/>
<path d="M186.731 129.234C186.656 135.979 182.125 140.551 175.552 140.501C169.004 140.451 164.423 135.704 164.497 129.059C164.572 122.339 169.103 117.817 175.726 117.842C182.274 117.867 186.805 122.539 186.731 129.234ZM181.776 129.559C181.95 125.487 179.386 122.314 175.801 122.164C172.539 122.014 169.751 124.912 169.576 128.684C169.377 132.656 172.091 136.054 175.527 136.104C178.838 136.154 181.627 133.256 181.776 129.559Z" fill="#363263"/>
<path d="M128.869 131.832C130.761 127.535 132.28 124.538 133.376 121.415C134.471 118.292 136.239 117.393 139.774 118.916C136.538 126.286 133.6 133.681 129.367 142C123.666 134.181 121.699 126.211 118.014 118.941C121.624 117.343 123.417 118.317 124.512 121.365C125.632 124.538 127.077 127.585 128.869 131.832Z" fill="#363263"/>
<path d="M410.21 135.729C409.413 137.603 409.239 139.227 408.392 139.751C404.21 142.325 398.732 139.876 397.861 135.005C397.413 132.482 397.537 129.858 397.463 127.26C397.413 125.312 397.786 123.313 395.272 122.289C394.749 122.089 394.774 118.966 394.948 118.941C398.633 118.092 396.815 114.494 398.085 112.596C402.143 112.396 402.143 112.396 403.089 117.317C404.484 119.216 408.965 116.368 408.517 121.389C406.799 121.789 405.006 122.189 402.591 122.738C402.591 125.087 402.566 127.435 402.591 129.783C402.666 135.979 402.84 136.129 410.21 135.729Z" fill="#363263"/>
<path d="M377.594 109.598C381.329 108.249 382.449 109.598 382.424 112.696C382.375 118.667 382.375 124.637 382.449 130.608C382.474 132.907 381.802 135.555 385.313 136.229C385.786 136.329 386.408 137.903 386.209 138.628C386.035 139.352 385.039 140.201 384.242 140.401C380.931 141.251 377.769 139.477 377.669 136.229C377.42 127.311 377.594 118.417 377.594 109.598Z" fill="#363263"/>
<path d="M248.476 109.373C252.51 108.449 253.307 110.047 253.282 112.745C253.232 119.89 253.257 127.035 253.257 133.831C253.655 134.53 253.755 134.98 254.053 135.18C255.497 136.204 258.361 136.429 256.917 139.202C255.746 141.425 253.306 140.901 251.688 140.026C250.319 139.302 248.651 137.553 248.626 136.229C248.352 127.285 248.476 118.392 248.476 109.373Z" fill="#363263"/>
<path d="M202.117 139.852C200.574 139.852 199.304 139.852 197.711 139.852C197.711 132.632 197.711 125.762 197.711 118.891C201.271 118.567 204.607 118.167 207.943 118.042C208.616 118.017 209.587 118.941 209.935 119.666C210.209 120.19 209.836 121.664 209.487 121.764C200.524 124.363 203.063 131.857 202.466 138.028C202.491 138.403 202.366 138.777 202.117 139.852Z" fill="#363263"/>
<path d="M153.094 118.592C153.094 125.787 153.094 132.657 153.094 139.752C150.455 140.376 148.438 140.451 148.414 137.179C148.364 131.807 148.389 126.436 148.414 121.065C148.414 118.167 150.181 117.892 153.094 118.592Z" fill="#363263"/>
<path d="M150.804 117.067C149.559 114.844 148.389 113.67 148.289 112.445C148.165 110.522 149.808 109.622 151.476 110.147C152.472 110.472 153.866 111.971 153.767 112.745C153.592 113.944 152.298 115.019 150.804 117.067Z" fill="#363263"/>
</g>
<defs>
<clipPath id="clip0">
<rect width="443" height="142" fill="white"/>
</clipPath>
</defs>
</svg>
