<svg width="159" height="156" viewBox="0 0 159 156" fill="none" xmlns="http://www.w3.org/2000/svg">
<g clip-path="url(#clip0)">
<path d="M0 116.475C0.0983573 115.006 0.819644 115.006 1.53 115.028C3.62829 115.094 5.71565 115.238 7.81394 115.238C50.6321 115.26 93.4503 115.282 136.258 115.282C142.979 115.282 149.711 115.127 156.432 115.061C157.295 115.05 158.399 114.674 158.672 116.42C157.831 116.497 157.098 116.63 156.366 116.63C151.208 116.63 146.061 116.63 140.902 116.553C138.957 116.519 137.044 116.409 135.602 118.332C135.678 117.834 135.744 117.326 135.831 116.718C134.028 116.718 132.247 116.718 130.17 116.718C130.684 120.475 129.668 123.779 127.602 127.525C132.815 124.332 137.82 123.05 143.503 124.022C143.241 124.685 143.121 125.282 142.793 125.724C140.64 128.597 138.17 131.017 134.378 131.448C132.159 131.702 129.996 131.691 128.214 130.077C127.449 129.392 126.793 129.613 126.094 130.044C124.914 130.763 123.744 131.503 122.061 132.553C123.078 130.033 125.996 129.205 125.427 126.442C125.209 126.796 125.012 127.094 124.794 127.426C123.329 124.851 123.733 123.017 127.121 116.696C95.1115 116.696 63.1891 116.696 31.0044 116.696C31.3104 117.216 31.5071 117.647 31.8022 118.011C33.2885 119.856 33.9005 122.055 34.2283 124.343C34.4797 126.055 34.3048 126.365 32.6437 127.945C33.9442 129.37 35.2447 130.796 36.5452 132.21C36.4468 132.332 36.3594 132.453 36.2611 132.575C34.9715 131.79 33.66 131.028 32.3923 130.21C31.6055 129.702 31.0044 129.448 30.0536 130.1C26.7423 132.365 23.2342 132.243 20.0212 130.066C18.1742 128.818 16.7207 126.95 15.147 125.315C14.9066 125.061 14.9394 124.542 14.8082 124.033C20.2397 123.061 25.1139 124.21 30.2285 127.271C28.8078 123.514 27.4854 120.376 28.0428 116.718C26.1084 116.718 24.3161 116.718 22.3271 116.718C22.5457 117.37 22.7315 117.923 22.9391 118.553C22.5347 118.553 22.2725 118.619 22.2287 118.542C21.0812 116.597 19.289 116.464 17.289 116.519C12.3056 116.641 7.33308 116.608 2.34965 116.619C1.61743 116.652 0.85243 116.542 0 116.475ZM24.6658 128.884C24.6658 128.95 24.6767 129.006 24.6767 129.072C25.2997 129.072 25.9226 129.072 26.5455 129.072C26.5455 129.006 26.5455 128.95 26.5346 128.884C25.9117 128.884 25.2887 128.884 24.6658 128.884Z" fill="#363263"/>
<path d="M11.0925 41.2595C9.72644 36.5744 11.6171 33.2153 14.3383 29.812C16.535 33.5358 16.8082 37.2485 16.4475 41.1159C19.7807 41.9999 22.032 38.696 25.2778 39.37C25.2122 39.9004 25.1467 40.4529 25.0592 41.1822C61.0361 41.1822 97.0021 41.1822 133.11 41.1822C133.077 40.6518 133.034 40.1214 132.99 39.4142C134.881 39.3479 136.476 39.8673 138.083 40.5855C139.143 41.0606 140.356 41.2153 141.853 41.6021C141.678 37.37 141.602 33.5247 144.039 29.9115C146.673 33.37 148.618 36.6739 147.208 41.0827C151.033 41.6352 154.924 40.8175 158.967 41.5689C158.486 42.4197 158.464 42.4971 158.399 42.5523C158.333 42.6076 158.257 42.6849 158.18 42.6849C106.27 42.7402 54.3588 42.7954 2.44801 42.8396C1.83601 42.8396 1.224 42.8175 0.612004 42.7623C0.459004 42.7512 0.306004 42.6297 0.163932 42.5302C0.0983606 42.486 0.0765034 42.3976 -0.0109253 42.265C3.29129e-06 41.1159 0.852433 41.2264 1.63929 41.2374C3.99987 41.2485 6.36044 41.2595 8.72101 41.2595C9.40951 41.2595 10.098 41.2595 11.0925 41.2595Z" fill="#363263"/>
<path d="M61.7793 83.5802C58.7521 83.5802 55.9106 83.5802 53.0146 83.5802C52.5446 82.6852 52.6867 81.9669 53.5938 81.6576C54.9598 81.2045 55.1566 80.2211 55.1456 78.9725C55.1128 73.8454 55.1128 68.7183 55.1347 63.6023C55.1456 62.2763 55.0363 61.1603 53.4408 60.7625C53.102 60.6852 52.9599 59.8454 52.7195 59.3703C53.1457 59.1603 53.6593 58.6741 53.9981 58.7736C56.1838 59.3923 58.3368 58.7515 60.4897 58.7515C61.9432 58.7515 63.4513 58.9725 64.8611 59.3592C69.6369 60.6631 70.9811 65.9559 67.484 69.5249C66.8829 70.1437 66.1398 70.6299 65.4076 71.2266C67.1452 73.8785 68.8064 76.5747 70.6314 79.1382C71.3199 80.0995 72.4128 80.7515 73.298 81.5692C73.6368 81.8785 73.8881 82.2763 74.1832 82.6299C73.7461 82.9725 73.3199 83.5802 72.8609 83.6134C71.0249 83.757 69.4074 83.083 68.1944 81.6907C67.2764 80.641 66.5223 79.4366 65.7573 78.2763C64.9813 77.1051 64.2929 75.8785 63.5388 74.6962C62.0088 72.2874 62.0088 72.2874 58.8176 72.5415C58.8176 74.9393 58.7848 77.3703 58.8395 79.8123C58.8613 80.7846 59.3859 81.4476 60.4351 81.6023C61.2984 81.7238 61.8011 82.2321 61.7793 83.5802ZM58.8176 70.0111C61.5061 70.2984 63.965 70.5968 65.3639 68.3426C66.2819 66.873 66.2163 64.8178 65.2436 63.2819C63.8339 61.0498 61.6263 60.4863 58.9816 61.0719C58.916 61.5581 58.8286 61.989 58.8176 62.4089C58.8176 64.873 58.8176 67.3371 58.8176 70.0111Z" fill="#363263"/>
<path d="M123.57 58.2986C124.947 61.7903 126.378 65.271 127.701 68.7848C129.274 72.9505 129.58 73.1163 133.689 71.4478C134.181 71.2489 134.728 71.1605 135.591 70.9284C134.859 74.1218 132.138 73.5693 130.138 74.7516C131.449 77.1494 130.968 80.4754 134.356 81.6577C135.252 81.9671 135.176 82.6411 134.782 83.4146C132.323 83.4146 129.853 83.4146 127.384 83.4146C126.498 81.8787 127.941 81.7019 128.782 81.1163C128.564 80.4975 128.302 79.945 128.181 79.3594C127.493 76.0555 125.941 74.0445 122.149 74.5638C120.739 74.7627 119.22 74.2434 117.799 74.0555C115.898 76.9284 115.045 79.1384 115.056 81.0389C115.165 81.1605 115.264 81.3483 115.406 81.4036C116.149 81.713 117.417 81.6135 117.001 82.9395C116.685 83.9782 115.712 83.4367 114.958 83.4146C113.493 83.3704 112.018 83.4036 110.302 83.4036C110.302 82.9063 110.149 82.1108 110.324 82.0224C112.696 80.84 113.111 78.3428 114.226 76.3097C114.553 75.713 114.794 75.0721 115.089 74.4202C112.739 73.2047 110.827 74.8621 108.761 75.1494C108.925 73.6467 108.903 73.6135 110.302 72.9726C111.166 72.5859 112.073 72.2434 112.991 72.0445C114.007 71.8235 115.056 71.7793 116.16 71.6577C118.706 67.3262 120.072 62.3649 122.848 58.166C123.1 58.2213 123.34 58.2655 123.57 58.2986ZM125.471 72.3981C124.335 69.492 123.318 66.8953 122.083 63.7572C120.772 66.7296 119.723 69.1273 118.575 71.7351C120.029 71.8124 121.067 71.8345 122.094 71.934C123.1 72.0224 124.094 72.1992 125.471 72.3981Z" fill="#363263"/>
<path d="M89.6035 144.84C89.7892 143.934 89.7783 142.906 90.2155 142.133C92.0843 138.84 94.9366 136.785 98.5977 135.923C99.4392 135.724 100.281 135.58 101.417 135.348C100.456 140.298 96.9693 142.906 92.587 145.635C99.0676 145.912 104.226 148.044 108.586 152C106.106 154.586 99.2753 155.37 95.7563 153.16C94.1716 152.166 92.9476 150.586 91.6252 149.193C91.4832 149.039 91.7783 148.442 91.9313 147.823C89.7018 147.193 87.4396 146.807 84.9916 147.337C82.4671 147.89 79.8661 148.011 77.4946 149.26C74.828 150.663 72.3691 152.243 70.9812 155.061C70.4784 156.077 69.7353 156.1 68.5987 155.867C68.7845 155.282 68.8282 154.751 69.0905 154.398C72.6095 149.624 77.2651 146.972 83.1993 146.542C85.4287 146.376 87.6254 145.834 89.833 145.459C89.7565 145.26 89.68 145.05 89.6035 144.84Z" fill="#363263"/>
<path d="M30.3487 58.6962C31.4634 58.6962 32.5781 58.6962 33.7038 58.6962C37.2884 58.6741 40.862 58.6299 44.4466 58.6409C46.4465 58.652 46.6651 58.9392 46.4902 61.0055C46.3482 62.6962 46.3482 62.6962 45.146 63.8453C43.616 60.873 43.616 60.873 39.8347 60.884C38.8074 60.884 37.7692 60.884 36.5124 60.884C36.1299 63.779 36.2829 66.4531 36.4031 69.4917C37.8894 69.4917 39.2664 69.5359 40.6216 69.4807C41.6817 69.4365 42.698 69.3039 43.0477 67.9448C43.1242 67.6464 43.8237 67.3702 44.2499 67.3702C44.4466 67.3702 44.8182 68.0111 44.8291 68.3757C44.8837 70.1216 44.8837 71.8674 44.8182 73.6133C44.8072 73.9448 44.4138 74.3647 44.0859 74.5304C43.8892 74.6409 43.2444 74.4199 43.2117 74.2542C42.4904 71.105 39.9768 72.0111 37.955 71.8564C37.5397 71.8232 37.1026 71.9116 36.4906 71.9669C36.4906 74.884 36.4906 77.7349 36.4906 80.6409C38.6216 81.6575 40.7964 81.1713 42.7199 80.6962C44.534 80.2542 46.1296 78.8619 48.0093 77.7901C48.0967 78.3315 48.3699 78.8951 48.206 79.2597C47.0039 82.0001 45.6378 83.4697 42.2499 83.3481C38.9495 83.2266 35.6272 83.4034 32.3159 83.3813C31.8022 83.3813 31.2995 82.9945 30.7968 82.7956C31.0372 82.3868 31.1793 81.8343 31.5399 81.6023C32.7311 80.8398 33.0262 79.7238 33.0262 78.442C33.0371 73.4918 33.0262 68.5525 33.0262 63.6022C33.0262 62.1547 32.6109 61.0497 31.0372 60.5967C30.611 60.4752 30.3487 59.7901 30.0099 59.3591C30.1301 59.1271 30.2394 58.9061 30.3487 58.6962Z" fill="#363263"/>
<path d="M49.3207 152.321C54.0965 148.022 59.1783 145.702 65.8884 145.647C61.4733 143.017 58.0308 140.31 56.8396 135.359C61.8995 135.857 65.7245 137.956 68.1944 142.299C68.5222 142.884 68.3146 143.779 68.3911 145.006C70.5877 146.299 73.6805 145.879 76.4564 147.271C75.9755 147.359 75.44 147.647 75.0357 147.503C71.9866 146.431 69.0359 146.962 65.9759 147.89C66.9376 148.442 66.9267 148.928 66.3256 149.768C63.8229 153.326 59.3422 155.105 54.7522 154.078C53.0146 153.68 51.3534 152.984 49.3207 152.321Z" fill="#363263"/>
<path d="M46.5121 138.696C43.3428 135.204 40.9276 131.923 41.4084 127.337C46.829 128.586 51.0584 134.972 49.0803 139.105C50.5884 140.088 52.1294 141.083 53.6703 142.077C53.6157 142.166 53.5719 142.254 53.5173 142.342C51.5392 141.867 49.5612 141.403 47.7033 140.961C43.0368 146.851 35.9332 146.011 30.305 140.475C33.4306 138.387 37.6271 137.028 46.5121 138.696ZM40.7309 142.298C40.6981 142.221 40.6762 142.155 40.6434 142.077C39.9112 142.11 39.179 142.155 38.4359 142.188C38.4359 142.221 38.4359 142.254 38.4359 142.287C39.2009 142.298 39.9659 142.298 40.7309 142.298Z" fill="#363263"/>
<path d="M110.947 63.9446C107.515 60.0109 107.81 61.16 102.598 61.4584C102.598 62.2981 102.598 63.149 102.598 64.0109C102.598 68.3313 102.598 72.6517 102.598 76.9832C102.598 80.6407 102.598 80.6407 105.472 82.2097C105.352 83.2816 104.619 83.2926 103.767 83.2926C101.69 83.2816 99.614 83.3368 97.5267 83.3921C96.6852 83.4142 96.6852 83.4473 96.0295 82.1876C98.8709 80.7512 98.8709 80.7512 98.8709 77.0716C98.8709 72.6628 98.8709 68.2539 98.8709 63.8341C98.8709 62.9722 98.8709 62.0993 98.8709 61.2926C94.27 60.1987 93.505 60.497 90.6198 64.4086C89.7783 63.3037 89.5051 59.8451 90.3685 59.1932C90.9258 58.7843 91.811 58.6959 92.5542 58.6959C97.0895 58.6738 101.625 58.718 106.171 58.7291C107.308 58.7291 108.444 58.6186 109.57 58.6959C110.127 58.7291 110.805 58.939 111.166 59.3258C111.865 60.044 111.635 62.6517 110.947 63.9446Z" fill="#363263"/>
<path d="M117.144 126.961C117.482 131.89 115.198 135.249 111.865 138.84C117.941 137.437 123.307 137.669 128.433 140.332C124.411 145.249 117.909 146.486 113.198 143.326C112.838 143.083 112.324 142.895 112.16 142.542C111.198 140.53 109.712 141.039 108.16 141.569C107.122 141.923 106.051 142.144 104.827 142.055C106.39 141.05 107.942 140.055 109.668 138.95C108.138 137.039 108.75 135.326 109.603 133.647C111.166 130.53 113.646 128.475 117.144 126.961ZM117.264 142.066C117.242 142.144 117.22 142.21 117.198 142.287C118.313 142.287 119.428 142.287 120.531 142.287C120.531 142.21 120.531 142.144 120.531 142.066C119.449 142.066 118.357 142.066 117.264 142.066Z" fill="#363263"/>
<path d="M136.629 76.033C137.263 76.1877 137.799 76.1987 138.203 76.4418C138.432 76.5744 138.443 77.0716 138.596 77.3921C140.334 81.1379 142.268 82.1656 146.345 81.5357C148.235 81.2484 149.197 79.9335 149.678 78.2319C150.159 76.5523 149.733 74.9943 148.301 74.0219C147.241 73.3037 145.973 72.8948 144.782 72.3976C143.503 71.8672 142.159 71.5136 140.924 70.8949C138.181 69.5136 136.771 66.8175 137.296 64.254C137.941 61.0827 140.563 58.5965 143.656 58.6407C146.137 58.6739 148.607 59.149 151.153 59.4363C151.284 61.602 151.809 63.5247 151.175 65.4031C150.968 65.4694 150.749 65.5247 150.541 65.591C150.104 64.7954 149.678 63.9888 149.219 63.2043C147.612 60.4639 144.968 59.6131 142.072 60.8728C140.749 61.4473 140.028 62.3976 139.919 63.8783C139.809 65.37 140.301 66.4971 141.7 67.0606C143.623 67.8451 145.602 68.486 147.514 69.2926C150.629 70.6076 152.235 72.9611 152.355 76.4308C152.465 79.5026 150.836 81.5136 148.432 82.7733C145.514 84.2871 142.367 84.1987 139.339 82.8948C138.061 82.3424 137.372 81.1821 137.132 79.812C136.935 78.6739 136.826 77.5468 136.629 76.033Z" fill="#363263"/>
<path d="M20.4037 58.873C22.338 58.873 24.2833 58.873 26.5128 58.873C26.2833 59.6023 26.1849 60.1769 25.9117 60.6521C25.3106 61.7018 24.48 62.641 23.9992 63.7349C21.278 69.9117 18.6442 76.1327 15.9557 82.3206C15.7372 82.8178 15.3547 83.4808 14.9285 83.6024C14.0214 83.8565 13.923 82.9836 13.6498 82.3206C11.016 75.9117 8.33851 69.525 5.72658 63.1051C5.27851 62.0112 4.86322 61.0498 3.65015 60.5858C3.27858 60.4311 3.13651 59.6797 2.72122 58.8841C5.35501 58.8841 7.56258 58.8841 10.2292 58.8841C9.63902 59.9117 9.19094 60.6742 8.71009 61.5029C10.9504 66.9615 13.2017 72.4642 15.4749 78.0112C17.2344 75.525 21.5075 64.6631 22.0648 61.1824C21.3763 60.7736 20.5676 60.2985 19.7589 59.8233C19.9775 59.5139 20.196 59.1935 20.4037 58.873Z" fill="#363263"/>
<path d="M26.6985 16.4751C27.5619 21.4033 27.1575 25.5801 24.7205 29.8121C26.6111 29.0497 28.1302 28.3093 29.7148 27.8342C31.2995 27.3591 32.9606 27.3922 34.6108 27.8784C32.6983 32.1878 28.0755 34.1215 24.2505 32.2099C23.3872 32.895 22.4692 33.6243 21.5621 34.3425C21.4856 34.2651 21.4091 34.1878 21.3326 34.1215C21.5402 33.6795 21.6823 33.1933 21.9665 32.7955C22.8735 31.4917 22.8298 30.3867 21.8572 29.0165C20.5567 27.1712 20.666 24.895 21.2998 22.8839C22.1195 20.2431 23.9117 18.2099 26.6985 16.4751Z" fill="#363263"/>
<path d="M86.7074 82.6408C85.7347 83.0386 85.1774 83.4364 84.6091 83.4585C82.6201 83.5358 80.6202 83.5248 78.6202 83.4585C78.1722 83.4474 77.746 83.0497 77.3088 82.8287C77.5383 82.4198 77.6804 81.7789 78.0192 81.6463C79.5164 81.0386 79.8115 79.801 79.8115 78.4309C79.8333 73.4916 79.8442 68.5414 79.8005 63.6021C79.7896 62.2651 79.6585 60.9502 77.9099 60.5966C77.5055 60.5193 77.2323 59.7789 76.5766 58.8949C79.8989 58.5193 82.6966 58.8066 86.0845 58.6519C85.5052 59.6242 85.3085 60.4751 84.8714 60.6298C83.2321 61.1822 83.1665 62.3867 83.1775 63.79C83.2102 68.6408 83.1775 73.5027 83.1884 78.3646C83.1993 80.8618 83.2102 80.8618 85.538 81.7016C85.7675 81.7789 85.9315 82.011 86.7074 82.6408Z" fill="#363263"/>
<path d="M131.547 16.8511C136.76 18.7074 138.837 24.7737 135.973 30.0223C135.766 29.2157 135.569 28.7074 135.514 28.1881C135.449 27.5914 135.504 26.9837 135.394 26.387C134.443 28.9837 135.678 31.2157 136.389 33.7351C135.657 33.2489 134.924 32.7627 134.192 32.2765C129.985 33.9892 126.378 32.5638 123.701 28.0444C127.132 26.7295 130.083 28.3207 133.7 29.8897C130.914 25.4367 131.088 21.2157 131.547 16.8511Z" fill="#363263"/>
<path d="M40.6543 6.90625C41.3428 10.0112 40.5997 12.4201 36.9167 18.6521C40.0314 18.0002 42.9384 17.4366 45.8235 19.1051C45.2115 20.9836 43.4848 21.514 41.9658 22.0554C39.485 22.9504 36.8075 22.4753 34.9824 21.0499C34.1955 21.4035 33.3431 21.7902 32.0426 22.3759C32.9715 20.9836 33.6272 20.0112 34.2611 19.0609C31.6601 14.2654 34.8294 8.30957 40.6543 6.90625Z" fill="#363263"/>
<path d="M124.171 18.7624C124.99 19.8673 125.865 21.0497 126.75 22.243C126.695 22.3425 126.64 22.4419 126.575 22.5414C125.285 21.8452 123.996 21.1381 122.236 20.1878C122.455 21.0386 122.531 21.3701 122.619 21.7016C118.597 23.127 115.242 22.2872 112.51 19.0718C113.941 18.3535 115.373 17.801 116.936 17.9005C118.466 17.9889 119.985 18.2762 121.908 18.5303C119.209 14.8618 117.253 11.2928 117.734 6.86182C122.05 7.46955 125.93 12.4088 125.242 16.5414C125.132 17.2044 124.641 17.8121 124.171 18.7624Z" fill="#363263"/>
<path d="M49.3535 10.6961C52.9708 10.7293 56.009 10.7735 58.3258 13.3039C54.479 15.8453 49.8999 15.4917 47.5503 12.453C46.4246 12.8619 45.2443 13.2928 44.075 13.7127C43.9875 13.5801 43.9001 13.4475 43.8236 13.3039C45.0367 12.2983 46.2607 11.2818 47.441 10.3094C45.9984 5.21547 48.9273 1.66851 56.0746 0C55.5718 4.55249 52.9927 7.65746 49.3535 10.6961Z" fill="#363263"/>
<path d="M99.7561 13.4806C102.182 10.906 105.166 10.8728 108.422 10.8507C106.969 9.18222 105.592 7.78996 104.434 6.2209C103.242 4.59659 102.499 2.71814 102.062 0.718135C104.652 0.254047 107.832 1.59106 109.603 4.05515C110.914 5.88941 112.018 7.90046 110.761 10.464C111.963 11.4253 113.198 12.4087 114.433 13.4032C114.368 13.5248 114.291 13.6463 114.226 13.7679C113.045 13.348 111.865 12.917 110.717 12.5082C108.116 15.4474 104.597 15.801 99.7561 13.4806Z" fill="#363263"/>
<path d="M37.0151 97.602C36.9496 99.5026 35.354 101.061 33.518 101.027C31.4962 100.994 29.9334 99.3479 29.9662 97.3037C29.999 95.1379 31.529 93.8561 33.9661 93.9556C36.0971 94.055 37.1026 95.2484 37.0151 97.602ZM32.4907 95.4142C31.5946 97.2263 31.5181 98.4749 32.5453 99.149C33.059 99.4805 34.0644 99.5136 34.5999 99.2263C35.66 98.6407 35.6818 97.4584 35.2993 96.4197C34.7857 95.0385 33.6382 95.1379 32.4907 95.4142Z" fill="#363263"/>
<path d="M77.7678 97.4035C77.7569 95.1273 78.7951 94.0444 81.0464 94.0002C83.3632 93.956 84.7621 95.1715 84.8058 97.2709C84.8495 99.3703 83.3523 101.006 81.3415 101.039C79.3852 101.072 77.7787 99.4477 77.7678 97.4035ZM83.2102 97.2488C83.1993 96.1217 82.336 95.2488 81.254 95.2709C80.0191 95.293 79.3634 95.967 79.3197 97.2598C79.265 98.5969 80.1175 99.6687 81.2103 99.6466C82.183 99.6355 83.2212 98.3759 83.2102 97.2488Z" fill="#363263"/>
<path d="M68.8392 93.9556C69.932 93.9556 70.6205 93.9004 71.2981 93.9777C71.7024 94.0219 72.3691 94.1766 72.4347 94.4197C72.8062 95.8341 73.3417 97.3258 73.1997 98.7291C73.1232 99.4915 71.9319 100.309 71.0795 100.795C70.0522 101.37 68.9266 100.674 68.8719 99.4805C68.7736 97.7346 68.8392 95.9998 68.8392 93.9556Z" fill="#363263"/>
<path d="M89.3958 94.1656C91.0242 93.9667 92.4996 93.4032 93.4831 94.8617C94.2372 95.9778 93.4394 96.8175 92.6088 97.58C93.1006 98.475 93.5815 99.3479 94.117 100.331C92.3247 101.016 92.2701 99.0717 91.2209 98.8507C90.7182 99.37 91.0351 100.696 89.5379 100.464C88.8931 98.475 89.2538 96.4308 89.3958 94.1656ZM92.5323 96.022C92.1608 95.7015 91.9641 95.4032 91.822 95.4253C91.5488 95.4805 91.3083 95.7126 91.057 95.8673C91.21 96.033 91.3521 96.3314 91.5051 96.3314C91.7783 96.3424 92.0624 96.1767 92.5323 96.022Z" fill="#363263"/>
<path d="M101.078 94.1328C102.838 96.0444 103.811 98.177 104.182 100.542C103.985 100.663 103.789 100.785 103.592 100.917C103.111 100.376 102.554 99.8897 102.171 99.293C101.494 98.2654 100.969 98.2322 100.281 99.293C99.9091 99.8786 99.3518 100.343 98.6742 100.696C98.6086 98.1659 100.259 96.3869 101.078 94.1328Z" fill="#363263"/>
<path d="M63.4077 100.707C63.0689 100.409 62.6427 100.166 62.3913 99.8124C61.2875 98.2323 60.905 98.1771 59.8012 99.6025C59.5499 99.9229 59.375 100.288 58.9269 101.006C58.6756 100.199 58.2931 99.6467 58.4461 99.3594C59.3422 97.5804 59.6592 95.4146 61.6591 93.9561C62.4678 96.2213 63.8557 98.0224 63.4077 100.707Z" fill="#363263"/>
<path d="M25.4964 95.0939C22.1413 95.4806 21.431 95.9999 21.6495 97.7458C21.8572 99.3812 22.8517 99.8231 25.3215 99.2486C25.3106 100.663 24.5019 101.039 23.3653 101.017C21.89 100.994 20.2616 99.3591 20.1414 97.8452C19.9775 95.7126 20.7534 94.2872 22.4145 94.0331C23.3107 93.8894 24.2724 94.0773 25.2013 94.2099C25.3325 94.232 25.398 94.7734 25.4964 95.0939Z" fill="#363263"/>
<path d="M123.701 94.0444C125.569 94.387 125.253 96.3207 125.963 97.4698C127.69 96.9174 126.586 93.9892 129.176 94.1881C128.662 96.5085 127.875 98.5859 126.564 100.475C124.695 99.1494 123.307 96.0113 123.701 94.0444Z" fill="#363263"/>
<path d="M133.831 93.8452C135.329 93.9778 136.323 94.0662 137.318 94.1436C137.35 94.3424 137.394 94.5303 137.427 94.7292C136.684 95.0496 135.952 95.3811 134.782 95.8894C135.853 96.2872 136.509 96.5413 137.613 96.9502C136.815 97.359 136.367 97.5027 136.028 97.7789C135.689 98.0552 135.46 98.4751 135.187 98.8286C135.558 99.0828 135.919 99.3701 136.323 99.58C136.607 99.7237 136.946 99.7568 137.34 99.8563C137.23 101.337 136.203 101.005 135.449 101.005C134.586 101.005 133.875 100.63 133.853 99.6463C133.799 97.8342 133.831 96.011 133.831 93.8452Z" fill="#363263"/>
<path d="M81.4835 148.42C84.9042 149.171 88.3904 152.199 89.7346 155.47C89.0461 156.066 88.2155 156.188 87.8112 155.326C86.5872 152.751 84.4233 151.193 82.2048 149.657C81.9972 149.514 81.7895 149.337 81.6365 149.127C81.5382 149.006 81.56 148.807 81.4835 148.42Z" fill="#363263"/>
<path d="M43.31 94.2211C43.31 95.9449 43.31 97.5802 43.31 99.2709C44.1515 99.4808 44.7853 99.6355 45.4848 99.8123C45.4192 100.177 45.452 100.575 45.3318 100.63C42.9712 101.757 41.5833 100.895 41.627 98.3758C41.6488 97.4145 41.6379 96.4421 41.6598 95.4808C41.6707 94.6852 41.9221 94.0885 43.31 94.2211Z" fill="#363263"/>
<path d="M51.5392 93.9116C51.5392 95.7901 51.5392 97.4254 51.5392 99.2044C52.4026 99.4475 53.0801 99.6354 53.8124 99.8453C52.8179 101.293 50.5884 101.414 50.3917 100.111C50.0966 98.2431 50.3371 96.2984 50.4136 94.3868C50.4136 94.2542 50.96 94.1437 51.5392 93.9116Z" fill="#363263"/>
<path d="M107.821 94.5966C109.461 93.79 110.914 93.79 112.466 94.3646C110.903 95.8784 110.925 95.8784 110.838 98.3314C110.816 99.0607 110.663 99.7789 110.543 100.807C108.969 99.79 109.439 98.5524 109.439 97.558C109.45 96.2762 109.384 95.1602 107.821 94.5966Z" fill="#363263"/>
<path d="M118.695 94.3867C118.695 96.5193 118.695 98.4309 118.695 100.276C117.559 100.773 116.969 100.365 116.914 99.3812C116.838 97.9779 116.903 96.5635 116.98 95.1602C117.045 94.011 117.734 93.9447 118.695 94.3867Z" fill="#363263"/>
<path d="M92.5323 96.0222C92.0515 96.1769 91.7673 96.3426 91.4941 96.3316C91.3411 96.3205 91.199 96.0332 91.046 95.8675C91.2974 95.7128 91.5378 95.4807 91.811 95.4255C91.964 95.4034 92.1607 95.7017 92.5323 96.0222Z" fill="white"/>
</g>
<defs>
<clipPath id="clip0">
<rect width="159" height="156" fill="white"/>
</clipPath>
</defs>
</svg>
