<svg width="53" height="80" viewBox="0 0 53 80" fill="none" xmlns="http://www.w3.org/2000/svg">
<path d="M20.3974 57.422C20.5206 55.3985 20.6438 53.3751 20.7553 51.3574C21.0838 45.3856 23.8589 40.7299 28.3881 36.8685C31.1045 34.5552 33.8091 32.1839 35.9095 29.2675C37.3469 27.2731 38.2152 25.0583 38.3794 22.5826C38.5906 19.359 37.3058 16.8485 34.4251 15.4512C29.3796 13.0103 24.2402 13.0683 19.2475 15.7121C17.1589 16.8195 15.8682 18.7038 15.1583 20.907C14.7183 22.2695 14.4894 23.7074 14.243 25.1278C14.1492 25.6786 14.0025 25.8932 13.3982 25.8874C9.50259 25.8584 5.60697 25.8584 1.71722 25.8816C1.01906 25.8874 0.778516 25.7134 0.825451 24.9713C1.06599 21.3534 1.48841 17.7819 2.961 14.4134C5.40749 8.81263 9.57299 4.84689 15.1935 2.51035C22.6914 -0.603109 30.4122 -0.79444 38.1037 1.79141C43.9823 3.76848 48.4705 7.49652 50.7527 13.306C53.0877 19.2662 53.0936 25.2844 50.0546 31.0823C48.5937 33.871 46.3584 36.08 44.0117 38.1441C41.8702 40.0226 39.6878 41.8605 37.4642 43.6462C34.2315 46.2379 32.6827 49.6296 32.3893 53.6592C32.3131 54.7492 32.2309 55.845 32.1781 56.9408C32.1547 57.3698 32.0021 57.5553 31.5445 57.5495C28.0009 57.5379 24.4573 57.5379 20.9137 57.5321C20.7846 57.5321 20.6614 57.48 20.3974 57.422Z" fill="#D7B4CF"/>
<path d="M26.499 65.2956C30.6586 65.3767 33.5744 68.3569 33.504 72.4385C33.4278 76.5666 30.3007 79.6221 26.2174 79.5525C22.31 79.4887 19.2768 76.2419 19.3296 72.195C19.3942 68.1655 22.4508 65.2144 26.499 65.2956Z" fill="#D7B4CF"/>
</svg>
