<svg width="144" height="142" viewBox="0 0 144 142" fill="none" xmlns="http://www.w3.org/2000/svg">
<g clip-path="url(#clip0)">
<path d="M72.0907 141.559C111.646 141.559 143.713 109.87 143.713 70.7794C143.713 31.689 111.646 0 72.0907 0C32.535 0 0.46875 31.689 0.46875 70.7794C0.46875 109.87 32.535 141.559 72.0907 141.559Z" fill="#7772AE"/>
<path d="M65.8662 88.422C65.9894 86.3985 66.1126 84.3751 66.2241 82.3574C66.5526 76.3856 69.3277 71.7299 73.8569 67.8685C76.5733 65.5552 79.2779 63.1839 81.3783 60.2675C82.8156 58.2731 83.6839 56.0583 83.8482 53.5826C84.0594 50.359 82.7746 47.8485 79.8939 46.4512C74.8484 44.0103 69.709 44.0683 64.7163 46.7121C62.6277 47.8195 61.3369 49.7038 60.6271 51.907C60.187 53.2695 59.9582 54.7074 59.7118 56.1278C59.6179 56.6786 59.4713 56.8932 58.867 56.8874C54.9714 56.8584 51.0758 56.8584 47.186 56.8816C46.4878 56.8874 46.2473 56.7134 46.2942 55.9713C46.5348 52.3534 46.9572 48.7819 48.4298 45.4134C50.8763 39.8126 55.0418 35.8469 60.6623 33.5103C68.1601 30.3969 75.881 30.2056 83.5725 32.7914C89.4511 34.7685 93.9393 38.4965 96.2215 44.306C98.5565 50.2662 98.5624 56.2844 95.5233 62.0823C94.0625 64.871 91.8272 67.08 89.4804 69.1441C87.339 71.0226 85.1565 72.8605 82.933 74.6462C79.7003 77.2379 78.1515 80.6296 77.8581 84.6592C77.7818 85.7492 77.6997 86.845 77.6469 87.9408C77.6234 88.3698 77.4709 88.5553 77.0133 88.5495C73.4697 88.5379 69.9261 88.5379 66.3825 88.5321C66.2534 88.5321 66.1302 88.48 65.8662 88.422Z" fill="#D7B4CF"/>
<path d="M71.9677 96.2956C76.1274 96.3767 79.0432 99.3569 78.9728 103.439C78.8965 107.567 75.7695 110.622 71.6861 110.553C67.7788 110.489 64.7456 107.242 64.7984 103.195C64.8629 99.1655 67.9196 96.2144 71.9677 96.2956Z" fill="#D7B4CF"/>
</g>
<defs>
<clipPath id="clip0">
<rect width="143.244" height="141.559" fill="white" transform="translate(0.46875)"/>
</clipPath>
</defs>
</svg>
