<svg width="146" height="145" viewBox="0 0 146 145" fill="none" xmlns="http://www.w3.org/2000/svg">
<path d="M67.8662 88.422C67.9894 86.3985 68.1126 84.3751 68.2241 82.3574C68.5526 76.3856 71.3277 71.7299 75.8569 67.8685C78.5733 65.5552 81.2779 63.1839 83.3783 60.2675C84.8156 58.2731 85.6839 56.0583 85.8482 53.5826C86.0594 50.359 84.7746 47.8485 81.8939 46.4512C76.8484 44.0103 71.709 44.0683 66.7163 46.7121C64.6277 47.8195 63.3369 49.7038 62.6271 51.907C62.187 53.2695 61.9582 54.7074 61.7118 56.1278C61.6179 56.6786 61.4713 56.8932 60.867 56.8874C56.9714 56.8584 53.0758 56.8584 49.186 56.8816C48.4878 56.8874 48.2473 56.7134 48.2942 55.9713C48.5348 52.3534 48.9572 48.7819 50.4298 45.4134C52.8763 39.8126 57.0418 35.8469 62.6623 33.5103C70.1601 30.3969 77.881 30.2056 85.5725 32.7914C91.4511 34.7685 95.9393 38.4965 98.2215 44.306C100.557 50.2662 100.562 56.2844 97.5233 62.0823C96.0625 64.871 93.8272 67.08 91.4804 69.1441C89.339 71.0226 87.1565 72.8605 84.933 74.6462C81.7003 77.2379 80.1515 80.6296 79.8581 84.6592C79.7818 85.7492 79.6997 86.845 79.6469 87.9408C79.6234 88.3698 79.4709 88.5553 79.0133 88.5495C75.4697 88.5379 71.9261 88.5379 68.3825 88.5321C68.2534 88.5321 68.1302 88.48 67.8662 88.422Z" fill="#D7B4CF"/>
<path d="M73.9677 96.2956C78.1274 96.3767 81.0432 99.3569 80.9728 103.439C80.8965 107.567 77.7695 110.622 73.6861 110.553C69.7788 110.489 66.7456 107.242 66.7984 103.195C66.8629 99.1655 69.9196 96.2144 73.9677 96.2956Z" fill="#D7B4CF"/>
</svg>
