<svg width="144" height="142" viewBox="0 0 144 142" fill="none" xmlns="http://www.w3.org/2000/svg">
<g clip-path="url(#clip0)">
<path d="M71.622 141.559C111.178 141.559 143.244 109.87 143.244 70.7794C143.244 31.689 111.178 0 71.622 0C32.0663 0 0 31.689 0 70.7794C0 109.87 32.0663 141.559 71.622 141.559Z" fill="#363263"/>
<path d="M65.3974 88.422C65.5206 86.3985 65.6438 84.3751 65.7553 82.3574C66.0838 76.3856 68.8589 71.7299 73.3881 67.8685C76.1045 65.5552 78.8091 63.1839 80.9095 60.2675C82.3469 58.2731 83.2152 56.0583 83.3794 53.5826C83.5906 50.359 82.3058 47.8485 79.4251 46.4512C74.3796 44.0103 69.2402 44.0683 64.2475 46.7121C62.1589 47.8195 60.8682 49.7038 60.1583 51.907C59.7183 53.2695 59.4894 54.7074 59.243 56.1278C59.1492 56.6786 59.0025 56.8932 58.3982 56.8874C54.5026 56.8584 50.607 56.8584 46.7172 56.8816C46.0191 56.8874 45.7785 56.7134 45.8255 55.9713C46.066 52.3534 46.4884 48.7819 47.961 45.4134C50.4075 39.8126 54.573 35.8469 60.1935 33.5103C67.6914 30.3969 75.4122 30.2056 83.1037 32.7914C88.9823 34.7685 93.4705 38.4965 95.7527 44.306C98.0877 50.2662 98.0936 56.2844 95.0546 62.0823C93.5937 64.871 91.3584 67.08 89.0117 69.1441C86.8702 71.0226 84.6878 72.8605 82.4642 74.6462C79.2315 77.2379 77.6827 80.6296 77.3893 84.6592C77.3131 85.7492 77.2309 86.845 77.1781 87.9408C77.1547 88.3698 77.0021 88.5553 76.5445 88.5495C73.0009 88.5379 69.4573 88.5379 65.9137 88.5321C65.7846 88.5321 65.6614 88.48 65.3974 88.422Z" fill="#D7B4CF"/>
<path d="M71.499 96.2956C75.6586 96.3767 78.5744 99.3569 78.504 103.439C78.4278 107.567 75.3007 110.622 71.2174 110.553C67.31 110.489 64.2768 107.242 64.3296 103.195C64.3942 99.1655 67.4508 96.2144 71.499 96.2956Z" fill="#D7B4CF"/>
</g>
<defs>
<clipPath id="clip0">
<rect width="143.244" height="141.559" fill="white"/>
</clipPath>
</defs>
</svg>
