<svg width="31" height="30" viewBox="0 0 31 30" fill="none" xmlns="http://www.w3.org/2000/svg">
<path d="M24.5927 8.90888C24.5969 13.7283 20.6719 17.6385 15.8294 17.6406C10.968 17.6427 7.03879 13.743 7.03668 8.91728C7.03457 4.08944 10.9659 0.181396 15.8189 0.181396C20.6592 0.181396 24.5885 4.09154 24.5927 8.90888ZM15.8189 16.3974C19.9654 16.3953 23.3378 13.0416 23.3441 8.91728C23.3483 4.78873 19.9675 1.42668 15.8105 1.43088C11.6598 1.43298 8.28526 4.78663 8.28526 8.90678C8.28526 13.0395 11.6661 16.3995 15.8189 16.3974Z" fill="#363263"/>
<path d="M20.4293 17.7855C20.5727 17.7036 20.714 17.628 20.849 17.544C21.0979 17.3886 21.3489 17.2353 21.5893 17.0694C21.6884 17.0022 21.7665 16.9896 21.8783 17.04C23.4474 17.7309 24.8626 18.6528 26.107 19.8267C28.659 22.2353 30.1965 25.1753 30.7132 28.6402C30.7512 28.8985 30.7744 29.1589 30.8039 29.4193C30.806 29.4361 30.7997 29.455 30.7933 29.4991C30.4116 29.4991 30.0256 29.5033 29.6418 29.4928C29.6038 29.4907 29.5448 29.3941 29.5384 29.3374C29.4224 28.2622 29.2031 27.2123 28.8277 26.198C27.3576 22.2311 24.639 19.476 20.6972 17.9136C20.6212 17.8842 20.5453 17.8569 20.4694 17.8254C20.461 17.8191 20.4525 17.8086 20.4293 17.7855Z" fill="#363263"/>
<path d="M0.804321 29.4991C0.863376 29.056 0.903448 28.6381 0.977266 28.2223C1.47712 25.3832 2.68773 22.8821 4.62387 20.7359C6.04117 19.1631 7.72422 17.9493 9.65824 17.0778C9.82908 17.0001 9.95351 16.998 10.1138 17.1114C10.4133 17.3235 10.7381 17.502 11.0502 17.6931C11.0966 17.7204 11.143 17.7498 11.219 17.796C10.9912 17.8863 10.7887 17.9598 10.5926 18.0438C6.34066 19.8728 3.60729 23.0123 2.42199 27.4705C2.2617 28.0753 2.19421 28.7032 2.09719 29.3248C2.0761 29.4571 2.03813 29.5033 1.90104 29.5012C1.54672 29.4928 1.19028 29.4991 0.804321 29.4991Z" fill="#363263"/>
</svg>
