<svg width="226" height="58" viewBox="0 0 226 58" fill="none" xmlns="http://www.w3.org/2000/svg">
<g clip-path="url(#clip0)">
<path d="M57.0025 27.5279C57.6458 41.9623 44.5605 55.0767 28.6646 54.9811C12.6947 54.8829 -0.0102353 42.7549 -2.4367e-05 27.4322C0.0101866 12.3255 12.8402 0.145951 28.6314 0.0919719C45.0761 0.0355395 57.6789 13.6382 57.0025 27.5279ZM14.599 39.256C14.7037 39.3149 14.8033 39.3763 14.9105 39.4303C21.5297 42.6862 28.1336 42.6714 34.4236 38.8389C39.7154 35.6149 42.3779 30.6881 42.8578 24.7186C42.9599 23.4574 43.2177 22.4539 44.3179 21.6639C44.9434 21.2149 45.3952 20.5401 46.1661 19.7084C44.8157 20.0224 43.884 20.2408 42.9344 20.4616C43.741 19.4286 44.512 18.4472 45.2803 17.4658C44.3792 17.5026 43.7563 17.7479 43.1284 17.9909C42.0052 18.4251 41.0836 18.5331 39.9221 17.6866C37.8697 16.1924 35.4829 16.131 33.1982 17.3603C30.9416 18.5748 29.7444 20.4395 29.798 22.9765C29.8082 23.4133 29.8006 23.85 29.8006 24.3186C24.2535 24.0021 19.8602 21.6295 16.1664 17.7529C14.5505 21.1216 15.5027 23.7494 17.8359 26.2251C17.0344 26.0116 16.2328 25.7981 15.3266 25.5577C15.4185 28.7424 17.3254 30.5409 20.2865 31.753C19.3165 31.8659 18.5456 31.9566 17.6725 32.0572C18.8289 34.6065 20.8277 35.848 23.6357 36.3559C20.8405 38.3482 17.8972 39.0352 14.599 39.256Z" fill="#363163"/>
</g>
<g clip-path="url(#clip1)">
<path d="M113.12 0.0926986C128.903 0.186132 141.675 13.0403 141.513 28.6721C141.346 44.6436 128.606 57.3081 112.672 57.0901C96.852 56.8749 84.2588 44.1707 84.4883 28.1483C84.7177 12.1683 97.7218 0.0105902 113.12 0.0926986ZM115.398 44.0462C115.398 38.8648 115.398 33.7939 115.398 28.5305C116.919 28.5305 118.302 28.5305 119.73 28.5305C119.902 26.6732 120.058 25.0083 120.231 23.1538C118.531 23.1538 116.998 23.1538 115.446 23.1538C115.409 22.8056 115.375 22.6244 115.375 22.4432C115.369 21.7835 115.347 21.1209 115.381 20.4612C115.463 18.8814 115.845 18.4906 117.449 18.4142C118.327 18.3717 119.208 18.4057 120.092 18.4057C120.092 16.5059 120.092 14.7958 120.092 12.9894C118.661 12.9894 117.347 12.9667 116.032 12.9979C115.375 13.012 114.715 13.0998 114.063 13.1961C111.037 13.6491 109.357 15.3818 109.083 18.4255C108.944 19.9601 108.932 21.506 108.856 23.2303C107.791 23.2303 106.785 23.2303 105.799 23.2303C105.799 25.0989 105.799 26.7751 105.799 28.6041C106.856 28.6041 107.825 28.6041 108.949 28.6041C108.949 33.8307 108.949 38.9073 108.949 44.0433C111.12 44.0462 113.134 44.0462 115.398 44.0462Z" fill="#363163"/>
</g>
<ellipse cx="197.486" cy="28.4635" rx="28.514" ry="28.3697" fill="#363163"/>
<g clip-path="url(#clip2)">
<path d="M197.837 44.4277C195.024 44.3 192.324 44.2926 189.65 44.0298C185.688 43.6393 182.779 41.2028 182.25 37.2091C181.466 31.2874 181.382 25.2847 182.353 19.3679C182.97 15.6075 186.271 12.9353 190.059 12.8518C195.112 12.7388 200.175 12.7167 205.225 12.8641C209.536 12.9869 213.033 16.3518 213.189 20.6696C213.383 25.9331 213.361 31.2137 213.172 36.4772C213.03 40.4316 209.864 43.6 205.902 44.0126C203.192 44.2926 200.449 44.3024 197.837 44.4277ZM197.555 15.3767C197.553 15.4356 197.553 15.4946 197.551 15.5535C195.387 15.5535 193.223 15.4897 191.062 15.5683C187.033 15.7156 184.823 17.9777 184.784 22.0008C184.739 26.4538 184.735 30.9092 184.791 35.3646C184.835 38.8965 187.099 41.2519 190.591 41.3158C195.237 41.3993 199.886 41.3993 204.532 41.3231C208.161 41.2642 210.435 39.0168 210.499 35.4186C210.58 30.7594 210.572 26.0976 210.496 21.4408C210.447 18.3338 208.573 16.1577 205.488 15.7868C202.866 15.47 200.202 15.4995 197.555 15.3767Z" fill="#D8B5D0"/>
<path d="M205.689 28.5148C205.696 32.9456 202.16 36.4677 197.681 36.4873C193.094 36.507 189.624 33.0119 189.594 28.3428C189.567 23.9365 193.125 20.3973 197.605 20.3727C202.185 20.3457 205.682 23.8678 205.689 28.5148ZM192.373 28.419C192.376 31.3982 194.659 33.7095 197.612 33.7193C200.636 33.7291 202.942 31.4056 202.93 28.3698C202.915 25.42 200.597 23.1334 197.622 23.1383C194.654 23.1432 192.368 25.4446 192.373 28.419Z" fill="#D8B5D0"/>
<path d="M207.941 20.0142C207.916 21.0262 207.034 21.8834 206.047 21.8465C205.067 21.8121 204.192 20.8886 204.219 19.9209C204.248 18.9164 205.12 18.096 206.137 18.1181C207.189 18.1427 207.965 18.9606 207.941 20.0142Z" fill="#D8B5D0"/>
</g>
<defs>
<clipPath id="clip0">
<rect width="57.028" height="54.8891" fill="white" transform="translate(0 0.09375)"/>
</clipPath>
<clipPath id="clip1">
<rect width="57.028" height="57.0002" fill="white" transform="translate(84.486 0.09375)"/>
</clipPath>
<clipPath id="clip2">
<rect width="31.6822" height="31.6668" fill="white" transform="translate(181.645 12.7607)"/>
</clipPath>
</defs>
</svg>
