<svg width="144" height="142" viewBox="0 0 144 142" fill="none" xmlns="http://www.w3.org/2000/svg">
<g clip-path="url(#clip0)">
<path d="M71.622 141.559C111.178 141.559 143.244 109.87 143.244 70.7794C143.244 31.689 111.178 0 71.622 0C32.0663 0 0 31.689 0 70.7794C0 109.87 32.0663 141.559 71.622 141.559Z" fill="#363263"/>
</g>
<g clip-path="url(#clip1)">
<path d="M26.4069 53.0859C29.6783 52.7135 32.5759 55.2882 32.6323 58.4112C32.717 63.1243 32.7757 67.8396 32.858 72.5527C32.865 73.0256 32.6323 73.7315 33.6335 73.5236C33.6335 64.6686 33.6335 55.8251 33.6335 46.9884C36.1669 46.552 38.9683 48.5442 39.3913 51.2308C39.6498 52.8734 39.6239 54.564 39.6568 56.2317C39.7626 61.7078 39.8284 67.1862 39.9365 72.6623C39.9436 72.9593 40.2068 73.2541 40.3501 73.5488C40.4888 73.2541 40.745 72.9593 40.7473 72.6623C40.7638 67.4467 40.7779 62.231 40.7332 57.0176C40.705 53.673 40.5851 50.3307 40.5123 46.9861C40.4982 46.3852 40.5099 45.7821 40.5099 45.2132C42.8131 44.5667 46.2043 46.7439 46.4557 49.5174C46.7001 52.1995 46.6766 54.9067 46.7283 57.6048C46.8224 62.6628 46.8811 67.7185 46.9587 72.7766C46.961 72.9616 46.9892 73.1444 47.0151 73.4277C47.4169 73.446 47.7859 73.4642 48.3805 73.4939C48.2512 65.8132 48.122 58.2353 47.9927 50.6871C50.7423 50.1091 53.7105 52.6769 53.9996 55.0483C54.1359 56.1769 54.2135 57.3169 54.2276 58.4546C54.3263 66.9372 54.4015 75.4221 54.4908 83.9047C54.4955 84.3045 54.5519 84.702 54.6012 85.3394C55.076 84.9168 55.365 84.6769 55.6329 84.4165C57.9031 82.2096 60.171 79.9981 62.4365 77.7866C65.346 74.9492 69.7078 76.0024 71.0709 78.1179C70.8029 78.4012 70.5256 78.7142 70.2295 79.002C63.7784 85.2732 57.3603 91.5786 50.8575 97.7995C46.9681 101.521 42.2819 102.917 36.9824 101.377C31.6077 99.8167 28.1977 96.2117 27.3211 90.8384C26.7806 87.5235 26.9474 84.0898 26.8957 80.7063C26.7712 72.4887 26.7124 64.2711 26.609 56.0558C26.5949 55.0917 26.4797 54.1208 26.4069 53.0859Z" fill="#D7B4CF"/>
<path d="M118.397 53.1102C118.397 55.7055 118.421 58.3213 118.393 60.9372C118.332 66.7171 118.256 72.4994 118.165 78.2793C118.104 82.1174 118.181 85.9669 117.89 89.789C117.427 95.8362 112.673 100.762 106.525 101.746C101.46 102.557 97.2864 100.947 93.7142 97.4126C87.484 91.2488 81.1646 85.1719 74.8686 79.0721C74.5396 78.7545 74.1025 78.542 73.7476 78.2999C75.9708 75.6041 79.8344 75.3688 82.2762 77.6282C84.6005 79.7803 86.8331 82.026 89.1056 84.2306C89.4299 84.5459 89.766 84.8475 90.2501 85.2952C90.3465 83.4013 90.4828 81.7153 90.5086 80.0293C90.5768 75.3482 90.5839 70.6694 90.6379 65.9883C90.6755 62.6437 90.7272 59.2968 90.8165 55.9522C90.8964 52.932 93.7213 50.4053 96.8305 50.6954C96.8305 51.5362 96.8352 52.3974 96.8305 53.2587C96.7952 59.0798 96.7623 64.9009 96.7177 70.7197C96.713 71.2474 96.6166 71.7752 96.5766 72.3052C96.4873 73.468 96.6072 73.564 98.0854 73.3789C98.0854 73.0043 98.0854 72.6045 98.0854 72.2047C98.0925 68.2455 98.076 64.2863 98.1136 60.3295C98.1442 57.0214 98.2194 53.7156 98.3134 50.4076C98.3909 47.7004 100.548 45.4341 103.307 45.0274C104.32 44.8789 104.492 45.3404 104.48 46.1811C104.386 52.0388 104.327 57.8941 104.245 63.7517C104.203 66.7171 104.142 69.6802 104.071 72.6433C104.055 73.3264 104.158 73.7993 105.155 73.4063C105.155 70.3222 105.126 67.206 105.162 64.0921C105.206 60.0622 105.274 56.0322 105.38 52.0022C105.46 48.9729 108.271 46.5878 111.474 46.919C111.439 47.529 111.371 48.1459 111.368 48.765C111.342 54.2068 111.342 59.6509 111.305 65.0928C111.286 67.6378 111.208 70.1851 111.143 72.7301C111.124 73.4086 111.305 73.7719 112.203 73.4246C112.203 70.3816 112.174 67.3043 112.212 64.2292C112.238 61.9903 112.184 59.7309 112.468 57.5172C112.821 54.7391 115.674 52.699 118.397 53.1102Z" fill="#D7B4CF"/>
<path d="M72.817 48.4748C73.3575 48.0088 73.8346 47.5656 74.3446 47.1635C77.0002 45.0731 80.8262 45.2856 83.1716 47.6432C85.5241 50.0078 85.7121 53.7979 83.3667 56.2195C80.147 59.539 76.7628 62.7054 73.4609 65.9518C73.0073 66.3973 72.6689 66.4178 72.1966 65.9541C68.9181 62.7397 65.5692 59.5938 62.3472 56.3269C59.9806 53.9281 60.1193 49.9621 62.4812 47.6478C64.9629 45.217 68.8147 45.064 71.4962 47.2937C71.9333 47.6615 72.3493 48.0568 72.817 48.4748Z" fill="#D7B4CF"/>
</g>
<defs>
<clipPath id="clip0">
<rect width="143.244" height="141.559" fill="white"/>
</clipPath>
<clipPath id="clip1">
<rect width="92" height="57" fill="white" transform="translate(26.4069 45)"/>
</clipPath>
</defs>
</svg>
