<svg width="144" height="142" viewBox="0 0 144 142" fill="none" xmlns="http://www.w3.org/2000/svg">
<g clip-path="url(#clip0)">
<path d="M26.4069 53.0856C29.6782 52.7132 32.5759 55.288 32.6323 58.411C32.7169 63.124 32.7757 67.8394 32.8579 72.5524C32.865 73.0254 32.6323 73.7313 33.6335 73.5234C33.6335 64.6684 33.6335 55.8248 33.6335 46.9881C36.1669 46.5518 38.9682 48.5439 39.3913 51.2306C39.6498 52.8732 39.6239 54.5637 39.6568 56.2315C39.7626 61.7076 39.8284 67.186 39.9365 72.6621C39.9435 72.9591 40.2067 73.2538 40.3501 73.5485C40.4888 73.2538 40.7449 72.9591 40.7473 72.6621C40.7637 67.4464 40.7778 62.2308 40.7332 57.0174C40.705 53.6728 40.5851 50.3304 40.5123 46.9858C40.4982 46.385 40.5099 45.7819 40.5099 45.213C42.813 44.5665 46.2042 46.7437 46.4557 49.5171C46.7001 52.1992 46.6766 54.9064 46.7283 57.6045C46.8223 62.6625 46.8811 67.7183 46.9586 72.7763C46.961 72.9614 46.9892 73.1441 47.015 73.4274C47.4169 73.4457 47.7859 73.464 48.3804 73.4937C48.2512 65.813 48.1219 58.235 47.9927 50.6868C50.7423 50.1088 53.7105 52.6767 53.9996 55.0481C54.1359 56.1767 54.2134 57.3167 54.2275 58.4544C54.3262 66.937 54.4014 75.4219 54.4907 83.9045C54.4954 84.3043 54.5519 84.7018 54.6012 85.3392C55.0759 84.9165 55.365 84.6767 55.6329 84.4162C57.9031 82.2093 60.171 79.9979 62.4365 77.7864C65.3459 74.949 69.7078 76.0021 71.0708 78.1177C70.8029 78.4009 70.5256 78.7139 70.2295 79.0018C63.7784 85.2729 57.3602 91.5783 50.8575 97.7992C46.968 101.521 42.2819 102.917 36.9824 101.377C31.6077 99.8165 28.1976 96.2114 27.3211 90.8381C26.7805 87.5232 26.9474 84.0895 26.8957 80.7061C26.7711 72.4885 26.7124 64.2709 26.609 56.0556C26.5949 55.0915 26.4797 54.1205 26.4069 53.0856Z" fill="#D7B4CF"/>
<path d="M118.397 53.1101C118.397 55.7054 118.421 58.3212 118.393 60.937C118.332 66.717 118.256 72.4992 118.165 78.2792C118.104 82.1173 118.181 85.9668 117.89 89.7889C117.427 95.8361 112.673 100.762 106.525 101.746C101.46 102.557 97.2863 100.947 93.7141 97.4125C87.484 91.2487 81.1645 85.1717 74.8686 79.0719C74.5395 78.7544 74.1024 78.5419 73.7476 78.2998C75.9708 75.604 79.8344 75.3687 82.2761 77.6281C84.6004 79.7802 86.833 82.0259 89.1056 84.2305C89.4299 84.5458 89.766 84.8473 90.2501 85.2951C90.3464 83.4012 90.4827 81.7152 90.5086 80.0292C90.5767 75.3481 90.5838 70.6693 90.6378 65.9882C90.6754 62.6436 90.7271 59.2967 90.8165 55.9521C90.8964 52.9319 93.7212 50.4052 96.8304 50.6953C96.8304 51.536 96.8351 52.3973 96.8304 53.2586C96.7951 59.0797 96.7622 64.9008 96.7176 70.7196C96.7129 71.2473 96.6165 71.775 96.5766 72.3051C96.4873 73.4679 96.6071 73.5639 98.0854 73.3788C98.0854 73.0041 98.0854 72.6043 98.0854 72.2045C98.0924 68.2454 98.076 64.2862 98.1136 60.3293C98.1441 57.0213 98.2193 53.7155 98.3133 50.4075C98.3909 47.7002 100.548 45.434 103.307 45.0273C104.32 44.8788 104.492 45.3403 104.48 46.181C104.386 52.0386 104.327 57.894 104.245 63.7516C104.203 66.717 104.142 69.6801 104.071 72.6432C104.055 73.3263 104.158 73.7992 105.155 73.4062C105.155 70.322 105.126 67.2059 105.162 64.092C105.206 60.062 105.274 56.0321 105.38 52.0021C105.46 48.9728 108.271 46.5877 111.474 46.9189C111.439 47.5289 111.371 48.1457 111.368 48.7649C111.342 54.2067 111.342 59.6508 111.305 65.0927C111.286 67.6377 111.208 70.185 111.143 72.73C111.124 73.4085 111.305 73.7717 112.203 73.4245C112.203 70.3814 112.174 67.3041 112.212 64.2291C112.238 61.9902 112.184 59.7308 112.468 57.517C112.821 54.739 115.674 52.6989 118.397 53.1101Z" fill="#D7B4CF"/>
<path d="M72.817 48.4747C73.3575 48.0087 73.8346 47.5655 74.3445 47.1634C77.0002 45.073 80.8261 45.2855 83.1716 47.6431C85.524 50.0077 85.712 53.7978 83.3666 56.2194C80.147 59.5389 76.7628 62.7053 73.4609 65.9517C73.0073 66.3972 72.6689 66.4177 72.1965 65.9539C68.9181 62.7396 65.5692 59.5937 62.3472 56.3268C59.9806 53.928 60.1193 49.962 62.4811 47.6477C64.9629 45.2169 68.8147 45.0638 71.4962 47.2936C71.9333 47.6614 72.3493 48.0566 72.817 48.4747Z" fill="#D7B4CF"/>
</g>
<defs>
<clipPath id="clip0">
<rect width="92" height="57" fill="white" transform="translate(26.4069 45)"/>
</clipPath>
</defs>
</svg>
